<?xml version="1.0" encoding="UTF-8"?>
<svg id="Layer_2" data-name="Layer 2" xmlns="http://www.w3.org/2000/svg" viewBox="0 0 255.46 282.81">
  <defs>
    <style>
      .cls-1 {
        fill: #fdf6ee;
      }
    </style>
  </defs>
  <g id="Layer_1-2" data-name="Layer 1">
    <g>
      <path class="cls-1" d="M85.58,204.96c-.53,1.88-5.84-.12-5.87-1.95-.04-6.16-1.22-12.2-1.98-18.28-.38-3.01-.43-3.74-.99-6.77-.95-5.15-1.56-10.23,1.02-15.02-7.02,1.16-15.71,1.3-14.22-8.37,2.32-1.09,4.77-1.9,7.36-2.09,1.34-.1,5.43.93,5.53-.28-1.02-6.02-2.56-12.76.03-18.57-7.28-1.76-3.21-8.74,3.25-7.18-.1-2.14-2.81-2.19-4.57-3.56-1.89-1.48-5.31-5.76-3.61-8.21.84-1.36,4.86.34,4.26-1.57-.09-.29-2.99-5.04-3.22-5.26-1.15-1.13-3.97-1.23-3.96-3.23s4.72-3.97,6.54-3.58l-5.2,3.57c.87,1.95,7.78,2.56,9.77,2.29-1.48-12.03-.19-24.18.59-36.23.89-13.71,3.72-26.34,2.7-40.36-.22-3-.62-4.61-4.17-3.46-.86.28-.92.75-1.07,1.54-.68,3.56,1.67,11.02,1.95,14.99.43,6.11-1.1,10.7-1.32,16.25-.56,14.28-.51,28.77-.66,43.07-.02,1.42,1.54,4.64-1.61,2.91l-.98-21.22c.54-10.76,1.64-21.72,2.01-32.53.12-3.63-.67-25.46.72-26.32,3.95-.55,7.08-.36,6.43,4.47l1.62-.06c1.5,1.64,3.37,11.14,2.93,13.4-.31,1.61-2.16,2.05-1.99,3.89.15,1.52,1.77,1.95,2.29,3,2.56,5.18-.04,31.32.32,39.42.11,2.56.29,8.32.68,10.4.45,2.38,7.35,3.64-.03,6.59.46,4.28-2.86,13.68-.28,17.18,1.15,1.56,9.16,2.36,7.81,6.52-2.06-2.66-5.27-3.7-8.14-5.21l.47,1.93c1.78-.02,3.82,1.05,4.74,2.62l-5.21-.64.65,3.91-1.63.64c-2.09-1.72-.38-4.49-.3-6.8.55-16.38-2.15-31.75-2.01-47.62.07-8.08,2.19-18.2.68-26.02-.18-.95,0-2.02-1.29-2.29-.28,4.26-1.47,8.51-1.95,12.72-1.95,17.14-2.5,39.62-2.66,57.3-.03,4,1.19,7.98.72,12.05,6.67,1.96,9.99,1.1,15.59-2.58-.8,3.91-6.35,3.14-7.81,6.85,6.34,3.13,12.04-1.07,17.58-3.6-.15-1.58-1.23-2.54-1.35-4.23-.19-2.68,1.88-7.63,1.73-9.11-.06-.61-2.31-3.02,0-3.53,1.1-.24,5.17,1.61,6.78.26-2.33-2.71-12.53-2.1-13.06,1.32-.38,2.4,2.25,4.43,3.75,5.99.31.32,1.96.39.51,1.49-7.53-2.18-9.3-10.42-.5-12.24,4.01-.83,8.54,1.68,11.74-1.61,2.43-2.51-1.5-19.78-1.78-24.28-.92-14.89.16-36.51,2.02-51.39.47-3.78,3.14-5.18,3.25-7.24.14-2.57-2.16-3.64-2.88-6.31-.76-2.82.53-14.38,1.99-16.65,1.42-2.22,2.56-.35,2.8,1.44.69,5.15,3.48,9.25,2.3,14.72-.58,2.68-3.41,4.93-3,7.44.31,1.92,4.01,2.34,4.56,5.92,1.43,9.36.24,19.84.66,29.31.37,8.29.71,17.16,1.3,25.41.46,6.41,3.04,12.64,2.06,19.44.44,1.27,2.66.91,3.9,1.97.99.85,1.04,2.3,1.63,2.93,1.16,1.23,2.81,1.76,3.79,3.38,2.14,3.55,2.07,7.17-.2,10.61l9.37,9.53c1.74-1.63,2.78-3.71,5.54-3.25l-3.84-3.04c.2-5.14,2.51-6.43,7.1-4.13.12-1.82.17-4.76-1.25-6.07-1.15-1.06-4.42-.2-4.65-2.74s3.17-3.81,5.25-3.57c1.04-.98-4.21-4.46-4.33-5.52-.36-3.14,4.22-4.1,4.36-4.69-.63-6.25-.47-12.51-.68-18.78-.38-11.36-.13-18.76.65-29.99.26-3.72-.98-14.19,1.47-16.44,1.41-1.29,3.88.24,3.08-2.74-3.93.1-4.27-6.52-3.91-9.5.32-2.6,2.16-5.01,1.32-8.12l1.68.97,1.58,8.14c1.24-.08.37-2.09.96-3.27.47-.95,2.14-1.01,2.32-1.73.51-2.08-3.44-6.82-3.31-10.93.13-4.02,4.52-8.11,3.29-12.72.57-.06.85-.11,1.31.31,1.66,1.52,3.88,15.56,3.11,18.12-.38,1.29-2.43,1.87-2.47,3.37s2.09,3.08,2.46,4.71c.48,2.15.69,8.82.81,11.56.5,11.2,1.03,22.71,1.3,33.88.14,5.87-1.96,29.3-.06,32.48.62,1.03,3.07,1.25,3.3,3.4.46,4.42-11.29,11.19-1.31,12.36l-4.27,2.28c-.35.74,1.49,1.56.93,3.44-.1.34-3.99,6.13-4.49,4.57l-1.29-1.5v3.25s1.61-.66,1.61-.66l.33,1.3-3.29,1.72c-.42,4.74,7.16-.21,8.46-1.44l-2.56-3.19,2.03-.67c1.69.38,2.92,2.91,2.5,4.53-.24.92-4.32.54-4.53,2.98,2.37-.27,5.88-3.47,7.88-1.02,1.4,1.72-2.45,10.85-5.93,10.15,2.51,5.87,3.35,11.21,1.51,17.47-.84,2.85-2.87,4.93-3.78,7.29-2.44,6.35-.7,30.52-.32,38.76.24,5.31,4.38,15-4.45,11.95-.93-.59-1.23-9.98-1.45-11.91-.15-1.28-1.11-2.31-1.29-3.92-.73-6.65.36-13.89.35-20.54-2.55,1.39-6.37,7.6-6.72,10.24-.31,2.37.99,8.18,1.17,10.94.16,2.48-.1,5.01.01,7.49,1.47-.53,1.8-2.21,1.96-3.57.75-6.36-1.37-12.85-.66-19.23l3.19,17.32c-.66,6.29-3.39,9.88-10.07,9.43-4.73-.32-9.78-5.55-15.27-2.64-.26-1.42.62-1.54,1.63-1.94,6.16-2.46,10.09,3.87,16.17,3.28l1.08-3.94-7.81,1.95-.11-1.81c-2.41-.55-4.72-1.38-6.86-2.63-1.49-.88-4.27-4-4.57-4.07-1.9-.41-6.58,1.64-8-1.26,2.63.52,4.08.48,6.51-.68l-1.28-2.97-5.88.38c-.01,7.61-1.31,21.72-5.32,28.24-3.58,5.83-14.71,7.84-19.71,2.99-6.13-5.95-7.21-24.35-6.89-32.53-.54.3-1.05.54-1.59.03-2.19-2.06-4.28-5.99-6.87-7.85v12.71ZM169.01,110.77c-.93-.89-.1-22.48-.07-25.73.08-9.24-.15-15.53-.66-24.7-.52-9.38,1.07-18.76-.15-28.52-.15-1.22-.86-6.12-2.74-5.72-1.71.36-.86,11.17-.96,13.38-.51,11.38-1.16,23.09-1.99,34.5-.29,4.04-1.91,9.15-1.97,13.07-.1,6.93,1.92,13.11.65,20.79-.13.77-.39,1.54-1.27,1.66v-2.61c-1.88.49-5.15.3-4.57,3.26l15.63,1.3c.22-1.27-1.51-.3-1.9-.68ZM129.82,115.95l-2.23.09c-1.99-9.46-.51-19.4-.94-29.04-.65-14.48-2.33-29.14-3.29-43.62-.18-2.73-.3-8-2.59-9.45.29,4.94-2.77,10.17-3.27,14.66-.95,8.66,1.13,18.01,1.33,26.69.32,13.27-.48,26.48.02,39.74l-1.99,1c5.29,1.93,12.03,2.91,16.27-1.63l-2.92-2.27-.39,3.85ZM161.15,41.09l-2.5,1.07c-1.25,21.16-.73,42.29.87,63.43,2.14,0-.3-16.27-.35-17.9-.27-8.11.47-16.12.71-24.11.22-7.48-1.02-15.32,1.28-22.5ZM80.37,107.55h-3.26c.62,2.66,2.41,4.92,1.96,7.82.91-.06,1.16-2.96,1.21-3.66.12-1.39.13-2.77.08-4.16ZM170.26,112.11c-4.29,1.31-8.08.19-12.37,0,3.82,3.11,3.48,6.6,5.19,10.77,7.23,1.73,4.52-2.09,5.38-6.39.31-1.56,1.87-2.72,1.8-4.38ZM75.81,114.71l-3.91.66c0,3.9,4.18,6.17,6.84,8.45,1.5-1.1.93-2.95.97-4.55-2.85,1.1-4.11-2.01-3.91-4.56ZM140.29,124.49c.33-2.75-3.32-8.76-6.03-8.38-2.57.36-4.57,4.84-3.41,4.47,1.72-1.2,4.06-2.68,6.19-1.63,1.96.96,1.59,4.56,3.25,5.54ZM163.1,128.41c-4.94.23-2.6-1.87-2.74-4.24-.08-1.38-.35-3.82-.59-5.15-.13-.7-.22-2.43-1.23-2.34l-1.31,3.9,1.3.65-1.33.34c2.84,3.93-.89,11.81,5.24,12.69l.66-5.85ZM129.88,118.63c-4.4.62-9.01.96-13.02-1.31-.64.76,5.66,6.96,6.28,7.07.23.04,4.3-.99,4.48-1.13,1.27-1,1.52-3.25,2.26-4.63ZM123.28,125.87c-3.13-.31-6.82-6.62-9.75-6.3-3.94.44-3.2,6.44-5.8,8.81,2.58-.51,3.95-2.46,6.86-2.63,3.49-.19,5.47,2.05,8.77,1.98l-.08-1.87ZM137.61,127c.61-9.24-4.55-8.01-9.67-2.84,0,1.45,8.71,4.39,9.67,2.84ZM161.8,127.09l5.85-.33,1.14-1.28-.48-1.65c-2.32,1.24-6.26-.39-6.51,3.26ZM127.1,125.32c-.35-.37-2.14-1.14-2.42-.82v3.91s3.25,0,3.25,0c.04-1-.13-2.34-.83-3.08ZM145.51,211.15c-.34-3.23-1.3-7.6-1.33-10.73-.15-16.56-.83-32.4-1.91-48.89-.5-7.58,1.74-12.73-3.58-19.22-2.19-2.67-4.62-4.01-7.83-5.18-2.15.17.12,6.8.26,8.19,1.15,11.5-.01,23.16-.56,34.46-.31,6.45.63,10.45,1.24,16.33.97,9.38-.56,16.57,8.3,22.32,1.67,1.08,3.72,1.68,5.42,2.71ZM121.4,129.05c-1.95.71-3.5-.98-5.59-1.25-2.95-.38-6.87.41-8.05,3.46.59,3.55,10.58.96,12.83-.71.59-.43,1.17-.02.81-1.5ZM79.72,128.4c-1.16-.11-4.97-.34-4.56,1.62,1.15,1.36,2.67,2.48,4.55,2.29v-3.91ZM131.83,199.42c-1.34-11.28-3.73-22.09-3.25-33.55.14-3.4,1.61-9.32,1.35-12.39-.18-2.22-2.7-4.96-2.67-8.48.03-3,2.73-6.08,2.58-9.01-.15-2.83-1.43-7.1-4.89-6.9-1.79.1-3.63,4.09-6.12,3.92,1.35,3.21-1.87,7.23,1.92,9.07-.2-3,.91-7.14,3.26-9.12-.13,2.91-2.08,5.84-1.98,8.78.08,2.4,1.98,5.91,2.55,8.57,2.27,10.61,2.04,19.8,1.38,30.53-.18,2.88-1.36,6.17-1.32,9.1.04,2.76,1.33,6.57,1.34,9.49h5.84ZM153,129.29c-.82,0-2.52,1.05-2.28,2.03l6.19,4.23c3.54-1.63-1.94-6.27-3.91-6.26ZM117.5,133.61c-3.22,1.28-6.77.15-9.94.8-2.24.45-4.62,2.8-6.79,3.63-3.67,1.4-8.39,2.19-11.91.13v1.96c1.6-.83,2.35.33,3.63.56,8.98,1.64,11.63-4.16,20.21-5.71,1.52-.27,5.31.9,4.81-1.37ZM155.28,143.39c-6.19-.52-8.49-7.45-13.67-9.78.76,5.06,6.26,10.6,11.4,11.08,1.36.13,2.68.51,2.28-1.3ZM81.68,150.56l-3.9-1.68c-.49-1.66,1.65-2.4,1.73-3.2.07-.66-.94-2.19-1.05-3.33-.2-2.26.7-6.05-1.34-7.43-.34,2.58-.76,4.85-.69,7.52.08,2.86,1.02,12.42,3.06,13.88,3.61,2.58.86-4.51,2.18-5.76ZM88.19,135.57c-3.17,1.35-5.82-1.03-9.11-.65,1.12,3.03.47,10.5,3.41,11.9,6.29,2.97,4.57-8.05,5.7-11.24ZM117.45,137.57c-10.08-3.13-16.09,8.83-26,4.51-.21,2.48,1.82,1.2,3.03,1.79,4.26,2.07,4.95,4.46,2.55,8.69-.93,1.64-2.77,2.16-3.01,3.54s.89,6.51,1.97,7.18c3.98,2.47,14.9-10.44,19.43-10.9-.82-2.75,3.16-8.37,3.14-9.98,0-.95-1.69-3.14-1.12-4.84ZM156.58,179.22c-.08-3.94,1.78-8.28,1.89-12.12.12-4.32-1.33-10.64-1.29-14.91.03-2.95,2.78-13.66.06-14.99-2.39-1.17-6.54-.39-7.17,2.59l5,2.85c1.82.51.85-4.1,2.82-4.46-2.2,8.31-1.64,16.07-1.92,24.46-.15,4.7-1.16,9.24-.62,14.25.07.63.28,2.45,1.24,2.34ZM171.56,153.16c.02-3.24-1.78-6.56-3.38-9.32-.54-.93-5.25-8.08-6.38-6.96,2.12,3.48-3.72,3.53-2.6,7.81l3.66-2.56.91.24,7.8,10.79ZM174.82,139.48c-2.68.44-5.46-1.61-7.81.32,3.06,5.94,5.8,6.88,7.81-.32ZM142.91,139.48c1.33,3.3-.12,8.25,1.44,11.25.55,1.06.79,1.39,2.08,1.08l3.48-6.15-7.01-6.18ZM122.71,190.3c-.12-13.63,4.4-26.69.19-40.25l-3.43-6.65c-1.11,3.06-2.31,6.15-2.6,9.45-.62,6.95-.55,19.04,0,26.04.36,4.54.75,10.28,5.85,11.41ZM164.4,144.04l-2.32,3.87c-1.81,1.87-3.48,2.92-2.88,5.9,3.06-1.96,4.74-6.25,5.2-9.77ZM89.95,156.22c.75-.63,5.11-5.95,5.29-6.79.38-1.82-.11-3.52-1.54-4.73-2.09-.48-6.26,9.58-6.8,11.42-.53,1.8,2.27.77,3.05.11ZM152.68,146l-2.01.38-2.54,6.78h3.91c.11-2.4-.48-4.93.65-7.16ZM160.5,170.75l8.35-18.72c.21-1.4-1.71-4.93-2.83-5.38-1.4-.56-1.47,3.92-2.64,4.51-5.35,4.26-3.63,4.76-3.51,10.12.07,3.27.23,7.28,0,10.48-.35,4.73-2.52,9.87-1.66,14.63,6.04-3.11,4.2-10.65,4.89-15.97.12-.9.48-2.04,1.3-.96l-.7,12.7,1.35,6.19c-.32-8.78,2.21-17.19,1.3-26.06l-5.85,8.47ZM88.19,149.25l-5.86.65c-.17,2.61-.55,9.06,3.15,5.43l.11-4.78.97,2.6,1.63-3.9ZM144.21,152.51c.81,5.08,6.98,4.85,10.41,2.27-1.43-1.84-2.89.19-5.08-.1-2.32-.3-3.3-1.7-5.33-2.18ZM170.26,153.16c-1.7-.19-1.03.02-1.31.96-.38,1.28-1.68,4.64-1.75,5.32-.2,2.02,1.06,5.65.46,8.06,4.14-4.08,4.53-9.04,2.59-14.34ZM78.41,156.43c-3.95-2.62-7.26-2.13-11.72-1.3-.17.94,1.23.84,1.93.98,1.79.36,4.43.82,6.22.96.77.06,3.57.54,3.57-.63ZM115.54,155.77c-1.86-1.74-17.1,13.92-21.83,9.13l-.31,1.29c6.98.97,14.88-3.14,20.13-7.55.9-.75,2.19-1.49,2.01-2.87ZM78.25,159.19c-2.01-1.83-10.22-.71-12.85-2.78.83,6.16,8.86,6.27,13.67,5.21.28-.28-.44-2.08-.82-2.43ZM94.05,163.58l-1.63-7.15c-2.83,1.83-.85,4.27-.39,6.77l2.01.38ZM85.58,157.07c-.31-.32-6.25.32-6.51,1.94l6.51.66v-2.6ZM152.03,158.38l-5.23-1.03c-4.18,8.33-.49,17.47.05,26.08.4,6.47-.05,13.67,0,20.25.03,3.24-1.5,7.67,2.9,9.45,5.91-2.69,2.24-8.65,2.22-13.39-.03-10.18-1.24-20.43-1.28-30.6-.01-3.41.63-7.43,1.34-10.76ZM154.63,157.72c-1.25-.2-1.74.51-1.95,1.63-.83,4.56.47,11.02.67,15.61.22,4.79-.43,9.62.63,14.35.21.93-.03,2.02,1.29,2.29,1.21-6.69-1.12-14.27-1.32-21.15-.13-4.3.29-8.48.67-12.73ZM86.89,164.24c-1.96-.3-2.97,3.99-3.2,5.59-.25,1.73-.68,6.67-.64,8.35.12,5.43,6.77,14.27,10.68,17.99,1.68-1.03.37-2.33.53-3.48.09-.61,1.15-1.22,1.04-1.96-.05-.35-3.5-4.44-4.13-5.67-2.68-5.28-1.57-8.17-2.39-13.25-.42-2.59-1.54-4.94-1.88-7.56,3.72.57,3.59,23.32,10.41,25.76l3.26-1.01c.31-2.5-2.43-3.2-3.27-4.37-4.65-6.5-2.61-18.69-9.42-24.92-1.69,1.39-1.21,2.82-.98,4.55ZM115.55,159.68c-3.98,1.68-6.66,4.84-10.89,6.36-3.27,1.17-6.45,1.74-9.95,1.45.88,3.13,5.95,19.64,7.82,20.55l13.67.29c1.02-1.02-2.56-25.17-.65-28.66ZM81.02,180.2c-.14-3.45,0-6.96,0-10.43,0-1.58,3.21-6.93,3.91-8.79-10.21-2.1-8.55,16.34-3.91,21.18,1.64.82.01-1.79,0-1.96ZM81.66,185.09l-1.3.33c1.54,5.52,1.45,11.35,2.64,16.93.24,1.12-.73,1.95,1.28,1.62-2.14-3.76.51-9.96,0-13.3-.26-1.68-2.63-3.52-2.62-5.59ZM122.71,191.61c-2.52.39-5.29-1.18-7.59-1.27-3.85-.14-12.92.05-16.37,1.07-.76.22-2.75.54-2.74,1.48l15.98,1.33,10.72-2.62ZM167.66,220.27c-1.37-3.73-.33-8.07-.66-12.04-.26-3.08-1.52-6.3-1.88-9.2-.26-2.12.01-4.32-.07-6.45-.03-.79.49-2.42-.65-2.27.17,2.59-.7,4.87-.7,7.49.01,6.39.43,11.44,1.26,17.67.21,1.6.05,3.21.09,4.81h2.6ZM95.36,194.21c1.18,3.65.34,7.46.82,11.23.6,4.76,2.83,15.06,4.92,19.18,1.86,3.66,4.28,7.21,8.81,7.14s7.29-.94,9.09-5.12c4.41-10.25,6.52-21.4,4.06-32.45l-14.31,3.3c-4.94.85-8.74-2.55-13.38-3.28Z"/>
      <path class="cls-1" d="M83.41,230.27c.71.54.96,2.08,2.2,2.69,1.14.56,2.59.34,3.77.78,4.72,1.77,4.78,6.91,5.4,7.3.54.34,3.08-.04,4.51.38,4.52,1.33,8.56,6.41,8,11.33-2.38,20.96-36.2,21.99-52.03,21.64-10.01-.23-34.3-1.33-42.88-5.32-2.78-1.29-11-8.27-11.84-10.96-2.31-7.4,3.09-14.05,9.78-16.35,2.86-.98,6.47-.67,8.62-1.8,2.37-1.24,2.87-3.37,4.52-4.61,1.9-1.42,6.66-4.22,9.15-5.83,9.93-6.41,23.41-4,34.48-2.81,6.03.65,11.3-.24,16.31,3.56ZM82.74,234.19c-3.51-4.03-12.42-4.05-17.61-4.86-11.96-1.87-11.73-2.08-23.7.54-6.14,1.34-16.84.8-10.84,10.55l10.04,4.61-11.07-.97,8.33,10.08c2.33.18,4.7,1.13,6.99,1.32,7.09.58,14.37-.56,21.4-.44,1.27.02,2.48,1.12,4.56,1.05,3.34-.11,2.85-1.73,4.61-3.25,3.2-2.76,6.38-5.24,7.52-9.74-11.23,3.89-24.32,5.06-36.1,3.19-1.14-.18-2.79-.27-2.33-1.89,2.02.99,3.57.04,5.51-.03,10.15-.36,20.5.43,30.49-2.07,3.75-.94,4.7-5.22,2.2-8.09ZM28.26,234.61c-.87-.85-5.86,3.92-6.26,5.19-.84,2.72,5.1,11.33,8.86,11.08-2.19-5.13-6.02-10.91-2.61-16.28ZM76.46,254.8c10.4-1.14,22.23-11.28,10.74-20.19,1.02,8.32-4.79,15.23-10.74,20.19ZM19.79,241.12c-5.39,1.4-13.24,3.42-14.7,9.73-.41,1.77-1.13,8.41-.58,9.79.61,1.52,3.83,4.2,5.3,5.12,5.42,3.39,19.93,5.57,26.56,6.01,18.42,1.21,47.61,2.37,62.83-9.53,9.77-7.63,6.71-17.12-5.15-18.51l4.45,3.68c6.14,7.93.27,13.45-7.08,16.81-18.12,8.3-40.64,8.28-60.06,4.73-8.6-1.57-21.85-6.72-17.49-17.79.86-2.17,4.2-5.02,6.49-5.57l-.59-4.49ZM21.09,246.99c-9.7,3.35-7.97,13.19,1.31,16.62,3.24,1.2,19.16,5.13,22.56,5.45,13.66,1.29,31.66.55,44.12-5.22,2.39-1.11,8.51-3.94,8.9-6.79.37-2.68-.95-9.89-4.57-10.06.09,6.6-4.46,15.89-11.07,17.92-12.98,4.01-36.51,1.67-49.65-1.83-8.46-2.25-8.79-8.71-11.6-16.09ZM24.34,248.95l-1.28.31c2.63,3.38,2.92,9.24,7.16,11.08,7.9,3.44,19.91,2.63,28.36,2.9,1.54.05,2.97.68,4.51.71,10.14.15,27.57,1.21,28.37-12.73.14-2.47-4,1.4-5.19,1.98-7.71,3.77-22.47,6.46-31,6.19-9.29-.3-23.53-1.96-30.28-8.84-.48-.49-.56-1.53-.65-1.61Z"/>
      <path class="cls-1" d="M152.26,269.56c-5.64-5.44-7.12-14.46.4-19.01,2.65-1.6,10.94-4.98,13.05-2.27-8.18,1.2-18.73,3.34-14.35,14.04,5.55,13.56,27.81,11.94,39.43,12.68,14.95.96,29.7,4.22,44.15-1.46,6.17-2.43,17.27-9.36,16.74-17.08-.16-2.36-5.65-8.15-8.44-6.55,16.78,18.59-17.88,24.34-30.3,25.08-11.06.66-33.27-.93-43.5-4.69-3.7-1.36-9.26-5.13-9.55-9.39-.46-6.59,4-8.34,6.39-12.4,1.11-1.89,1.19-4.39,2.69-6.25.69-.86,8.96-6.53,10.41-7.36,12.56-7.13,26.7-3.67,40.09-2.27,3.9.41,7.39-.79,11.2,1.18,1.96,1.01,3.08,3.05,4.78,4.34s3.53.94,5.18,3.29.92,3.57,1.91,5.91c7.86-1.17,16.45,10.01,11.46,16.58-6.31,8.3-26.94,15.57-37.13,14.96-6.97-.42-9.45-.2-16.27.04-11.25.4-40.15-1.49-48.33-9.38ZM176.26,244.91c2.42,1.05,4.29,3.1,6.88,3.86,11.12,3.26,32.73,2.13,43.79-1.46,3.99-1.3,7.46-4.14,4.57-8.47-.62-.93-4.2-4.35-5.18-4.61-1.21-.32-2.73.56-4.23.4-9.86-1.08-19.88-1.16-29.92.06-6.3.76-16.88,1.72-15.91,10.22ZM184.6,256.75c-3.8-5.04-13.26-8.16-11.08-15.63-11.66,7.11,3.68,14.69,11.08,15.63ZM181.34,251.55c1.35,1.73,7.15,6.51,8.93,7.02,3.58,1.04,15.21.91,19.43.81,7.86-.17,22.26-.61,28.01-6.52,5.26-5.41-.79-11.93-2.3-10.45-.69,6.9-6.78,11.81-12.06,15.64-1.06-.66.22-1.44.65-1.95.73-.88,7.94-6.76,6.84-7.81-16.36,3.9-32.76,4.67-49.5,3.26ZM240.62,252.2c.92,5.69-2.67,10.39-7.21,13.32-9.56,6.16-42.12,5.63-52.71,1.33-6.34-2.57-6.6-6.36-10.15-11.35-1.22-1.71-3.48-2.77-3.55-5.25-5.44,2.7-7.5,8.97-2.55,13.31,8.91,7.8,25.26,8.97,36.76,9.49s32.21-1.39,41.04-9.1c3.81-3.33,2.11-9.08-1.63-11.74ZM175.24,257.63c4.35,5.21,6.45,6.77,13.26,8.57,11.19,2.96,25.38,2.34,36.75.27,5.19-.94,11.21-5.57,12.76-10.69-2.71.34-5.06,2.69-7.47,3.6-8.6,3.27-37.49.95-47.5-.75-3.16-.54-6.06-2.08-8.54-2.54-2.45-.45.56,1.32.74,1.53Z"/>
      <path class="cls-1" d="M222.37,207.24c3.47-.37,7.58.91,10.37,2.99.22.16,2.68,2.43,2.71,2.62.63,3.92-12.33,7.17-15.33,7.45-6.54.61-11.48-1.39-17.29-3.93,1.45,9.61-12.78,16.11-20.13,12.64-6.76-3.19-8.5-12.2-9.83-18.84l1.38-25.31.55-.75c1.61-.42,3.1-1.38,4.68-1.83,4.22-1.2,12.39-1.57,16.2.53.9.49,1.61-.06,1.27,1.63-2.14-1.13-3.65-.08-5.54,0-5.19.22-10.31-.27-15.3,1.63,4.64,2.17,12.05,2.96,16.91,1.29,2.07-.71,3.77-2.6,5.88-2.64,3.14,1.62,5.12,21.56,5.21,25.79,4.07-2.05,8.07-2.09,12.45-2.98.71-.96.08-9.12-.08-11.02-.3-3.65-1.54-16.03-2.77-18.74-1.19-2.63-5.96-2.88-8.52-4.51-5.83-3.69-5.98-12.89-5.64-19.11.3-5.49,2.24-22.98,4.7-27.23,1.3-2.24,7.43-3.6,9.98-3.73,1.84-.09,8.88,1.02,10.91,1.45.66.14,1.77.58,2.1,1.16,1.09,4.71,1.61,10.04,2.96,14.63,2.83,9.6,11.11,24.63-1.12,32.18-2.42,1.49-7.93,1.72-8.56,3.82l1.82,30.83ZM226.94,127.1c-5.69.67-10.81,1.5-16.6,1.29-1.1-.04-2.27-.73-3.27-.67-2.63.17-1.41,5.79-1.71,8.08-1.25,9.71-6.53,23.4-1.5,32.3,2.76,4.88,9.57,5.08,11.73,9.12,1.57,2.95,1.92,9.82,2.23,13.41.55,6.38.43,13.44.66,19.87-1.83.8-1.94-1.26-2.37-1.33-2.67-.47-9.04,1.66-10.64,4.26,7.78,5.12,19.71,5.98,26.65-.74.41-2.42-6.73-3.99-8.61-3.51-.84.22-.86,2.77-3.06,1.97l-1.27-4.28-.54-30.45c1.22-4.66,6.54-2.81,9.58-5.4,9.13-7.79-2.09-33.51-1.25-43.92ZM198.92,187.04c-3.24.3-5.32,2.6-8.79,2.67-4.52.09-10.05-1.81-14.65-2.01-.6,11.05-.52,20.92,3.42,31.44.82,2.19,2.11,6.63,4.36,7.37,3.03.99,10.85.53,13.41-1.66,3.67-3.13,5.15-18.83,4.79-23.71-.34-4.59-2.27-9.44-2.52-14.09Z"/>
      <path class="cls-1" d="M40.13,178.72c-2.79,2.69-.82,11.1-.77,14.49.09,5.98-.12,11.98-.03,17.95,3.54-1.14,16.64.82,14.01,6.5-2.39,5.16-18.45,5.06-23.48,4.6-3.76-.34-11.54-2.93-8.41-7.8s7.3-2.44,11.87-4.1c.34-.89.6-1.9.72-2.85.93-7.38.56-22.48-1.55-29.59-1.24-4.16-3.7-2.93-6.64-4.42-5.53-2.81-7.59-5.07-8.04-11.5-.31-4.55.75-15.38,1.38-20.17.49-3.7,2.87-7.34,3.74-10.66.64-2.45-2.03-2.4,2.37-4.08,4.97-1.91,14.02-3.16,18.77-.48,2.16,1.22,2.84,3.99,3.54,6.23,3.34,10.69,8.63,30.54,2.26,40.34-3.14,4.83-7.98,3.85-9.75,5.56ZM40.63,127.75c-5.21-1.19-8.24-1.58-13.47-.09-1.1.31-1.82-.49-1.51,1.39h6.18s8.8-1.29,8.8-1.29ZM44.54,130.35c-5.24,3.19-14.47,2.75-19.87.02l-.87,1.06c-1.3,6.5-.93,13.04-1.38,19.47-.48,6.91-4.08,15.56,2.9,20.5,3.95,2.79,7.25.92,8.72,6.92,2.6,10.65,1.9,22.58,2.03,33.48-3.29-.23-12.55-.06-12.93,4.35-.45,5.18,15.3,4.3,18.38,4.04,16.62-1.42,6.34-8.33-3.47-7.77-1.4-11.16-.49-22.64-.43-33.87.87-2.84,6.4-2.49,8.87-4.86,4.87-4.68,4.68-13.22,3.6-19.25-1.45-8.05-4.94-16.05-5.57-24.09Z"/>
      <path class="cls-1" d="M140.79,281.36c-2.04.71-6.37,1.56-8.05.22-1.91-1.52-2.71-16.41-3.66-19.8-.55-1.96-2.68-4.07-3.43-6.34-1.56-4.71-.34-12.33,1.15-17.08.59-1.88,2.22-4.01,3.58-1.34.94,1.84,1.65,7.91,2.43,10.61,1.86,6.41,4.68,12.7,6.52,18.89.8,2.71,3.57,13.01,1.46,14.83ZM133.94,279.42c1.33.88,5.2,1.39,6.09.18l.26-.97-11.71-38.81c-.59,3.9-2.56,8.76-1.93,12.67.36,2.24,3.26,5.58,3.98,8.4.82,3.23,1.61,16.78,3.3,18.53Z"/>
      <path class="cls-1" d="M149.49,229.99c2.59.06,5.51-.13,7.45,1.99l-1.77,7.74c-4.9.76-9.47,1.7-14.23-.21-2.77-6.42-1.81-9.95,5.87-8.81-1.35-3.44-3.79-3.22-2.09-7.64,3.64-9.49,7.74,1.59,6.35,3.73-.8,1.22-3.1.52-1.58,3.2ZM149.42,233.96c-1.38.34-1.69-1.14-2.59-1.57-.82-.39-6.74-.49-2.62,1.2,4.62,1.89,15.52.79,5.21-1.6v1.96ZM153.33,236.56c-4.15.12-7.82.23-11.73-1.3.99,5.47,7.61,3.98,11.72,3.24v-1.94Z"/>
      <path class="cls-1" d="M111.64,238.52h1.95c-1.2,4.79-.86,12.97,2.31,16.92,1.33,1.65,3.49,1.81,4.07,4.4,1.23,5.48-.71,14.26,1.78,19.73,1.61,1.68,4.16.55,6.18.65-1.39-4.22-2.26-8.78-3.6-13.01-.78-2.48-3.42-6.65-3.41-8.94,0-1.26,1.76-2.27,1.84-4.44.16-4.27-1.93-10.17-2.02-14.31-.03-1.38-.54-2.69,1.32-2.3.18,5.47,3.06,13.19,1.83,18.44-.3,1.26-1.86,2.39-1.72,3.28.07.42,2.02,3.23,2.52,4.67,1.17,3.39,1.39,6.28,2.24,9.49,1.21,4.54,5.74,8.2-2.22,9.46-1.84.29-3.82.7-5.29-.8-1.97-3.11.61-17.31-1.37-22.58-.47-1.25-6.39-3.22-6.39-7.29v-13.36Z"/>
      <path class="cls-1" d="M73,207.09c-.16.25-1.11,0-1.12.48l1.1,1.52,6.73.77c-1.48,2.88.69,5.34-.61,8.03-.9,1.38-12.13,2.37-13.73,1.42-2.25-1.33-2.37-13.37,3.91-9.45l-3.24,1.62c2.57,3.34,7.55.69,11.06.32.16-3.49-5.54.31-5.85.01.13-2.79-2.9-3.46-3.25-6.25-.3-2.4,1.18-5.78,2.92-7.42.95.01,2.96,7.55,2.08,8.96ZM77.76,213.11l-12.37,1.62,1.58,2.77,10.72-1.2.07-3.19Z"/>
      <path class="cls-1" d="M82.32,2c-.6,6.58,4.45,14.82.3,20.82-.36.52-2.29,2.67-2.9,1.99.44-3.23-2.73-4.25-2.65-7.46.07-2.7,2.54-6.39,3.15-9.31.45-2.18-.89-6.01,2.1-6.03Z"/>
      <path class="cls-1" d="M115.55,252.2c-.47-4.42-1.67-9.49.32-13.68,1.74,2.23.9,5.99.98,8.79.06,1.78,2.02,4.72-1.3,4.89Z"/>
      <path class="cls-1" d="M118.81,252.85c-.11-4-1.13-8.03-.68-12.07.11-.98.14-2.01,1.32-2.26l1.1,13.39-1.74.95Z"/>
    </g>
  </g>
</svg>