<?xml version="1.0" encoding="UTF-8"?>
<svg id="Layer_2" data-name="Layer 2" xmlns="http://www.w3.org/2000/svg" viewBox="0 0 1879.11 263.61">
  <defs>
    <style>
      .cls-1 {
        fill: #fdf6ee;
      }
    </style>
  </defs>
  <g id="Layer_1-2" data-name="Layer 1">
    <g>
      <g>
        <g>
          <path class="cls-1" d="M40.41,263.6c-.9-.1-1.66-2.17-2.22-3.69-.6-1.64-1.08-2.94-1.92-3.22-.16-.05-.32-.08-.49-.08-.94,0-1.8.82-2.63,1.61-.73.7-1.49,1.41-2.11,1.41-.09,0-.18-.02-.27-.05l.13-.22c1.09-1.88,2.92-5.04,4.96-5.04.52,0,1.03.2,1.56.6.29.22.46.57.65.94.31.62.7,1.39,1.73,1.41h.55s-.05-.54-.05-.54c-.05-.54.06-1.08.18-1.65.1-.52.21-1.05.21-1.61-.03-4.93-1.06-10.72-2.06-16.33-.72-4.01-1.46-8.16-1.79-11.87-1.68-18.42-2.48-34.78-2.45-50.01,0-1.1.09-2.21.18-3.39.11-1.38.22-2.81.19-4.26-.12-5.79-1.13-11.58-2.11-17.19-1.12-6.41-2.28-13.03-2.08-19.63.07-2.53.41-5.1.74-7.59.27-2.05.54-4.16.68-6.26.28-4.4.27-8.9.25-13.25,0-2.97-.02-6.04.07-9.04.64-22.54,2.55-41.46,6.02-59.57.64-3.34,1.57-6.68,2.47-9.91.52-1.88,1.07-3.83,1.55-5.76l.1-.38-5.3-2.73-.44,1.08c-2.99,7.35-6.09,14.96-7.63,22.78-3.54,17.9-4.96,41.34-4.01,65.99.61,15.72,1.88,31.7,3.1,47.15l.04.46c.94,11.83,1.59,21.81.69,33.62-.21,2.79-.58,5.72-.93,8.55-.63,5.03-1.28,10.22-1.15,15.13.14,5.28.69,10.7,1.22,15.93.68,6.75,1.38,13.72,1.24,20.53-.43,2.01-.42,4.38-.4,6.68.01,2.19.03,4.26-.32,6.09-.06.31-.19.49-.43.71-.13-.25-.42-.97-.83-2.91l-.08-.35c-.91-3.91-.97-7.13-1.03-10.54-.03-1.44-.05-2.93-.15-4.52-.16-2.78-.35-5.56-.54-8.35-.66-9.8-1.35-19.94-.81-29.85.24-4.33.88-8.76,1.51-13.04.85-5.84,1.73-11.89,1.63-17.94-.1-6.19-.98-12.36-1.83-18.33-.67-4.69-1.36-9.54-1.66-14.35-1.03-16.29-1.4-31.35-1.11-44.78.04-1.91.08-3.83.11-5.75.37-19.81.76-40.3,6.98-59.34.1-.3.4-1.03.75-1.88,2-4.85,2.2-5.72,1.84-6.17l-.3-.37-.38.28c-1.2.86-2.62,1.66-4.12,2.51-2.32,1.31-4.71,2.66-6.38,4.3-1.27,1.25-2.45,2.97-3.7,4.79-2.75,4.01-5.6,8.16-9.79,8.16-.7,0-1.43-.12-2.17-.35-.91-.29-1.69-.91-2.26-1.78-.84-1.29-3.02-10-2.75-10.95.05-.18.1-.23.1-.23-.03.03.14.13.33.39.66.88,1.18,2.41,1.72,4.02,1.1,3.24,2.34,6.9,5.36,6.9,1.16,0,2.44-.55,3.91-1.67,2.21-1.69,3.71-3.62,5.29-5.67,1.93-2.49,3.93-5.07,7.39-7.3l1.31-.84c5.04-3.23,7.58-4.85,11.05-11.11.46-.84.89-2.07,1.38-3.5,1.11-3.25,2.5-7.29,4.75-7.29h.11c.57.04,1.06.79,1.38,1.67l-2.28-.67-.07.59c-.08.73-.53,2.02-1,3.38-.91,2.62-1.85,5.32-1.23,6.6.32.67,3.08,1.9,8.21,3.67l.21.07,1.42-.8.07-.1c.55-.82,1.43-1.66,2.36-2.56,2.36-2.26,5.3-5.07,3.02-8.6-1.2-1.86-3.15-2.21-5.04-2.55-1.17-.21-2.29-.42-3.19-.97,1.14-.64,2.77-1.03,4.42-1.03,1.37,0,2.6.27,3.46.77.37.21.72.62,1.09,1.05.49.57.99,1.15,1.67,1.46,1.6.73,3.8,1.16,6.12,1.62,2.14.42,4.35.86,6.04,1.54,1.58.63,2.79,1.66,4.08,2.75,1.39,1.17,2.83,2.39,4.74,3.05,2.22.77,4.49.92,6.69,1.06,3.12.2,6.08.39,9.03,2.19,2.96,1.8,10.51,12.35,11.23,15.67,1.23,5.71-2.71,7.82-6.89,10.05-1.36.73-2.76,1.48-3.98,2.36-.67.48-1.27,1.04-1.86,1.58-1.32,1.21-2.57,2.36-4.4,2.65-.17.03-.36.04-.58.04-3.94,0-15.17-3.91-17.66-6.15-2.9-2.61-4.93-7.86-6.73-12.5-.71-1.84-1.38-3.57-2.06-5.02-.38-.82-.85-1.6-1.3-2.36-.55-.93-1.08-1.83-1.47-2.78,1.32.61,4.17,3.66,4.94,4.7,1.58,2.14,2.72,4.72,3.83,7.21.87,1.97,1.77,4,2.89,5.82,2.11,3.45,5.84,4.51,9.44,5.54,1.67.48,3.4.97,4.92,1.7l.05.02h.05c.12.04.22.05.32.05.3,0,.54-.15.65-.39.17-.37.16-.92-1.84-3.19-2.04-2.33-4.26-4.51-6.4-6.63-1.77-1.75-3.61-3.56-5.3-5.41-.3-.33-.4-.51-.43-.59,6.09,3.59,11.91,8.5,17.29,14.6l.24.27.33-.14c.94-.4,1.7-1.02,2.43-1.61.49-.4.96-.77,1.47-1.09.54-.33,1.27-.7,2.04-1.08,2.88-1.44,6.47-3.23,6.28-6.17-.16-2.52-4.95-9.29-6.38-11-3.82-4.57-7.24-4.76-10.86-4.97-2.29-.13-4.66-.27-7.35-1.53-1.88-.88-3.26-2.27-4.6-3.61-1.09-1.09-2.21-2.22-3.59-3.06-1.67-1.02-3.59-1.74-5.45-2.44-1.37-.51-2.79-1.04-4.06-1.69l-.06-.03h-.07c-.12-.04-.23-.05-.33-.05-.36,0-.67.13-.9.37-.57.6-.51,1.7-.45,2.77.02.45.04.87,0,1.14-.25,1.86-1.72,3.25-3.01,4.48-1.08,1.02-2.01,1.91-2.09,2.93-.04.44.55,1.7,3.33,7.1,1.21,2.37,2.47,4.81,2.8,5.66,3.82,9.85,3.42,19.08,2.99,28.86-.29,6.75-.59,13.74.63,20.9,2.02,11.78,8.17,21.47,14.11,30.84,4.36,6.87,8.86,13.97,11.78,21.91,3.82,10.4,4.74,20.87,5.62,31,.58,6.66,1.18,13.55,2.6,20.46.29,1.42.7,2.83,1.1,4.2.41,1.4.8,2.72,1.06,4.05.45,2.22.65,4.59.84,6.89.15,1.75.3,3.57.57,5.31-.23.67-.84,1.37-1.42,1.37-1.37-.13-4.34-4.25-6.3-6.97-1.23-1.7-2.29-3.17-2.99-3.84l-.15-.14h-.21c-.71,0-1.11.99-1.83,2.77-.74,1.83-1.86,4.61-3.05,4.61-.01,0-.02,0-.03,0-.14-1-.43-2-.71-2.97-.22-.76-.43-1.48-.57-2.18-1.45-7.56-2.88-17.42-3.55-24.54-.3-3.22-.47-6.26-.64-9.2-.42-7.48-.82-14.55-3.31-22.76-2.65-8.74-7.66-15.86-12.5-22.76-6.55-9.33-13.33-18.97-14.47-32.84-.5-6,.35-13.53,1.25-21.5,1.78-15.81,3.79-33.73-4.7-43.9l-.14-.18c-.51-.66-1.03-1.26-1.64-1.26-.28,0-.54.13-.72.37-.42.41-.93,2.03-1.74,5.72l-.08.38c-6,26.61-6.53,54.32-7.05,81.11-.12,6.09-.24,12.38-.42,18.55-.04,1.21-.11,2.41-.18,3.62-.14,2.23-.28,4.54-.18,6.85.23,5.16,1.2,10.31,2.14,15.3.83,4.41,1.69,8.98,2.04,13.55.4,5.32.36,10.65.32,15.8-.04,5.38-.09,10.95.37,16.52.46,5.5.8,11.1,1.13,16.52.44,7.14.9,14.52,1.61,21.75.17,1.7.39,3.46.62,5.32.9,7.2,1.91,15.35-.03,21.73l-.09.3c-.29,1.02-.49,1.44-.99,1.44-.04,0-.07,0-.11,0ZM89.45,190.75c.46.2.95.41,1.23.71.63.67,1.33,1.89,2.07,3.17.73,1.27,1.49,2.59,2.28,3.55l.26.33c.63.8,1.5,1.9,2.44,2.11l.97.21-.41-.91c-1.79-3.96-3.75-8.69-4.72-13.72-1.25-6.48-1.76-13.24-2.25-19.79-.71-9.49-1.45-19.29-4.46-28.48-2.88-8.8-7.76-16.63-12.48-24.21-5.13-8.24-10.44-16.76-13-26.38-2.98-11.18-2.37-19.72-1.6-30.53.85-11.97,1.05-18.24-3.69-29.93-.03-.07-3.11-7.4-3.59-7.84-.25-.23-.52-.49-.98-.49l-5.17.39-.07.38c-.19,1.1.48,1.71,1.02,2.21.23.21.44.4.59.62,7.68,10.97,6.26,26,4.88,40.54-1.03,10.85-2.09,22.07.63,31.56,2.63,9.19,7.94,16.62,13.07,23.8,5.02,7.02,10.2,14.28,12.9,23.2,2.28,7.55,2.78,14.73,3.3,22.33.21,3.02.42,6.14.76,9.3l1.42,25.22.4.06c.21.03.37.05.48.05.32,0,.7-.12.75-.69,0-.07,0-.1.03-.14.16-.35.35-1.01.59-1.84.34-1.2,1.37-4.79,2.06-4.96.09.04.19.08.29.13ZM44.16,12.08c-1.11-1.62.34-4.53,1.24-6.33v-.03c.13.5.19.98.19,1.35-.01.67-.89,3.92-1.43,5Z"/>
          <path class="cls-1" d="M.18,21.55c-.22-.91-.21-3.03-.12-3.93.77-7.54,3.2-8.39,8.04-10.06,1.19-.41,2.53-.88,4-1.5,1.35-.57,2.85-1.39,4.44-2.25,3.09-1.68,6.29-3.42,8.91-3.68.88-.09,1.67-.13,2.41-.13,4.75,0,7.56,1.7,10.64,6.45l-.11.18c-.69-.33-1.33-.87-1.94-1.39-.5-.42-.97-.82-1.47-1.12-2.55-1.54-4.91-2.29-7.21-2.29-3.23,0-6.06,1.48-9.05,3.04-1.61.84-3.27,1.71-5.15,2.45-.56.22-1.75.59-3.12,1.01-3.67,1.14-6.12,1.93-6.68,2.5-.33.34-.54.91-.52,1.44.27,1.25,1.65,1.85,4.11,1.85.81,0,1.75-.07,2.72-.19,1.69-.21,3.44-.82,5.14-1.4,1.51-.52,3.07-1.05,4.53-1.29l.54-.09-.39-1.53s.25-.16.25-.16c.75-.51,6.94-2.61,8.08-2.74.68-.08,1.32-.11,1.9-.11,1.79,0,3.04.35,3.62,1.03.25.3.39.66.4,1.11-1.7-.35-3.32-.53-4.81-.53-1.96,0-3.73.31-5.27.93-1.02.41-1.45.99-1.83,1.51-.27.37-.52.71-.99,1.02-3.31,2.19-8.91,4.54-13.37,4.54-1.47,0-2.73-.25-3.75-.75-.14-.07-.28-.21-.44-.36-.33-.33-.74-.73-1.4-.73-.15,0-.31.02-.47.07l-.3.08L.18,21.55Z"/>
          <path class="cls-1" d="M78.98,26.93c-.11-.03-.23-.08-.39-.15-2.87-1.21-13.74-10.2-16.35-12.9-.47-.49-.67-1.06-.64-1.23,0,0,.05,0,.09,0,.09,0,.2.02.34.05.28.08,1.32.9,1.82,1.29.26.21.49.39.65.51,2.65,1.93,9.29,6.95,13.65,11.75.18.2.39.32.55.42.18.1.26.16.29.27Z"/>
        </g>
        <g>
          <path class="cls-1" d="M1838.59,263.61c-.5,0-.7-.43-.99-1.44l-.09-.3c-1.94-6.38-.92-14.54-.03-21.73.23-1.86.45-3.62.62-5.32.71-7.24,1.17-14.62,1.61-21.75.33-5.42.68-11.01,1.13-16.52.46-5.58.42-11.14.37-16.52-.04-5.15-.08-10.48.32-15.8.35-4.58,1.21-9.14,2.04-13.55.94-4.98,1.91-10.14,2.14-15.3.1-2.31-.04-4.62-.18-6.85-.07-1.21-.15-2.42-.18-3.63-.18-6.17-.31-12.46-.42-18.55-.52-26.79-1.05-54.5-7.05-81.11l-.08-.38c-.82-3.69-1.32-5.3-1.79-5.77-.14-.19-.39-.32-.67-.32-.61,0-1.12.6-1.64,1.26l-.14.18c-8.49,10.17-6.47,28.09-4.7,43.9.9,7.97,1.74,15.5,1.25,21.5-1.15,13.87-7.92,23.52-14.47,32.84-4.84,6.89-9.85,14.02-12.5,22.76-2.49,8.21-2.89,15.28-3.31,22.76-.17,2.94-.34,5.99-.64,9.2-.67,7.12-2.1,16.98-3.55,24.54-.13.7-.34,1.42-.57,2.18-.28.97-.58,1.97-.71,2.97-.01,0-.02,0-.03,0-1.19,0-2.31-2.77-3.05-4.61-.72-1.78-1.12-2.76-1.83-2.76h-.2s-.15.14-.15.14c-.7.68-1.76,2.15-2.99,3.85-1.96,2.72-4.93,6.84-6.23,6.97h0c-.65,0-1.26-.7-1.49-1.37.26-1.74.42-3.56.57-5.31.2-2.29.4-4.66.84-6.89.27-1.33.65-2.66,1.06-4.05.4-1.37.81-2.78,1.1-4.2,1.41-6.91,2.01-13.8,2.59-20.46.89-10.13,1.8-20.6,5.62-31,2.92-7.94,7.42-15.04,11.78-21.91,5.94-9.37,12.09-19.06,14.11-30.84,1.23-7.17.93-14.15.63-20.9-.42-9.78-.82-19.01,2.99-28.86.33-.85,1.58-3.29,2.8-5.66,2.77-5.4,3.36-6.66,3.33-7.1-.08-1.02-1.01-1.91-2.09-2.93-1.29-1.23-2.76-2.62-3.01-4.48-.04-.27-.01-.69,0-1.14.06-1.07.11-2.18-.45-2.77-.23-.24-.54-.37-.9-.37-.1,0-.21.01-.33.03h-.07s-.06.04-.06.04c-1.27.64-2.69,1.17-4.06,1.69-1.86.7-3.78,1.42-5.45,2.44-1.38.85-2.5,1.97-3.59,3.06-1.34,1.34-2.72,2.73-4.6,3.61-2.69,1.26-5.06,1.4-7.35,1.53-3.62.21-7.04.4-10.86,4.97-1.43,1.71-6.22,8.49-6.38,11-.18,2.94,3.4,4.73,6.28,6.17.77.39,1.5.75,2.04,1.08.52.32.98.7,1.47,1.09.74.6,1.5,1.21,2.43,1.61l.33.14.24-.27c5.38-6.1,11.2-11.01,17.29-14.6-.03.09-.13.26-.43.59-1.69,1.84-3.53,3.66-5.3,5.41-2.14,2.11-4.35,4.3-6.35,6.58-2.04,2.31-2.05,2.87-1.88,3.24.11.25.35.39.65.39.1,0,.2-.01.32-.04h.05s.05-.03.05-.03c1.52-.73,3.25-1.22,4.92-1.7,3.6-1.03,7.33-2.09,9.44-5.54,1.11-1.82,2.01-3.85,2.89-5.82,1.11-2.5,2.25-5.08,3.83-7.21.77-1.04,3.62-4.1,4.94-4.7-.39.95-.92,1.84-1.47,2.77-.45.76-.91,1.54-1.3,2.36-.68,1.45-1.35,3.18-2.06,5.02-1.79,4.63-3.82,9.89-6.73,12.5-2.49,2.24-13.72,6.15-17.66,6.15-.22,0-.41-.01-.58-.04-1.84-.29-3.08-1.43-4.4-2.65-.59-.54-1.2-1.1-1.86-1.58-1.22-.88-2.62-1.63-3.98-2.36-4.18-2.24-8.12-4.35-6.89-10.05.72-3.32,8.27-13.87,11.23-15.67,2.95-1.8,5.9-1.99,9.03-2.19,2.2-.14,4.47-.29,6.69-1.06,1.92-.67,3.35-1.88,4.74-3.05,1.29-1.09,2.5-2.11,4.08-2.75,1.69-.68,3.9-1.12,6.04-1.54,2.32-.46,4.52-.89,6.12-1.62.68-.31,1.18-.89,1.67-1.46.37-.43.72-.84,1.09-1.05.86-.49,2.09-.77,3.46-.77,1.65,0,3.27.39,4.42,1.03-.9.55-2.02.76-3.19.97-1.89.34-3.84.69-5.04,2.55-2.28,3.52.66,6.34,3.02,8.6.93.89,1.81,1.73,2.36,2.56l.07.1,1.42.8.21-.07c5.12-1.76,7.88-3,8.21-3.67.62-1.28-.32-3.99-1.23-6.6-.47-1.36-.92-2.65-1-3.38l-.07-.59-2.28.67c.32-.88.81-1.63,1.38-1.67h.11c2.25,0,3.64,4.04,4.76,7.29.49,1.43.91,2.66,1.38,3.5,3.47,6.27,6,7.89,11.05,11.11l1.31.84c3.46,2.23,5.46,4.81,7.39,7.3,1.59,2.05,3.08,3.98,5.29,5.67,1.47,1.12,2.75,1.67,3.91,1.67,3.02,0,4.26-3.67,5.36-6.9.55-1.61,1.06-3.14,1.72-4.02.16-.21.3-.32.37-.36,0,.03.03.09.06.19.27.96-1.91,9.66-2.75,10.95-.57.88-1.35,1.5-2.26,1.78-.74.24-1.47.35-2.17.35-4.19,0-7.04-4.15-9.79-8.16-1.25-1.82-2.43-3.54-3.7-4.79-1.66-1.64-4.06-2.99-6.38-4.3-1.5-.85-2.92-1.65-4.12-2.51l-.39-.28-.3.37c-.36.45-.16,1.31,1.84,6.16.35.85.65,1.58.75,1.88,6.22,19.04,6.61,39.53,6.98,59.34.04,1.92.07,3.84.11,5.75.29,13.43-.08,28.5-1.11,44.78-.3,4.81-.99,9.66-1.66,14.35-.85,5.97-1.73,12.14-1.83,18.33-.1,6.05.78,12.09,1.63,17.94.62,4.29,1.27,8.71,1.51,13.05.54,9.91-.15,20.05-.81,29.85-.19,2.79-.38,5.58-.54,8.35-.09,1.59-.12,3.08-.15,4.52-.06,3.41-.12,6.62-1.03,10.54l-.08.35c-.39,1.86-.68,2.6-.86,2.89-.22-.21-.35-.38-.4-.68-.35-1.83-.34-3.9-.32-6.09.02-2.29.03-4.67-.41-6.77-.13-6.72.57-13.69,1.25-20.43.53-5.24,1.07-10.65,1.22-15.94.13-4.91-.52-10.1-1.15-15.13-.35-2.83-.72-5.76-.93-8.55-.9-11.81-.25-21.8.69-33.62l.04-.46c1.23-15.46,2.5-31.44,3.1-47.15.95-24.65-.48-48.09-4.01-65.99-1.54-7.82-4.64-15.43-7.63-22.78l-.44-1.08-5.3,2.73.1.38c.48,1.93,1.02,3.88,1.55,5.76.9,3.23,1.83,6.56,2.47,9.91,3.47,18.1,5.39,37.03,6.02,59.57.08,3,.08,6.07.07,9.04-.01,4.35-.03,8.84.25,13.24.13,2.09.41,4.21.68,6.25.33,2.49.66,5.07.74,7.59.19,6.6-.96,13.22-2.08,19.63-.98,5.6-1.99,11.4-2.11,17.19-.03,1.45.08,2.88.19,4.26.09,1.18.18,2.29.18,3.39.03,15.23-.77,31.58-2.45,50.01-.34,3.71-1.08,7.86-1.79,11.87-1,5.6-2.03,11.39-2.06,16.33,0,.57.1,1.1.21,1.61.11.57.22,1.11.18,1.65l-.05.55h.55c1.03-.03,1.42-.8,1.73-1.42.19-.37.36-.72.65-.94.52-.4,1.05-.6,1.56-.6,2.04,0,3.87,3.15,4.96,5.04l.13.22c-.09.03-.18.05-.27.05-.62,0-1.38-.72-2.11-1.41-.83-.79-1.69-1.61-2.63-1.61-.17,0-.33.03-.49.08-.83.27-1.31,1.57-1.92,3.22-.56,1.52-1.32,3.6-2.22,3.69-.04,0-.08,0-.11,0ZM1827.6,18.58c-.45,0-.73.25-.92.44-.54.49-3.62,7.81-3.65,7.89-4.74,11.69-4.54,17.96-3.69,29.93.77,10.81,1.38,19.34-1.6,30.53-2.56,9.61-7.87,18.14-13,26.38-4.72,7.57-9.6,15.41-12.48,24.21-3.01,9.19-3.75,19-4.46,28.48-.49,6.54-1,13.31-2.25,19.79-.97,5.03-2.93,9.76-4.72,13.72l-.41.91.97-.21c.94-.21,1.81-1.3,2.44-2.11l.26-.33c.79-.96,1.54-2.28,2.28-3.55.74-1.29,1.44-2.5,2.07-3.17.28-.3.76-.51,1.23-.71.1-.04.2-.08.29-.13.69.18,1.72,3.76,2.06,4.96.24.83.43,1.49.59,1.84.02.04.02.07.03.14.05.57.43.69.75.69.11,0,.27-.01.48-.05l.4-.06,1.42-25.25c.33-3.14.55-6.26.75-9.27.52-7.6,1.01-14.78,3.3-22.33,2.7-8.92,7.88-16.18,12.9-23.2,5.13-7.18,10.44-14.61,13.07-23.8,2.72-9.49,1.66-20.71.63-31.56-1.38-14.54-2.8-29.57,4.88-40.54.15-.22.37-.42.59-.62.54-.5,1.21-1.11,1.02-2.21l-.07-.38-5.1-.39h-.07ZM1834.95,12.08c-.53-1.09-1.42-4.34-1.43-5,0-.37.05-.85.17-1.35v.03c.91,1.79,2.36,4.71,1.25,6.33Z"/>
          <path class="cls-1" d="M1877.59,14.52l-.3-.08c-.16-.04-.32-.07-.47-.07-.67,0-1.08.4-1.4.73-.15.15-.3.3-.44.36-1.03.5-2.29.75-3.75.75-4.46,0-10.05-2.36-13.37-4.54-.47-.31-.72-.66-.99-1.02-.38-.52-.8-1.1-1.83-1.51-1.54-.61-3.31-.93-5.27-.93-1.49,0-3.1.18-4.81.53.01-.45.14-.81.4-1.11.58-.67,1.83-1.03,3.62-1.03.59,0,1.23.04,1.9.11,1.14.13,7.33,2.22,8.08,2.74,0,0,.22.14.25.16l-.39,1.53.54.09c1.46.24,3.02.78,4.53,1.29,1.7.58,3.45,1.19,5.14,1.4.97.12,1.91.19,2.72.19,2.46,0,3.84-.59,4.1-1.76.03-.62-.17-1.18-.5-1.53-.56-.57-3.01-1.36-6.68-2.5-1.37-.42-2.56-.79-3.12-1.01-1.87-.74-3.54-1.61-5.15-2.45-2.99-1.56-5.82-3.04-9.05-3.04-2.3,0-4.66.75-7.21,2.29-.51.31-.97.7-1.47,1.12-.62.52-1.25,1.06-1.94,1.39l-.11-.18c3.08-4.76,5.89-6.45,10.64-6.45.75,0,1.54.04,2.41.13,2.62.26,5.81,2,8.91,3.68,1.59.86,3.09,1.68,4.44,2.25,1.47.62,2.82,1.09,4,1.5,4.85,1.68,7.28,2.52,8.04,10.06.09.9.1,3.02-.12,3.93l-1.34-7.03Z"/>
          <path class="cls-1" d="M1800.13,26.93c.02-.11.11-.16.29-.27.16-.1.37-.22.55-.42,4.36-4.8,10.99-9.82,13.65-11.75.16-.12.39-.3.65-.51.5-.39,1.54-1.22,1.82-1.29.13-.03.25-.05.34-.05.08,0,.12.02.12.02.03.11-.17.71-.66,1.22-2.61,2.71-13.48,11.7-16.35,12.9-.17.07-.29.12-.39.15Z"/>
        </g>
      </g>
      <g>
        <path class="cls-1" d="M58.45,4.74c218.71,32.15,440.96,40.69,661.44,24.42,73.26-4.76,147.96-14.96,219.72-24.14-36.25,7.11-72.68,13.37-109.23,18.74C574.53,61.38,312.12,55.14,58.45,4.74h0ZM58.55,4.76c145.03,27.91,292.77,42.33,440.48,42.19,147.67.07,295.53-14.33,440.48-42.46-34.84,6.81-73.31,10.24-109.52,14.82C573.66,47.98,313.56,43.84,58.55,4.76h0Z"/>
        <path class="cls-1" d="M58.4,4.73c.27-.24.37-.08.53-.11.15.02.29.04.44.07,0,0,.86.18.86.18l1.7.41,3.38.88s6.75,1.82,6.75,1.82c274.03,73.85,568.22,77.54,842.47,2.89,0,0,13.46-3.75,13.46-3.75l6.74-1.88c1.42-.37,2.84-.8,4.31-1.05.24.02.15-.15.82.09.28,1.71-.28.8-.29,1.2-9.01,4.25-18.57,7.1-27.98,10.3C653.06,95.31,371.45,95.66,111.41,22.55c-13.44-3.85-26.82-7.92-40.02-12.51-4.11-1.48-8.27-2.87-12.23-4.72-.13-.07-.26-.13-.39-.21-.12-.11-.27-.07-.37-.38h0ZM58.59,4.77c4.06,2.12,8.56,3.47,12.88,5.05,13.21,4.55,26.6,8.58,40.04,12.4,260.15,71.18,541.18,70.43,799.7-7.59,9.32-3.12,18.86-5.95,27.77-10.08.17.23.04-.81.25.62.39.14,0,.04-.05.09-2.63.46-8.23,2.18-10.91,2.87,0,0-13.48,3.71-13.48,3.71-243.12,65.17-501.61,72.63-747.73,19.44-34.12-7.19-68.19-15.62-101.81-24.92,0,0-3.38-.89-3.38-.89,0,0-1.69-.41-1.69-.41,0,0-.85-.18-.85-.18-.14-.02-.28-.05-.42-.07-.11-.04-.35.02-.31-.05h0Z"/>
      </g>
      <g>
        <path class="cls-1" d="M1820.58,4.76c-255.01,39.08-515.11,43.22-771.44,14.54-36.21-4.57-74.72-8.01-109.53-14.81,149.48,29.07,302.04,43.3,454.33,42.48,143.1-.89,286.13-15.11,426.63-42.2h0ZM1820.68,4.74c-253.67,50.4-516.08,56.64-771.94,19.02-36.55-5.38-72.98-11.63-109.23-18.74,71.78,9.18,146.46,19.38,219.72,24.14,220.48,16.28,442.74,7.73,661.44-24.41h0Z"/>
        <path class="cls-1" d="M1820.53,4.77c-1.73.25-4.87,1.14-6.66,1.6-33.64,9.3-67.68,17.73-101.81,24.92-246.13,53.19-504.61,45.73-747.73-19.44,0,0-13.48-3.71-13.48-3.71,0,0-6.73-1.86-6.73-1.86-1.4-.36-2.77-.77-4.18-1.01-.05-.05-.44.05-.05-.09.22-1.43.08-.39.25-.62,8.91,4.13,18.45,6.96,27.77,10.08,258.51,78.02,539.54,78.77,799.7,7.59,13.44-3.82,26.83-7.85,40.04-12.4,4.32-1.58,8.82-2.93,12.88-5.05h0ZM1820.73,4.73c-.1.31-.25.27-.37.38-.13.08-.26.14-.39.21-3.96,1.85-8.12,3.24-12.23,4.72-13.2,4.59-26.59,8.66-40.02,12.51-260.03,73.1-541.65,72.75-800.16-6.78-9.41-3.2-18.96-6.05-27.98-10.3-.02-.4-.58.51-.29-1.2.67-.24.58-.06.82-.09,2.59.49,8.38,2.21,11.04,2.93,0,0,13.46,3.75,13.46,3.75,274.25,74.64,568.44,70.96,842.47-2.89,0,0,6.75-1.82,6.75-1.82,0,0,3.38-.88,3.38-.88l1.7-.41s.86-.18.86-.18c.15-.02.29-.05.44-.07.16.02.26-.13.53.11h0Z"/>
      </g>
    </g>
  </g>
</svg>