<?xml version="1.0" encoding="UTF-8"?>
<svg id="Layer_2" data-name="Layer 2" xmlns="http://www.w3.org/2000/svg" viewBox="0 0 235.49 80.82">
  <defs>
    <style>
      .cls-1 {
        fill: none;
      }

      .cls-2 {
        fill: #fdf6ee;
      }

      .cls-3 {
        fill: #67705d;
      }

      .cls-4 {
        fill: #515b46;
      }
    </style>
  </defs>
  <g id="Layer_1-2" data-name="Layer 1">
    <g>
      <g>
        <path class="cls-4" d="M87.6,32.34c.08-.02.15-.03.21-.04.06,0,.12-.01.16-.01.12,0,.21.03.26.08s.11.16.17.31l3.77,9.94,2.81-8.12c.08-.2.11-.36.11-.48,0-.21-.1-.37-.3-.47s-.54-.18-1.04-.24c-.18-.02-.28-.16-.28-.44,0-.03,0-.06.01-.1,0-.04.01-.08.01-.13l.02-.18c.26.03.63.06,1.12.08.48.02.93.03,1.35.03.44,0,.87,0,1.26-.02.4-.02.75-.05,1.06-.09l.02.18s0,.09.01.14c0,.05.01.08.01.12,0,.29-.1.45-.3.46-.48.05-.82.12-1.05.23-.22.11-.39.31-.49.62l-4.85,13.57c-.08.02-.13.02-.16.02h-.16c-.11,0-.19-.02-.24-.07s-.12-.15-.2-.32l-3.75-9.98-3.66,10.35c-.08.02-.13.02-.17.02h-.15c-.12,0-.21-.02-.26-.07-.05-.05-.11-.15-.17-.32l-5.04-13.32c-.08-.21-.21-.38-.4-.5-.19-.11-.58-.2-1.16-.26-.2-.01-.3-.18-.3-.48v-.2c0-.08.02-.15.05-.2.23.02.49.03.78.05.29.01.59.03.89.03.3,0,.59.02.87.02.28,0,.53.01.75.01.51,0,1.06-.01,1.66-.03.6-.02,1.13-.05,1.61-.08.02.08.03.15.03.23,0,.08.01.14.01.18,0,.28-.1.42-.3.44-.49.05-.84.12-1.04.23-.2.11-.3.25-.3.44,0,.06,0,.12.02.17s.04.12.07.2l3.01,8.3,3.63-10.3Z"/>
        <path class="cls-4" d="M98.41,42.6c0-.75.13-1.45.4-2.08.27-.64.64-1.19,1.12-1.66s1.04-.83,1.7-1.09,1.38-.39,2.16-.39,1.55.13,2.21.39c.66.26,1.23.62,1.7,1.09.48.47.84,1.02,1.09,1.66.25.64.38,1.33.38,2.08s-.13,1.45-.4,2.08c-.27.64-.64,1.18-1.13,1.64s-1.05.82-1.71,1.08c-.66.26-1.38.39-2.16.39s-1.55-.13-2.21-.39c-.66-.26-1.22-.62-1.69-1.08-.47-.46-.83-1.01-1.08-1.64-.25-.64-.38-1.33-.38-2.08ZM101.3,42.14c0,1.41.23,2.54.7,3.38.47.84,1.14,1.26,2.01,1.26.81,0,1.39-.33,1.74-.98.35-.65.52-1.57.52-2.75,0-1.4-.24-2.52-.71-3.38-.48-.86-1.14-1.29-2-1.29-.81,0-1.39.33-1.74,1-.34.67-.52,1.58-.52,2.75Z"/>
        <path class="cls-4" d="M120.23,39.63c.54-.69,1.1-1.24,1.69-1.64s1.19-.61,1.81-.61c1.92,0,2.88,1.04,2.88,3.13v5.61c0,.21.09.38.28.48s.52.21,1.01.3c.17.03.25.13.25.3v.23c0,.08-.02.15-.05.21-.38-.03-.77-.06-1.17-.08-.4-.02-.9-.03-1.49-.03-.51,0-.97.01-1.39.03-.42.02-.84.05-1.25.08-.03-.15-.05-.3-.05-.44,0-.11.03-.18.08-.22s.11-.07.17-.08c.41-.08.69-.17.82-.28.13-.11.2-.28.2-.51v-4.51c0-.9-.09-1.53-.26-1.87-.18-.35-.5-.52-.98-.52-.69,0-1.27.23-1.75.7-.48.47-.71,1.16-.71,2.08v4.12c0,.23.07.4.21.51.14.11.41.2.81.28.17.03.25.13.25.3v.23c0,.08-.02.15-.05.21-.37-.03-.74-.06-1.1-.08-.37-.02-.8-.03-1.29-.03s-.97.01-1.39.03c-.42.02-.84.05-1.25.08-.03-.15-.05-.3-.05-.44,0-.11.03-.18.08-.22s.11-.07.17-.08c.41-.08.69-.17.82-.28.13-.11.2-.28.2-.51v-4.51c0-.9-.09-1.53-.26-1.87-.18-.35-.5-.52-.98-.52-.69,0-1.27.23-1.75.7s-.71,1.16-.71,2.08v4.12c0,.23.07.4.21.51.14.11.41.2.81.28.17.03.25.13.25.3v.23c0,.08-.02.15-.05.21-.4-.03-.81-.06-1.24-.08-.43-.02-.89-.03-1.38-.03-.6,0-1.1.01-1.51.03-.41.02-.8.05-1.18.08-.03-.15-.05-.3-.05-.44,0-.11.03-.18.08-.22s.11-.07.17-.08c.49-.09.83-.19,1.01-.3s.28-.28.28-.51v-6.07c0-.46-.08-.81-.25-1.06-.17-.25-.52-.39-1.06-.44-.2-.05-.3-.17-.3-.37v-.17c0-.07.02-.13.05-.2.09,0,.23,0,.4-.01.18,0,.36-.02.56-.02.2,0,.4-.02.6-.03s.38-.03.55-.05c.38-.05.75-.11,1.1-.18.35-.08.59-.11.71-.11.25,0,.37.11.37.34,0,.17-.02.39-.07.67-.05.28-.07.66-.07,1.15.49-.64,1.03-1.17,1.62-1.56.59-.4,1.19-.6,1.81-.6,1.61,0,2.54.75,2.81,2.25Z"/>
        <path class="cls-4" d="M137.33,45.41c.14-.11.26-.16.37-.16.08,0,.16.04.26.1.1.07.2.2.31.4-.6.71-1.28,1.22-2.06,1.55-.77.33-1.69.5-2.75.5-.6,0-1.18-.1-1.76-.29s-1.09-.49-1.55-.9c-.46-.41-.83-.92-1.12-1.53-.28-.61-.43-1.35-.43-2.21s.16-1.61.49-2.29c.33-.68.75-1.26,1.25-1.74.51-.48,1.06-.84,1.66-1.09s1.17-.38,1.73-.38c1.49,0,2.61.43,3.37,1.29.76.86,1.14,2.03,1.14,3.52,0,.11-.05.16-.16.16l-6.58.28c0,1.2.27,2.11.8,2.75.54.64,1.34.95,2.41.95.47,0,.94-.08,1.4-.23s.86-.38,1.22-.69ZM133.4,38.39c-.59,0-1.07.26-1.43.77-.36.51-.54,1.32-.54,2.43l3.57-.16c.23-.02.34-.12.34-.3,0-.29-.04-.6-.11-.92-.08-.32-.19-.62-.35-.88s-.36-.49-.61-.67c-.24-.18-.53-.26-.87-.26Z"/>
        <path class="cls-4" d="M149.49,46.12c0,.21.09.38.28.5.18.11.52.21,1.01.29.06.02.12.04.17.08.05.04.08.11.08.22,0,.09,0,.17-.01.24,0,.07-.02.13-.03.2-.4-.03-.8-.06-1.2-.08-.4-.02-.9-.03-1.5-.03-.49,0-.95.01-1.38.03-.43.02-.84.05-1.24.08-.03-.08-.05-.22-.05-.44,0-.17.08-.27.25-.3.4-.08.67-.17.81-.28.14-.11.21-.28.21-.51v-4.51c0-.9-.11-1.53-.33-1.87-.22-.35-.58-.52-1.07-.52-.69,0-1.28.23-1.77.7s-.74,1.16-.74,2.08v4.12c0,.23.07.4.21.51.14.11.41.2.81.28.17.03.25.13.25.3,0,.21-.02.36-.05.44-.4-.03-.81-.06-1.24-.08-.43-.02-.89-.03-1.38-.03-.6,0-1.1.01-1.51.03-.41.02-.8.05-1.18.08-.02-.06-.03-.13-.03-.2,0-.07-.01-.15-.01-.24,0-.11.03-.18.08-.22s.11-.07.17-.08c.49-.09.83-.19,1.01-.3s.28-.28.28-.51v-6.07c0-.46-.08-.81-.25-1.06-.17-.25-.52-.39-1.06-.44-.2-.05-.3-.17-.3-.37v-.17c0-.07.02-.13.05-.2.09,0,.23,0,.4-.01.18,0,.36-.02.56-.02.2,0,.4-.02.6-.03s.38-.03.55-.05c.38-.05.75-.11,1.1-.18.35-.08.59-.11.71-.11.25,0,.37.11.37.34,0,.17-.02.39-.07.67-.05.28-.07.66-.07,1.15.49-.64,1.04-1.17,1.63-1.56.6-.4,1.22-.6,1.86-.6.94,0,1.67.26,2.21.78.54.52.8,1.3.8,2.35v5.61Z"/>
        <path class="cls-4" d="M157.95,40.46c-.21-.02-.34-.1-.37-.25-.11-.63-.35-1.09-.74-1.38-.38-.29-.87-.44-1.45-.44-.52,0-.92.13-1.2.39s-.41.57-.41.92c0,.17.02.32.07.46.05.14.14.27.29.39.15.12.35.24.61.36s.61.24,1.06.38c.52.15.98.32,1.38.5.4.18.74.39,1.01.63.28.25.49.54.63.89s.22.76.22,1.23c0,.45-.07.87-.22,1.27-.15.4-.38.75-.7,1.05-.32.3-.73.53-1.22.7-.49.17-1.08.25-1.77.25-.49,0-1.05-.05-1.69-.16-.64-.11-1.22-.3-1.74-.58-.03-.4-.06-.82-.08-1.28s-.03-.9-.03-1.35h.3c.17,0,.31.03.44.08.12.05.19.14.21.26.06.64.31,1.14.76,1.48.44.35,1.06.52,1.84.52.54,0,.97-.12,1.31-.37.34-.25.51-.57.51-.97,0-.37-.15-.68-.45-.94s-.86-.51-1.69-.76c-1.12-.32-1.91-.75-2.36-1.28-.45-.53-.68-1.16-.68-1.9,0-.97.33-1.74.98-2.32.65-.58,1.5-.87,2.54-.87.6,0,1.18.07,1.74.22.56.15,1.01.3,1.35.47.02.12.03.29.05.49.02.21.03.43.05.67.02.24.03.47.03.69,0,.22.01.41.01.56l-.57-.02Z"/>
      </g>
      <g>
        <g>
          <path class="cls-3" d="M.32,73.62c-.32.03-.14.08.76.1.21-.03.43-.05.65-.07-.47-.05-.94-.02-1.4-.04Z"/>
          <path class="cls-3" d="M6.18,74.98c.99.35,2.05,1.01,1.53.53-.49-.22-.78-.38-1.09-.5-.31-.14-.64-.26-1.19-.39-.85-.29-1.49-.48-1.34-.48-.31-.06-1.37-.31-1.86-.29,1.15.23,2.6.52,4.04,1.09.29.16-.01.05-.09.04Z"/>
          <path class="cls-3" d="M90.56,80.48h-.56c.15,0,.35,0,.56,0Z"/>
          <path class="cls-3" d="M144.65,80.54c-.41,0-.58.01-.6.02.38,0,.7-.01.6-.02Z"/>
          <path class="cls-3" d="M153.88,80.66c-.2,0-.36,0-.54,0,.21.01.42.02.54,0Z"/>
          <path class="cls-3" d="M90.56,80.48l1.44.03c.1-.04-.74-.03-1.44-.03Z"/>
          <path class="cls-3" d="M15.31,80.06c-.3.01-.55.02-.78.03.25,0,.49,0,.74-.01.02,0,.03,0,.05-.02Z"/>
          <path class="cls-3" d="M66.72,80.57h-.44c-.13.02-.25.03-.36.04l.8-.04Z"/>
          <path class="cls-3" d="M48.42,80.59c.41,0,.56-.09.72-.13-.23.04-.54.06-.9.06,0,.02.05.04.19.06Z"/>
          <path class="cls-3" d="M19.41,80.43h-.51c.13,0,.36,0,.51,0Z"/>
          <path class="cls-3" d="M79.82,80.59s.1.03.17.03c0-.01-.07-.02-.17-.03Z"/>
          <path class="cls-3" d="M.75,52.63s-.01,0-.02,0c0,.11.02.14.02,0Z"/>
          <path class="cls-3" d="M.3,73.84v-.29s-.04-.06-.06-.06l.06.36Z"/>
          <path class="cls-3" d="M170.78,80.78s-.04,0-.07,0c-.44.01-.19,0,.07,0Z"/>
          <path class="cls-3" d="M217.34.15c1.76.08-2.86.1-.21.2-.25-.04,2.4-.14.21-.2Z"/>
          <path class="cls-3" d="M15.78,80.07c.25,0,.5,0,.75,0-.34,0-.57,0-.75,0Z"/>
          <path class="cls-3" d="M217.12.34h0s.27,0,.27,0c-.11,0-.18,0-.27,0Z"/>
          <path class="cls-3" d="M209.72,80.72c-.08-.02-.23-.03-.4-.04.01,0,.1.02.4.04Z"/>
          <path class="cls-3" d="M180.72,80.59h.72c-.29,0-.52,0-.72,0Z"/>
          <path class="cls-3" d="M224.98,80.59c.2.06.12-.16.15-.25.01-.11.02-.21.03-.32.02-.24.02-.32.09-.59-.01.05-.03.09-.05.15-.02.1-.03.18-.04.34,0,.11-.02.22-.03.35,0,.07-.01.14-.02.21,0,.03,0,.08-.02.11h-.12Z"/>
          <path class="cls-3" d="M235.43,71.6c0,.08-.01.19-.02.29,0,.16,0,.34,0,.5v-.79Z"/>
          <path class="cls-3" d="M2.4,7.27c-.35,0-.57,0-.74-.01.25.05-2.1.24.74.01Z"/>
          <path class="cls-3" d="M15.32,80.11c.09-.02.23-.03.47-.04-.18,0-.35,0-.52,0-.05.01-.06.03.06.03Z"/>
          <path class="cls-3" d="M224.46,79.72c.13-.92.53-1.76,1.08-2.47-.46.58-.96,1.48-1.08,2.47Z"/>
          <path class="cls-3" d="M111.77.9h-.57c.22.01.42.01.57,0Z"/>
          <path class="cls-3" d="M232.18,73.65c.46-.04.94-.11,1.44-.13.1-.02.22-.03.29-.05-.58.03-1.16.09-1.73.18Z"/>
          <path class="cls-3" d="M1.65,7.26h0s0,0,0,0Z"/>
          <path class="cls-3" d="M.84,22.12c0-2.37-.12-1.11-.19-1.62-.03-2.83.09-1.31.15-2.28-.03-1.77-.14-3.13-.14-4.44.02-.1.03-.35.05-.05-.05-.94-.05-2.32-.05-3.75,0-.71-.01-1.44-.01-2.12,0-.14,0-.27,0-.4,0-.05-.04-.17.05-.15.24-.02.46-.04.67-.06.17,0,.25,0,.29,0-.36-.02-.42-.09-.35-.14,1.07-.08,1.96-.3,2.37-.32-.64.14-.7.15-1,.23.37-.07.74-.13,1.1-.24.51-.06.14.04-.37.16-.51.09-1.14.2-1.13.22,2.21-.27,4.63-1.28,5.99-2.31.18-.06-.62.54-1.3.89-.68.33-1.15.56-.09.11-.79.39-1.63.66-2.48.89.99-.21.61-.1.2.03-.41.11-.84.22.09.07,1.68-.49,2.56-1,3.38-1.54.41-.28.8-.59,1.22-1.02.42-.42.88-.97,1.29-1.79.26-.79-.18.21.07-.56.07-.31.16-.6.18-.87,0-.08,0-.15.01-.23,0-.03,0-.07.01-.08h.09c.38,0,.7.01.98.01.64.02,1.07.05,1.46.08.79.06,1.42.12,3.18.05.92-.07,1.27-.21,3.79-.14l-.86.12c3.28.01,1.87-.18,5.31-.1-.61.05-2.58.04-2.08.06,2.23.1,1.58-.07,3.29-.07l.35.11c3.5-.04,7.35-.08,11.22-.12-.21.03-.88.07.03.1,4.88-.06,10.43.01,15.14.08l1.8-.1c.42,0,.78.04.32.06,1.84.04.1-.06.98-.1,1.04,0,1.38.05.72.08,3.24-.08,9.23-.17,12.64-.07l-.67.03c2.66.04,3-.2,5.46-.11l-.47.02c5.77.04,12.14-.05,16.55.1.84-.14,5.71.06,6.08-.13,3.29.09,2.35.13,6.99.19,1.24,0,1.85-.12,3.38-.14l.04.1,2.08-.1,1.11.12,1.44-.03c-.57,0-1.22-.04-1.13-.07,1.12-.02,2.49,0,3.58.02.55.02,1.02.04,1.37.05.35.02.56.03.57.05l5.31-.08c-.12.04-1.01.05-1.71.08,2.83-.1.51.11,3.11.01-.35-.02.19-.06.25-.08,1.29.06,4.24.06,6.42.04l-.42.07c3.94,0,8.3-.02,12.72-.03-1.59-.03-1.22-.15.07-.16l.52.11c.84-.07-1.35-.04.36-.12,1.65.01,1.11.12.16.15l2.01-.04c.12.03-.35.05-.48.09.82-.07,3.46.11,4.65,0l.11.03c4.42-.02,6.42-.03,10.02-.04.07-.09,1.48-.07,2.55-.14,2.64.03,5.58.1,8.77.09,2.24-.05.65-.08,1.66-.13.16.08,3.35.08,1.7.13,3.83-.01,4.89-.02,9.72-.08-.52-.03-1.12-.05-.81-.08.88-.01,2,.03,1.87.07h-.23c5.43-.12,12.53.25,16.86.08h-.24s4.48-.08,4.48-.08c2.06.01-1.24.06.29.11,4.84-.14,7.64.02,11.63-.07,1.54.12,4.28.12,7.15.1h.32s.04,0,.04.05c0-.03.01.28.07.45.05.19.09.39.15.57.25.75.7,1.39,1.17,1.94.99,1.08,2.14,1.78,3.11,2.26l-.2-.16c1.03.41,1.23.55,2.01.81-.1-.07-1.13-.41-.47-.23,1.12.36,2.28.58,3.46.67.29.04.6.04.88.05h.13s0,.08.02.11v1.65c-.02,2.34-.03,4.69-.04,7.06-.04,4.73-.08,9.49-.11,14.16-.02,3.42.3,1.94.16,6.25l-.11-1.22c.13,6.89,0,14.1.1,20.85-.02-.4-.06-.41-.06-1.07-.04.71-.04,2.03-.02,3.17.01.57.03,1.1.04,1.49.01.39.03.63.05.64,0,1.05-.06.24-.09.89-.05,1.43.1,3.59.02,4.35-.01.13-.03-.4-.03-.66.04.93,0,4.34.08,3.45-.02,1.27-.01,2.48,0,3.63,0,.46,0,.91,0,1.35.05.03-.69,0-1.17.06-.67.09-1.76.27-2.73.53-.96.26-1.78.62-1.94.78.07-.09-1.04.29-2.13,1.18-.56.43-1.07,1.01-1.47,1.58-.36.6-.61,1.2-.68,1.63.05-.29-.06.07-.14.43l-.02.14v.04s-.02.04-.02.04c-.01.01-.02,0-.03-.03,0,.04-.02.04-.05.04-.2,0-.39,0-.57,0-.41,0-.78.01-1.08.02-.61.02-.95.04-.79.08-3.37-.18-6.77.14-8.67-.08-5.43.06-10.46.11-15.34.17.18-.15,5.4-.01,5.19-.17-4.63.06-7.31.19-11.9.15-1.19-.02.68-.06,1.08-.09-4.63.06-8.95-.01-13.07.07.01-.01.46-.03.88-.04-.81,0-1.89-.02-1.8.05l.79-.02c1.3.1-3.22.2-3.37.25,1.38-.19-4.07-.05-1.88-.29-.53.01-1.2.04-1.08.09-.79-.01-1.04-.04-.24-.09-2.91.04-1.87.11-4.51.11,0-.03.54-.04.81-.08-1.33.06-2.67.13-4.9.1.13-.02-.12-.04.54-.04-3.82,0-6.52.17-10.71.11,1.24-.14-1.43-.05-1.65-.17l-2.26.04.91.06c-1.98,0-3.72.09-5.42.05l1.47-.05-3.7.02,2.1.05c-2,.06.21.15-2.42.12.53-.01-1.98,0-3.01-.07h0c-.98.04-1.98.08-3.44.05-.38-.04.31-.13.06-.16-.96.1-4.63.03-5.85.14.41-.03.43-.09.29-.1l-.81.08c-.92-.03-1.05-.04-.9-.09-2.75-.01.87.15-2.39.09.26,0,.13-.02.67-.03-3.28-.03-6.34.05-9.36.01-.89-.12,2.63-.03,1.62-.13-4.35.02-9,.15-13.21.12h.78c-.58.19-3.13-.07-5.26,0,.52-.01.68-.1.54-.08-2.88-.03-5.89.04-10.26.1l.54-.04c-1.7-.04-4.47-.02-6.31-.04-.54.04-1.59.04-.96.1-5.66-.25-10.79.14-15.81-.07.6,0,1.43-.04.95-.04l-4.27.04c.34.07.56.05,1.46.1-.54.04-1.75.08-2.81.08,1.92-.05-.02-.12-.85-.16.14.02-.15.05-.07.07-2.23-.13-.37.15-3.42.06l.16-.04c-1.14.02-2.19.07-3.42.06-.51-.09,1.21-.04,1.29-.11-1.73,0-3.41.16-4.97.08.74-.01,1.79-.03,2.52-.05-1.7-.1-1.9-.08-3.17-.09h.12s-2.93-.04-2.93-.04l.75.03c-2.16.23-4.4.04-7.32.19,2.83-.14.47-.08.69-.18-.74-.03-1.87-.06-1.55-.09-1.38.08-2.3-.06-4.24.05-.09-.03-1.47,0-1.16-.08-1.79.02.42.05.27.09-2.76.11-6.49-.13-10.46.02-3.42.06-4.06.17-7.23.22-1.07-.05.88-.12.88-.12-1.73-.05-3.03-.04-4.66,0,.33-.03-.01-.05-.51-.09-1.31,0-.87.12-2.6.07.3-.04.68-.09,1.31-.13-.77.02-1.54.04-2.31.06-.38.01-.76.02-1.15.03h-.21s-.08.02-.1,0v-.1c-.03-.13-.03-.3-.08-.51-.03-.24.09.06.11.35,0,.05.02.11.03.17,0,.08.11.01.15.03.16,0,.32-.02.43-.03-.16,0-.34,0-.52,0-.07,0-.03-.11-.05-.18,0-.05-.01-.2-.04-.34-.12-.54-.31-1.09-.59-1.53-.54-.9-1.22-1.48-1.47-1.61.3.25.55.55.79.85-.45-.48-.15-.32.16.06,1.03,1.24.94,2.08.96,2.14-.08-.38-.22-.74-.38-1.09.08.29.22.7.32,1.21.03.13.02.27.04.4l.02.21s0,.07.01.1h.11c.29,0,.6-.01.92-.02,1.28-.03,2.7-.08,3.85-.07l-.95.13,2.35-.11c.5.04.84.11-.29.13,1.64.07,1.45-.05,2.86.03.16.01.09.02-.06.02l1.6-.04c-.31.03.27.1-.72.08,2.88.08,4.64-.1,5.72,0h-.24c3.99-.04.39-.09,3.38-.21l2.01.24.39-.1c.41,0,1.23.01,1.08.05,1.53-.07-.26-.04.63-.11,1.98.09,5.46-.04,5.91.12.71-.08-1.89-.06.22-.11.6.17,2.45-.03,4.25.05-.56.09-2.27.04-.46.12,1.09-.15,3.52.03,5.05,0,.07-.12,3.32-.05,5.88-.09-.16.04,4.82.06,7.2.11l-.07.02c.46-.12,2.92-.1,4.71-.12-.07.07-.39.1-1.36.13h1.68c.4-.04.92-.06,2.01-.07l-.42.09c2.24,0,4.51-.1,7.39-.05.16-.08-2.29-.23.76-.29.11.04.23.12-.57.14.26,0,.93-.04,1.46-.02l-1.22.08c1.31.03.69-.06,1.74-.06-.02.06.78.05.63.1-.27,0-.92-.03-1.32,0,1.18.01,2.61.05,3.09.1-.1-.04,0-.09.87-.09,2.24,0,.77.08,2.07.11.54-.04,1.97,0,2.01-.09.66,0,.78.05,1.03.07,1.16-.04,5.41-.01,4.11-.11h-.3c.06,0,.12,0,.19-.01h0,0c3.8-.1,7.89.05,11.66.01v.03c2.24-.04,5-.02,6.61-.09.67,0,1.57.06,1.29.1,1.72-.02,1.91-.06,4.4,0-1.73.06.6.05-1.77.04,2.23.03,2.74.08,5.14,0-.82.08,1.68.1,2.75.08l-1.57-.06c1.19,0,2.24,0,3.3,0l-.57.11c4.57.13,8.25-.22,11.73,0,1.21-.08-2.48-.05-1.4-.14,2.1.01,4.3.17,4.95.17,2.88.06,2.69-.16,5.7-.12-.39-.04-.75-.14,1.5-.18,2.11.01,2.59.16,1.26.19-.5,0-.75,0-.73-.02-.68.01-1.57.03-.74.07l.27-.04c1.04.04,3.94.04,3.26.1,1.59-.04.68-.06-.5-.08,2.7.06,4.22,0,7,.04-.44-.02-.85-.07-.41-.07,4.08.05,1.79-.07,4.56-.09,1.57.06-.56.14,2.22.09,1.7.04.36.1-.32.13,2.53-.07,4.73.05,6.18.06l-1.33.03c.8,0,1.45-.01,2.12-.02l-.76-.08c.78.01,1.45.01,1.43.05.81-.05-.62-.13.98-.2,1.04.04,3.18-.04,3.54.06-3.29-.03.36.1-2.42.12.54-.01,1.19-.01,1.98,0,.12.01-.11.02-.33.03,3.14.09,1.44-.12,4.7-.11-.41.06.76.11,1.29.1-1.31,0-.63-.1.58-.14,2.09.04,2.27-.03,3.36-.03l-1.25-.02c.42-.06,1.47-.05,2.92-.07.12.04-1.32.03-.8.05,1.62-.1,3.65.1,5.91.04,1.04.04.1.11,1.02.13,2.53-.07,2.74.08,5.39.02-.77-.08-.9-.06.97-.13l-4.37.05,2.8-.11c-1.32.01-2.78.03-3.57.04,1.34-.06,1.2-.04.57-.11,1.8.12,3.57-.07,5.66.01l-.06.19c3.13.09,5.57-.1,9.64-.05l-1.31-.03c.55-.08,2.51-.01,3.83-.04-.12.06.7.09,1.26.13-.07-.05,2.98,0,3.35-.12l1.82.08c3.29.03,3.75-.18,6.91-.16-.95.07.48.11-1.63.16,1.05,0,2,.01,2.02-.03.31.02,1.04,0,1.81-.02.44,0,.9-.01,1.31-.02.06,0,.15.02.18-.02l.02-.19c.01-.12.02-.24.03-.35.02-.24.03-.31.07-.44.09-.4-.03-.6.56-1.59.07-.1.02.02.02.02-.03-.02.24-.38.42-.65.21-.25.34-.41-.04-.06,1.11-1.17,3.09-2.31,5.23-2.83,1.06-.28,2.14-.41,3.13-.44.15,0,.3,0,.44-.01h.24s.12,0,.12,0c.03-.01,0-.07.01-.11,0-.29,0-.56.01-.83.02-.43.03-.83.05-1.19-.02-2.3-.03-5.07-.05-7.16.02.13.03,0,.03.4.06-2.88-.18-1.77-.12-5.05.1-1.68.06,1.74.09.7.21-.45-.03-3.96.09-6.16v.53c.08-1.69-.07-4.12-.05-6.87,0,0,.02.13.03.02-.11-1.88-.14-5.45-.17-8.1.08.82.04,1.2.13.7-.01-1.19-.13.35-.16-2.02.05-.77.08-2.48.17-2.71v2.24c.12-1.15,0-2.9.02-4.08l.05.15c-.02-3.43-.14-3.48-.13-7.16l-.04.38c-.13-2.01.07-1.69-.02-3.7l.13-.61c-.03-1.33-.1-4.66-.15-7.04.09,1.35.14,4.14.2,5.87,0-1.32,0-4.48-.07-5.16.01.53.04,1.2.02,1.72-.1-1.62-.15-3.74-.15-6.37.12.23.14-1.48.15-3.48,0-.53,0-1.07,0-1.61v-.29s0-.14,0-.14c0-.04.03-.12-.04-.1l-.56-.02c-.35-.02-.52-.02-.77-.04-.93-.09-1.71-.24-2.15-.4-2.19-.43-4.41-1.42-5.78-3.25-.34-.45-.59-.97-.74-1.51l-.1-.41-.05-.62c-.03-.11.02-.3-.07-.35h-.4s-.63,0-.63,0c-1.26,0-2.56,0-3.91-.01,1.92.19-1.58,0-1.25.2-1.26.01-1.74,0-1.85,0l-3.82-.12c-.91-.06,1.2-.04,1.08-.09-2.76-.02-1.16-.08-2.98-.14.37.07-.96.1-2.53.07l2.21.09c-3.86.11-3.33-.17-7.22-.06l1.23-.06c-1.99.04-7.36,0-9.31.16-.35-.02-.82-.08.06-.09-4.77-.02-10.61.17-14.31.07l.36-.05c-.89.01-1.55.09-2.66.04.06-.02.36-.05-.05-.05-.47.02-2.36.08-3.54.06l1.01-.05c-4.65-.06-7.14.13-11.03.17.01-.14-3.65-.19-5.47-.21l.06-.02c-5.41-.02-9.2.12-14.21.17-3.11-.15-10.54-.06-15.54-.15.76.03-.12.11-1.01.13-1.17-.03-3.24.1-3.06-.03h.42c-.88-.13-3.3-.09-5.18-.1l-.31.17c-4.93-.25-12.91.09-15.6-.13-1.19.03-2.66.06-3.84.08l.06-.09c-3.29-.02-4.94-.03-9.01-.01l.83-.07c-2.3,0-2.9.26-5.02.27l-.64-.14c-4.01,0-8.06-.12-12.02,0,.06-.02.18-.06.83-.07-1.89,0-7.3-.09-6.61.1-.05-.12-4.13-.01-6.3.04l.34-.09c-1.83.12-1.88.15-4.44.18-.6-.01-.53-.07.27-.05-2.01-.05-1.57.09-4.01.04l.91-.06c-2.07,0-1.91.02-3.05.09-1.3.04-3.93-.02-4.24-.1-.28.05-1.41.12-2.64.09-.16-.03.28-.05.5-.06-3.47-.06-5.15.1-7.54.02-.05-.03-.2-.04-.4-.05,2.74,0,4.55.01,4.76.01,0-.08-2.22-.1-.45-.21-1.78.06-4.84.2-7,.16-.1,0-.21-.02-.29-.03h.22c-.5-.02-.95,0-1.37,0-.69,0-1.13-.02-1.79-.03-.26-.07-2.55-.04-3.66-.04.09.09-1.36.08,0,.15-.18,0,.21-.01.95-.01.17,0,.36,0,.47,0-.02,0-.05,0-.08,0,.73,0,1.68,0,2.76,0-.88.05-1.79.09-3.02.03-.57.05-1.2.11-1.55.15-1.52-.13-4.44-.2-4.85-.27-3.39.05-7.97.03-10.1.21-.96.02-1.11-.05-1.47-.08.56-.02,1.22-.01,1.52-.04-.96.01-2.39.03-3.63.04-.22,0-.43,0-.64,0-.15-.05-.08.15-.11.23,0,.1-.01.2-.02.3,0,.37-.07.53-.11.76-.09.42-.23.7-.23.82-.3.51-.43.67-.47.69-.03.02.05-.09.1-.19.06-.22.24-.23-.83.97l.27-.34c-1.1,1.13-2.41,1.82-3.7,2.32-1.29.49-2.61.79-3.96.91-.17.02-.34.02-.51.03l-.68.03c-.17-.05-.1.14-.11.25v.36s.02.55.02.55c0,.71.02,1.44.03,2.19,0,1.51,0,3.13-.07,4.95.02-.5.02-.76.04-.86-.11,8.29.1,17.08-.07,25.26-.03,2.32.04,2.58.1,4l-.1.5.11,2.43c.08,3.44-.24,5.96-.08,10.31l.07-.56c-.01,1.56.04,4.95-.04,4.69.01.16.07.51.03,1.12l-.05.05.09,3.84c-.04,2.98-.2-.47-.21,3.88.02,1.62.15,4.6.18,3.99,0-.65.03-1.67.08-1.71l.03,1.48c.15.27.31,1.4.41-2.22l-.09-2.53.07-.81v2.13c.07-1.21.01-1.97-.03-2.83.04-.2.07-.56.08-1.06l-.14-2.48c.06-.3.12,1.11.15-.55-.07-1.16-.13,1.11-.18-.81.07-1.21.12-.86.07-2.28.04-.2.06.1.08.66-.05-1.26-.02-3.34-.1-4,.08-1.26-.02-4.26.12-4.14-.03-.4-.11-2.22-.12-3.39.17,2.12.01-4.34.19-3.78-.15-1.57-.07-5.67-.15-8.45.01.16.04.46.03.71.01-1.56.06-2.02.09-3.02-.13-.2-.16-2.64-.23-3.95.12-1.92.15,1.16.27.56-.1.1-.1-3.33-.19-2.68.08-1.47.04-1.26.14-2.02-.16-.26-.03-1.37-.12-2.58.08-2.12.15-.55.1-2.88.05-1.11.1.96.1.96ZM37.6.77h0c-.48,0-.88,0-1.14,0,.24,0,.57,0,1.14,0ZM42.26.77c-.57,0-1.27,0-2.02,0-.16-.03.01-.06.48-.06-.25.02.84.04,1.54.07ZM32.4.13c.74-.01.98,0,1.09.02-.35,0-.75,0-1.29.01-.02,0-.06,0-.09.01.07-.02.15-.03.29-.05Z"/>
          <path class="cls-3" d="M31.08.25c-.11,0-.17,0-.3,0,.15,0,.29.01.44.02.09,0,.18-.02.26-.03-.13,0-.27,0-.4,0Z"/>
          <path class="cls-3" d="M89.9,80.47h.1c-.08,0-.15,0-.21-.01.06,0,.07,0,.11.01Z"/>
          <polygon class="cls-3" points="106.58 .94 106.58 .92 106.17 .94 106.58 .94"/>
          <path class="cls-3" d="M64.25,80.16s-.15-.02-.34-.02c.01,0,.16.01.34.02Z"/>
          <path class="cls-3" d="M53.16,80.14l-1.57-.03c.68.01,1.17.02,1.57.03Z"/>
          <path class="cls-3" d="M44.64,80.09c-.11.02-.14.03-.17.04h.02s.15-.04.15-.04Z"/>
          <path class="cls-3" d="M180.13,79.98c.11,0,.23,0,.33,0,.77-.02.25-.01-.33,0Z"/>
          <path class="cls-3" d="M139.81,80.2c.43-.01.85-.03,1.3-.04-.72,0-1.28,0-1.3.04Z"/>
          <polygon class="cls-3" points="224.45 79.84 224.45 79.84 224.46 79.72 224.45 79.84"/>
          <path class="cls-3" d="M142.98,80.16c-.72-.02-1.32-.01-1.87,0,.59,0,1.28.02,1.87,0Z"/>
          <path class="cls-3" d="M9.91,77.47l-.26-.34s-.02,0-.04-.03l.3.38Z"/>
          <path class="cls-3" d="M9.61,77.09c-.11-.12-.22-.23-.33-.34.15.15.28.28.33.34Z"/>
          <path class="cls-3" d="M8.52,76.11c.26.21.52.4.75.65-.23-.26-.56-.52-.75-.65Z"/>
          <path class="cls-3" d="M18.99,80.09l.13-.03c-.07,0-.12.02-.13.03Z"/>
          <path class="cls-3" d="M22.42,80.08c-.82,0-2.05-.07-3.19-.05l-.11.03c.54-.05,2.52.08,3.3.02Z"/>
          <path class="cls-3" d="M36.73,80.49l-2.87-.03c.5.04,1.16.08-.14.09,3.62.1-.75-.08,3.02-.06Z"/>
          <path class="cls-3" d="M45.63,80.54c-1.54.02.02.05-.06.07.98-.03,1.22-.04.06-.07Z"/>
          <path class="cls-3" d="M110,80.54l-.16.08c1.19-.01.01-.03.16-.08Z"/>
          <polygon class="cls-3" points="122.3 80.11 121.15 80.06 120.6 80.14 122.3 80.11"/>
          <polygon class="cls-3" points="129.57 80.7 129.05 80.72 131.04 80.69 129.57 80.7"/>
          <path class="cls-3" d="M234.63,74.2l-.36-.09c-.79.09-.94.19.36.09Z"/>
          <path class="cls-3" d="M235.4,27.72c.05-.51.08-1.82.03-2.63,0,1.05-.05,2.1-.03,2.63Z"/>
          <polygon class="cls-3" points="118.96 .12 119.9 .09 118.13 .12 118.96 .12"/>
        </g>
        <g>
          <path class="cls-2" d="M222.88,3.29c.54,3.17,4.91,5.8,10.14,6.12.03.01.1,62.09,0,62.07-5.22.32-9.56,2.95-10.1,6.1,0,0,0,.03,0,.03h-.05s-210.34.02-210.3-.03c-.28-1.55-1.47-3.02-3.29-4.12-1.82-1.1-4.26-1.82-6.82-1.99-.11.02-.02-62.03-.06-62.05,0,0,0-.03,0-.03h.05c2.56-.17,5-.89,6.81-1.99,1.82-1.1,3-2.57,3.28-4.11-.07-.11,210.28.04,210.33,0h0ZM222.87,3.29s-210.5.08-210.2,0c-.28,1.56-1.48,3.05-3.32,4.16-1.83,1.11-4.3,1.83-6.88,2,0,0,.05-.04.05-.04,0-.01.02,62.13-.06,62,2.58.17,5.04.89,6.87,2,1.84,1.11,3.03,2.59,3.31,4.15-.2-.06,210.26-.01,210.23-.03,0,0-.06.03-.06.03.15-.78.51-1.54,1.07-2.25,1.67-2.13,5.24-3.66,9.12-3.91-.08.2-.03-62.08,0-61.99-5.25-.33-9.62-2.97-10.15-6.14h0Z"/>
          <g>
            <path class="cls-1" d="M222.88,3.29c.54,3.17,4.91,5.8,10.14,6.12.03.01.1,62.09,0,62.07-5.22.32-9.56,2.95-10.1,6.1,0,0,0,.03,0,.03h-.05s-210.34.02-210.3-.03c-.28-1.55-1.47-3.02-3.29-4.12-1.82-1.1-4.26-1.82-6.82-1.99-.11.02-.02-62.03-.06-62.05,0,0,0-.03,0-.03h.05c2.56-.17,5-.89,6.81-1.99,1.82-1.1,3-2.57,3.28-4.11-.07-.11,210.28.04,210.33,0h0ZM222.87,3.29s-210.5.08-210.2,0c-.28,1.56-1.48,3.05-3.32,4.16-1.83,1.11-4.3,1.83-6.88,2,0,0,.05-.04.05-.04,0-.01.02,62.13-.06,62,2.58.17,5.04.89,6.87,2,1.84,1.11,3.03,2.59,3.31,4.15-.2-.06,210.26-.01,210.23-.03,0,0-.06.03-.06.03.15-.78.51-1.54,1.07-2.25,1.67-2.13,5.24-3.66,9.12-3.91-.08.2-.03-62.08,0-61.99-5.25-.33-9.62-2.97-10.15-6.14h0Z"/>
            <g>
              <path class="cls-3" d="M223.08,3.26c-.07-.31-.14-.1.11.69.11.17.2.35.33.5-.2-.37-.34-.78-.44-1.19Z"/>
              <path class="cls-3" d="M226.5,7.59c.91.47,2.03.77,1.46.45-.94-.31-1.15-.44-2.11-.92-.73-.46-1.15-.95-1.02-.88-.27-.16-.9-.96-1.19-1.31.53.97,1.62,1.98,2.95,2.62.27.17-.02.05-.09.03Z"/>
              <path class="cls-3" d="M220.05,77.4h.54c-.15,0-.34,0-.54,0Z"/>
              <path class="cls-3" d="M167.75,77.34c.4,0,.56-.01.58-.02-.37,0-.67.01-.58.02Z"/>
              <path class="cls-3" d="M158.82,77.23c.19,0,.35,0,.53,0-.2,0-.4-.01-.53,0Z"/>
              <path class="cls-3" d="M220.05,77.4l-1.4-.03c-.1.03.72.03,1.4.03Z"/>
              <path class="cls-3" d="M233.27,14.23c-.01-.29-.02-.53-.03-.76,0,.24,0,.47,0,.71,0,.01,0,.03.02.05Z"/>
              <path class="cls-3" d="M232.75,63.95v-.42c-.02-.12-.03-.24-.04-.35l.04.78Z"/>
              <path class="cls-3" d="M232.73,46.26c0,.4.08.54.12.69-.04-.23-.05-.52-.06-.87-.02,0-.04.05-.06.18Z"/>
              <path class="cls-3" d="M232.91,18.2v-.5c0,.13,0,.35,0,.5Z"/>
              <path class="cls-3" d="M227.87,72.3s-.1.01-.16.03c0,.01.07,0,.16-.03Z"/>
              <path class="cls-3" d="M202.36,2.88s0,.01,0,.02c.1,0,.13-.02,0-.02Z"/>
              <path class="cls-3" d="M222.87,3.29c-.09.05-.19.02-.28.03-.03.02-.06.03-.06.05.12-.03.23-.01.35-.08Z"/>
              <path class="cls-3" d="M142.47,77.12s.04,0,.07,0c.43-.01.19,0-.07,0Z"/>
              <path class="cls-3" d="M2.88,63.89c-.08,1.7-.1-2.77-.19-.21.04-.24.13,2.33.19.21Z"/>
              <path class="cls-3" d="M233.26,14.69c0,.24,0,.48,0,.73,0-.33,0-.55,0-.73Z"/>
              <path class="cls-3" d="M2.69,63.69h0v.26c0-.11,0-.17,0-.26Z"/>
              <path class="cls-3" d="M104.82,77.17c.08.02.23.03.38.04-.01,0-.1-.02-.38-.04Z"/>
              <path class="cls-3" d="M132.87,77.29h-.69c.28,0,.5,0,.69,0Z"/>
              <path class="cls-3" d="M90.25,77.29c-.38,0-.51-.02-1.02,0,.05,0,.1,0,.16.01.19-.01.43-.02.86,0Z"/>
              <path class="cls-3" d="M75.09,77.29c.08,0,.19.01.28.02.15,0,.33,0,.48,0h-.76Z"/>
              <path class="cls-3" d="M156.28,2.94c.33.02.54.05.7.08-.23-.06,1.99-.09-.7-.08Z"/>
              <path class="cls-3" d="M233.22,14.24c.02.09.03.22.04.45,0-.17,0-.34,0-.5-.01-.04-.03-.05-.03.05Z"/>
              <path class="cls-3" d="M89.63,77.99h-2.41c.67,0,1.55,0,2.41,0Z"/>
              <path class="cls-3" d="M47.52,2.97h.55c-.21-.01-.41-.01-.55,0Z"/>
              <path class="cls-3" d="M80.08,77.99c-.43-.03-.89-.05-1.36-.06-.1,0-.21.01-.28.02l1.64.04Z"/>
              <path class="cls-3" d="M156.99,3.02h0s0,0,0,0Z"/>
              <path class="cls-3" d="M172.86,2.8c-2.3,0-1.08.11-1.56.18-2.74.03-1.27-.08-2.2-.14-1.71.03-3.02.14-4.3.13-.09-.02-.34-.03-.05-.05-1.81.09-5.37,0-7.48.12-.16-.01-.24-.02-.28-.03.34.06.39.12.32.16-1.03,0-1.91.07-2.3,0,.63,0,.68-.03.98-.05l-1.08.03c-.97-.11,1.47-.04,1.47-.12-2.1.04-4.55.13-6.16.1-.34-.11,3.77-.04,1.62-.13l2.49.04c-1.91-.17,1.51.01-.24-.17-3.28.01-3.67.01-6.94.03-.74.06.24.09-.49.15-4.65.11-3.66-.27-7.08-.12-.89.07-1.23.21-3.66.14l.83-.12c-3.18-.01-1.81.17-5.14.09.59-.05,2.5-.04,2.02-.05-2.15-.09-1.52.07-3.18.07l-.34-.11c-3.38.04-7.11.08-10.85.12.21-.03.85-.07-.03-.1-4.72.05-10.08-.01-14.64-.07l-1.74.09c-.4,0-.75-.04-.31-.06-1.78-.03-.09.06-.95.1-1.01,0-1.33-.05-.69-.08-3.13.08-8.93.17-12.23.07l.64-.03c-2.57-.04-2.9.19-5.28.1l.46-.02c-5.58-.04-11.74.05-16-.09-.81.13-5.52-.06-5.88.13-3.19-.09-2.27-.13-6.76-.19-1.2,0-1.79.12-3.27.14l-.04-.1-2.01.1-1.07-.12-1.39.02c.55,0,1.18.04,1.09.07-1.09.02-2.41,0-3.47-.02-.53-.02-.99-.04-1.33-.05-.33-.02-.54-.03-.55-.05l-5.13.08c.11-.04.97-.05,1.65-.08-2.74.1-.5-.1-3.01-.01.34.02-.18.06-.24.08-1.25-.06-4.1-.06-6.21-.04l.4-.07c-3.81,0-8.03.01-12.3.02,1.53.03,1.18.15-.07.16l-.5-.1c-.81.06,1.31.04-.35.12-1.6-.01-1.07-.12-.16-.15l-1.94.03c-.11-.03.34-.05.46-.08-.4.03-1.24,0-2.12-.02l-.66-.02h-.33c-.12,0-.16-.02-.39,0l-.14.31c-.05.08-.04.13-.09.15-.16.03-.31.05-.46.08-.08-.01-.06.17-.09.19l-.03.11c-.02.07-.04.14-.05.2l-.06.08c-.36.9-.94,1.57-1.52,2.1-.58.53-1.19.93-1.8,1.27-1.23.66-2.49,1.12-4.15,1.44-.04.1-1.12.28-2.07.39l.19.56.05-.04.13-.23v.05s.01,0-.05.12c-.02.03-.07.12-.24.14-.18,0-.24-.11-.26-.14-.04-.08-.03-.09-.04-.1v-.04s0,.02,0,.02v.06s.01.12.01.12c-.03,2.56-.1,5.4-.09,8.48.04,2.17.07.63.13,1.61-.08.16-.07,3.24-.13,1.64.01,3.7.02,4.72.08,9.4.03-.51.05-1.08.07-.78.01.85-.03,1.93-.07,1.81v-.22c.11,5.25-.25,12.12-.08,16.3v-.23s.08,4.34.08,4.34c-.02,1.99-.06-1.2-.11.28.13,4.68-.03,7.39.06,11.24-.07.86-.1,2.11-.11,3.54,0,.72,0,1.48,0,2.27,0,.39,0,.79,0,1.19v.3s0,.18,0,.18c.01.04-.03.11.03.12l.15.05c.08.04.26.05.25.11,0,.05-.01.1,0,.15l.2.26c.09.06.22.22.28.2l.21.02.43.05c.28.03.57.08.84.13.55.1,1.09.23,1.6.38,1.02.3,1.92.7,2.62,1.12l-.17-.15c.91.43,1.04.63,1.6,1.09-.04-.11-.84-.67-.32-.34.57.41,1.1.88,1.53,1.43.22.27.41.57.57.88.08.15.15.31.21.47.07.19.09.24.18.63.18.02.45-.06.46.08l.16.25c.02.06.09.02.13.03h.09s.7,0,.7,0h1.41c.94,0,1.89,0,2.84,0,1.9.01,3.8.02,5.71.04,3.82.03,7.65.06,11.42.09,3.3.01,1.88-.29,6.04-.16l-1.18.1c6.67-.13,13.63,0,20.16-.11-.39.02-.4.06-1.04.05.69.04,1.96.04,3.07.02.55-.01,1.06-.03,1.44-.03.37-.01.61-.03.62-.05,1.02,0,.24.06.86.09,1.38.04,3.47-.1,4.21-.02.12.01-.39.02-.64.03.9-.04,4.2,0,3.34-.08,2.45.04,4.69-.04,6.64.01,1.27-.1,4.19.05,4.6-.09-.18.14,4.29.11,5.84.05-.52.04,1.35.04.74.1,1.77,0,3.39-.03,3.08-.1,3.26.17,6.55-.14,8.38.08,5.25-.06,10.11-.11,14.83-.16-.17.14-5.22.01-5.02.16,4.48-.06,7.07-.18,11.51-.15,1.15.02-.65.06-1.04.09,4.48-.06,8.66.01,12.64-.06-.01.01-.44.03-.85.04.79,0,1.83.02,1.74-.04l-.77.02c-1.25-.09,3.12-.2,3.26-.25-1.33.18,3.94.05,1.82.28.52-.01,1.16-.04,1.05-.09.77.01,1.01.04.23.09,2.81-.04,1.81-.1,4.36-.1,0,.03-.52.04-.79.08,1.29-.06,2.59-.12,4.74-.1-.13.02.12.04-.52.04,3.7,0,6.3-.16,10.36-.1-1.2.14,1.38.04,1.59.16l2.18-.03-.88-.06c1.91,0,3.6-.08,5.24-.04l-1.42.05,3.58-.02-2.03-.04c1.93-.06-.21-.15,2.34-.12-.52.01,1.91,0,2.91.07h0c.95-.04,1.92-.08,3.33-.05.37.04-.3.13-.06.16.93-.1,4.47-.03,5.66-.13-.39.02-.41.09-.28.1l.78-.08c.89.03,1.01.04.87.09,2.66.01-.85-.15,2.31-.08-.25,0-.13.02-.65.03,3.18,0,6.13,0,9.05-.01.86.12-2.55.03-1.56.13,4.2-.02,8.71-.14,12.78-.11h-.76c.56-.18,3.03.07,5.09,0-.5.01-.66.09-.52.07,2.79.03,5.7-.04,9.92-.09l-.52.04c.82,0,1.9.02,3,.03.56,0,1.12,0,1.65,0,.16-.03.36-.07.36-.21-.09.07-.03-.04-.03-.09.03-.05.19-.03.24-.08.08-.32.15-.46.24-.68.14-.49.73-1.29.34-.83,1.08-1.47,2.64-2.4,4.22-3.07.79-.33,1.61-.6,2.43-.8.41-.1.82-.18,1.24-.25l.62-.09c.21-.03.4-.04.69-.07.05-.07.18-.1.17-.21-.03-.11.17-.12.13-.27v-.63s0-1.19,0-1.19c0-.79.02-1.58.05-2.37,0,.58.04,1.38.04.92l-.05-4.13c-.07.33-.04.54-.1,1.41-.04-.52-.08-1.69-.08-2.71.05,1.86.12-.02.16-.82-.02.13-.05-.14-.07-.07.13-2.16-.15-.36-.06-3.31l.04.16c-.02-1.1-.07-2.12-.06-3.31.08-.49.04,1.17.11,1.25,0-1.67-.16-3.3-.08-4.81.01.71.03,1.73.05,2.44.1-1.65.07-1.84.09-3.06v.12s.04-2.83.04-2.83l-.03.72c-.22-2.09-.04-4.26-.18-7.08.14,2.74.08.45.17.66.03-.72.06-1.81.08-1.5-.08-1.33.06-2.22-.05-4.1.03-.08,0-1.42.08-1.12-.02-1.73-.05.41-.09.26-.1-2.67.13-6.27,0-10.11-.06-3.31-.16-3.92-.21-6.99.05-1.04.11.85.11.85.05-1.67.04-2.93,0-4.51.03.32.05,0,.08-.49,0-1.26-.11-.85-.06-2.51.03.29.09.65.12,1.26-.02-.74-.03-1.49-.05-2.23,0-.37-.02-.75-.03-1.13v-.3c-.01-.06,0-.13-.02-.18-.05-.03-.09-.07-.12-.1,0-.19-.21-.28-.46-.27,0,.02,0-.06-.02.08h0s-.01,0-.01,0c0,0-.01,0-.01,0,0,0,0,0,.04,0-.07-.02-.05-.02,0,0v-.1h.08s.06,0,.09,0c.05.02.17-.03.19.04.03.05.07.1.11.16,0,.03,0,.07,0,.1.03.02.05.03.11.06.15.01.07.17.09.26,0,.08,0,.16,0,.23,0,.14.01.27.02.37,0-.25,0-.51,0-.79,0-.09-.19-.09-.21-.12-.03-.04,0-.12-.06-.18-.05-.05-.03-.16-.13-.16h-.14s-.07-.02-.07-.02h-.04s-.02,0-.02,0h0s0,0,0,0c0-.01-.01.1-.02.14-.18-.06-.36-.15-.55-.19-.19-.02-.37-.05-.56-.07-.37-.04-.71-.12-1.03-.17-.62-.13-1.1-.23-1.31-.28.35.13.7.22,1.06.33-.61-.16-.29-.15.16-.06.73.13,1.24.21,1.6.28.35.09.53.18.57.19-.36-.09-.72-.13-1.08-.17.26.08.66.17,1.14.22.1,0,.2.01.29.02l.15.02c.06,0,.01.09.03.13.03.2,0,.44.02.66,0,.45.02.93.03,1.42.02.97.05,1.96.04,2.8l-.13-.92.1,2.27c-.03.48-.11.81-.13-.28-.07,1.59.04,1.4-.03,2.77-.01.15-.02.08-.02-.06l.04,1.55c-.03-.3-.09.26-.07-.69-.08,2.78.09,4.48,0,5.53v-.23c.03,3.86.09.37.2,3.27l-.24,1.95.1.38c0,.4-.01,1.19-.05,1.04.06,1.48.04-.25.1.61-.09,1.92.04,5.28-.12,5.71.07.69.06-1.83.11.21-.17.58.03,2.36-.05,4.11-.08-.54-.04-2.2-.12-.44.14,1.06-.03,3.41,0,4.88.11.07.05,3.21.09,5.69-.04-.16-.06,4.66-.1,6.97l-.02-.07c.12.45.1,2.82.12,4.55-.07-.07-.1-.38-.13-1.32v1.63c.04.38.06.89.07,1.95l-.09-.41c.02,1.01.03,2.03.05,3.11,0,.54.02,1.1.03,1.68,0,.29,0,.59,0,.89v.37s0,.1,0,.14h-.15c-.15.02-.31.03-.47.04-.07.04.34.05.53.08.19.02.37.04.06.1-.2.03-.59.09-1.28.2-.11-.02-.24-.1.53-.21-.25.04-.89.15-1.39.24.38-.1.77-.19,1.15-.27-1.27.16-.65.15-1.65.35,0-.07-.74.14-.61.06.25-.08.87-.19,1.25-.29-1.14.2-2.48.61-2.92.75.11,0,.02.06-.74.42-.98.48-1.13.6-1.22.61-.08.02-.06-.03-.6.32-.44.31-1.49,1.29-1.41,1.41-.41.49-.5.59-.66.79-.14.25-.37.69-.52,1.22-.03.1-.04.17-.06.24.08.03-.08,0-.14.02-.25,0-.5,0-.73,0-1.01.01-1.72.03-1.09.08h.29c-.05,0-.12,0-.18.01h0,0c-3.67.09-7.63-.05-11.28-.01v-.03c-2.17.04-4.84.02-6.39.09-.64,0-1.52-.06-1.24-.09-1.66.02-1.85.06-4.25,0,1.67-.05-.58-.05,1.71-.04-2.16-.03-2.65-.08-4.97,0,.79-.08-1.63-.1-2.65-.08l1.51.06c-1.16,0-2.17,0-3.19,0l.55-.1c-4.42-.13-7.98.22-11.34,0-1.17.07,2.4.05,1.36.14-2.03-.01-4.15-.16-4.79-.17-2.79-.06-2.6.15-5.52.11.37.04.73.14-1.45.17-2.04-.01-2.5-.16-1.22-.19.49,0,.72,0,.7.02.66-.01,1.52-.03.71-.07l-.26.04c-1.01-.04-3.81-.03-3.15-.1-1.54.04-.66.06.48.08-2.61-.05-4.08,0-6.77-.04.43.02.82.06.4.06-3.94-.05-1.74.07-4.41.09-1.52-.06.54-.14-2.15-.09-1.64-.04-.35-.1.3-.13-2.45.07-4.58-.05-5.98-.06l1.29-.03c-.77,0-1.4.01-2.05.02l.74.07c-.76-.01-1.4-.01-1.39-.04-.78.05.6.12-.95.19-1.01-.04-3.08.04-3.43-.06,3.18.03-.35-.1,2.34-.12-.52.01-1.15.01-1.91,0-.11-.01.11-.02.31-.03-3.04-.09-1.4.11-4.55.11.4-.06-.73-.11-1.24-.09,1.27,0,.61.09-.56.14-2.02-.04-2.2.03-3.25.03l1.21.02c-.41.06-1.42.05-2.83.07-.12-.04,1.28-.03.78-.05-1.56.1-3.53-.1-5.71-.04-1.01-.04-.1-.1-.98-.13-2.44.07-2.65-.08-5.21-.02.74.07.87.06-.94.13l4.22-.05-2.71.11c1.27-.01,2.69-.03,3.45-.03-1.29.06-1.16.04-.55.1-1.74-.11-3.46.07-5.47-.01l.06-.19c-3.03-.08-5.38.1-9.32.05l1.26.03c-.53.07-2.43.01-3.7.04.12-.06-.68-.08-1.22-.12.07.05-2.88,0-3.24.12l-1.76-.08c-3.18-.03-3.63.18-6.68.16.92-.07-.47-.11,1.58-.16-1.02,0-1.94-.01-1.95.03-.6-.04-2.83.08-3.77.02-.43.03-.57.09-1.72.09-.12-.01,0-.03,0-.03,0,.03-1.79.04-.79.11-3.14-.19-8.78.01-11.51-.15-2.23.01-4.91.03-6.93.05.13-.02,0-.03.39-.02-2.79-.06-1.71.18-4.88.11-1.62-.1,1.68-.05.67-.09-.44-.2-3.83.03-5.96-.09h.52c-1.63-.08-3.98.07-6.65.05,0,0,.13-.02.02-.03-1.82.1-5.27.14-7.84.17.8-.08,1.16-.04.68-.12-1.15.01.34.13-1.96.15-.75-.04-2.4-.08-2.62-.17h2.16c-1.11-.12-2.8,0-3.94-.02l.15-.05c-3.32.02-3.36.14-6.93.13l.37.04c-1.95.12-1.63-.07-3.58.02l-.59-.12c-1.29.03-4.51.1-6.81.15,1.31-.09,4-.14,5.67-.2-1.27,0-4.33.01-4.99.07.51-.01,1.16-.04,1.67-.02-1.56.1-3.62.15-6.16.15.15-.08-.54-.11-1.61-.13-.53,0-1.15,0-1.8-.01-.33,0-.66,0-.99,0h-.44s-.13,0-.13,0c-.03-.01-.02-.07-.04-.11,0-.04-.06-.24-.11-.39-.05-.16-.11-.31-.18-.45-.13-.29-.27-.55-.42-.78-.3-.47-.6-.82-.8-1.07-1.13-1.08-2.48-1.83-3.92-2.37-.72-.27-1.46-.5-2.23-.67-.38-.09-.77-.16-1.16-.23l-.59-.08-.49-.06h-.09s0-.07,0-.1v-.49c.01-.41.02-.83.02-1.25,0-.84,0-1.7.01-2.58-.19,1.86,0-1.53-.19-1.21,0-1.22,0-1.68,0-1.79l.12-3.69c.06-.88.04,1.16.08,1.05.02-2.67.08-1.12.14-2.89-.07.36-.1-.93-.07-2.45l-.09,2.14c-.1-3.73.16-3.22.07-6.98l.06,1.19c-.03-1.93,0-7.12-.15-9.01.02-.34.08-.79.09.06.02-4.61-.16-10.26-.07-13.84l.05.35c-.01-.86-.09-1.5-.04-2.57.02.06.05.35.05-.05-.02-.46-.08-2.28-.06-3.42l.05.97c.06-4.5-.13-6.9-.16-10.67.06,0,.1-.65.13-1.53.01-.44.02-.94.04-1.44,0-.25,0-.51.01-.75,0-.12,0-.25,0-.37v-.18s0-.09,0-.09v-.04s0-.02,0-.02v-.03s-.01-.06-.01-.06c0-.02,0-.05-.05-.13,0-.06-.31-.29-.55-.15-.18.11-.17.18-.19.21l-.02.06v.04s-.01.02-.01.02h0s.19-.32.19-.32l-.05.04-1.37.9,1.64-.13c.29-.02.56-.04.8-.06l-.06.03c2.66-.29,4.89-1.06,6.76-2.33.92-.65,1.76-1.44,2.35-2.46.15-.25.27-.52.38-.8.05-.14.1-.28.14-.43.04-.13.03-.13.04-.2.05-.02.1,0,.17-.01h.44c.29,0,.59,0,.9-.01,3.01.16,10.2.08,15.03.16-.74-.03.12-.11.98-.12,1.14.03,3.14-.09,2.96.03h-.4c.86.12,3.19.09,5.01.09l.3-.17c4.76.24,12.48-.09,15.08.13,1.15-.03,2.57-.06,3.71-.08l-.06.09c3.19.02,4.78.03,8.71.01l-.8.06c2.22,0,2.8-.26,4.85-.26l.62.13c3.87,0,7.8.11,11.63,0-.06.02-.18.06-.8.06,1.82,0,7.06.09,6.39-.09.05.12,4,.01,6.09-.04l-.33.09c1.77-.11,1.82-.14,4.29-.17.58.01.51.07-.26.05,1.95.05,1.52-.08,3.88-.04l-.88.06c2,0,1.84-.02,2.95-.09,1.26-.04,3.8.02,4.1.1.27-.05,1.37-.11,2.55-.09.16.03-.27.05-.49.06,3.35.06,4.98-.1,7.29-.02.05.03.2.04.39.05-2.65,0-4.4-.01-4.61-.01,0,.08,2.15.09.44.21,1.73-.06,4.68-.19,6.77-.16.1,0,.2.02.28.03h-.22c.48.02.92,0,1.32,0,.67,0,1.09.02,1.74.02.25.07,2.47.04,3.54.04-.09-.09,1.31-.07,0-.15.17,0-.2.01-.92.01-.16,0-.35,0-.46,0,.02,0,.05,0,.07,0-.7,0-1.62,0-2.67,0,.85-.05,1.73-.08,2.92-.03.55-.05,1.16-.11,1.5-.14,1.47.12,4.3.19,4.69.27,3.27-.05,7.71-.03,9.77-.2.93-.02,1.07.05,1.42.07-.54.02-1.18.01-1.47.04,1.86-.04,5.51-.02,5.96-.13,2.35.05-1.32.11,1.91.09l-.44.04c6.34.18,10.31-.3,17.34-.06-.49-.01-.73-.02-.83-.04,8.01.1,16.52-.1,24.43.06,2.25.03,2.49-.04,3.86-.1l.49.09,2.35-.11c3.33-.08,5.76.23,9.97.08l-.54-.06c1.51.01,4.79-.04,4.54.03.15-.01.5-.07,1.09-.03l.05.05,3.72-.09c2.88.04-.45.2,3.75.21,1.56-.02,4.45-.14,3.86-.18-.63,0-1.61-.03-1.66-.08l1.43-.03s.08-.04.13-.05l.07-.03h.04s.03-.06.11.03c.02.14,0,.08,0,.12,0,.02,0,.03,0,.04,0,.02.02.03.05.02l.03-.02h.02s.08-.03.01-.24c-.13-.17-.24-.1-.22-.12h-.03s-.04-.01-.07-.02c-.1-.02-.24-.03-.44-.05-.39-.03-.98-.06-1.85-.09l-2.44.09-.79-.07h2.06c-1.17-.07-1.91-.01-2.74.03-.2-.04-.54-.06-1.02-.08l-2.4.14c-.29-.06,1.08-.11-.53-.15-1.12.07,1.08.13-.78.17-1.17-.07-.83-.12-2.2-.06-.19-.04.1-.06.64-.08-1.22.05-3.23.02-3.86.1-1.22-.08-4.12.02-4-.12-.38.03-2.15.11-3.27.12,2.05-.17-4.2,0-3.66-.19-1.52.15-5.48.07-8.17.15.15-.01.45-.04.68-.03-1.51-.01-1.95-.06-2.92-.08-.19.12-2.55.15-3.82.23-1.85-.12,1.13-.15.54-.26.09.1-3.22.1-2.59.18-1.42-.07-1.22-.04-1.95-.14-.25.15-1.32.03-2.5.12-2.05-.08-.53-.14-2.78-.1-1.07-.05.93-.1.93-.1ZM119.25,3.08h0c.46,0,.86,0,1.11,0-.23,0-.55,0-1.11,0ZM114.74,3.08c.55,0,1.23,0,1.95,0,.16.03-.01.06-.47.06.25-.02-.82-.04-1.49-.06ZM124.27,3.7c-.71.01-.95,0-1.05-.02.34,0,.73,0,1.25-.01.02,0,.06,0,.08-.01-.07.02-.15.03-.28.04Z"/>
              <path class="cls-3" d="M125.55,3.58c.1,0,.16,0,.29,0-.15,0-.28-.01-.43-.02-.09,0-.17.02-.25.03.13,0,.26,0,.38,0Z"/>
              <path class="cls-3" d="M220.69,77.41h-.09c.08,0,.15,0,.2.01-.06,0-.06,0-.1-.01Z"/>
              <polygon class="cls-3" points="52.53 2.92 52.54 2.95 52.93 2.93 52.53 2.92"/>
              <path class="cls-3" d="M233.15,61.56s.02-.14.02-.33c0,.01-.01.15-.02.33Z"/>
              <path class="cls-3" d="M233.17,50.84l.03-1.52c-.01.66-.02,1.13-.03,1.52Z"/>
              <path class="cls-3" d="M233.22,42.6c-.02-.1-.03-.13-.04-.16v.02s.04.15.04.15Z"/>
              <path class="cls-3" d="M133.44,77.89c-.11,0-.22,0-.32,0-.75.02-.24.01.32,0Z"/>
              <path class="cls-3" d="M172.43,77.68c-.41.01-.82.03-1.25.04.69,0,1.23,0,1.25-.04Z"/>
              <path class="cls-3" d="M89.9,77.99h0c-.09,0-.18,0-.27,0h.26Z"/>
              <path class="cls-3" d="M169.36,77.72c.69.02,1.27.01,1.81,0-.57,0-1.24-.02-1.81,0Z"/>
              <path class="cls-3" d="M230.56,8.81c-.13-.03-.26-.05-.38-.09,0,0-.02,0-.05,0,.14.04.29.06.43.08Z"/>
              <path class="cls-3" d="M230.13,8.73l-.42-.1c.19.05.36.09.42.1Z"/>
              <path class="cls-3" d="M228.83,8.38c.29.09.58.18.88.24-.31-.07-.67-.2-.88-.24Z"/>
              <path class="cls-3" d="M233.24,17.79l.03.12c0-.07-.02-.11-.03-.12Z"/>
              <path class="cls-3" d="M233.24,21.11c0-.79.07-1.98.05-3.09l-.03-.1c.05.52-.08,2.44-.03,3.19Z"/>
              <path class="cls-3" d="M232.83,34.94l.03-2.78c-.03.49-.08,1.12-.09-.14-.1,3.5.08-.72.06,2.92Z"/>
              <path class="cls-3" d="M232.78,43.56c-.02-1.49-.05.02-.07-.06.03.95.04,1.18.07.06Z"/>
              <path class="cls-3" d="M201.26,77.35l.15-.08c-1.15.01-.01.03-.15.08Z"/>
              <polygon class="cls-3" points="189.36 77.76 190.48 77.81 191.01 77.74 189.36 77.76"/>
              <polygon class="cls-3" points="182.33 77.19 182.83 77.18 180.91 77.21 182.33 77.19"/>
              <path class="cls-3" d="M77.78,77.22l.35.1c.78-.02.94-.13-.35-.1Z"/>
              <path class="cls-3" d="M32.65,77.32c-.49-.05-1.76-.08-2.54-.03,1.01,0,2.03.04,2.54.03Z"/>
              <polygon class="cls-3" points="40.56 3.72 39.66 3.75 41.37 3.72 40.56 3.72"/>
            </g>
            <g>
              <path class="cls-3" d="M223.03,3.44c.1-.12.11-.16.02-.09-.03.01-.03.05-.12.06-.07.02-.2.02-.25.02-.13,0-.31,0-.52,0l-.61.11.67-.02h.34s.17-.01.17-.01c.08,0,.22-.02.31-.06Z"/>
              <path class="cls-3" d="M217.07,3.31c-1.02.05-2.19.14-1.53.24,1.01-.1,1.25-.06,2.33-.18.86-.01,1.51.03,1.36.07.31-.03,1.34.02,1.81-.04-1.12-.08-2.55-.08-4.04-.02-.32-.02,0-.05.06-.07Z"/>
              <path class="cls-3" d="M132.65,3.12h.54c-.15,0-.34,0-.54,0Z"/>
              <path class="cls-3" d="M80.34,3.05c.4,0,.56-.01.58-.02-.37,0-.67.01-.58.02Z"/>
              <path class="cls-3" d="M71.41,2.93c.19,0,.35,0,.53,0-.2,0-.4-.02-.53,0Z"/>
              <path class="cls-3" d="M132.65,3.12l-1.4-.03c-.1.03.72.03,1.4.03Z"/>
              <path class="cls-3" d="M205.43,3.56c.29-.01.53-.02.76-.03-.24,0-.47,0-.71.01-.01,0-.03,0-.05.02Z"/>
              <path class="cls-3" d="M155.71,3.05h.42c.12-.01.24-.03.35-.04l-.78.04Z"/>
              <path class="cls-3" d="M173.4,3.04c-.4,0-.54.08-.69.12.23-.04.52-.05.87-.06,0-.02-.05-.04-.18-.06Z"/>
              <path class="cls-3" d="M201.46,3.2h.5c-.13,0-.35,0-.5,0Z"/>
              <path class="cls-3" d="M143.04,3.02s-.09-.02-.16-.03c0,.01.06.02.16.03Z"/>
              <path class="cls-3" d="M232.64,17.29s.01,0,.02,0c0-.1-.02-.13-.02,0Z"/>
              <path class="cls-3" d="M222.9,3.28l.07.27s.05.05.06.05l-.14-.32Z"/>
              <path class="cls-3" d="M55.07,2.82s.04,0,.07,0c.43-.01.19,0-.07,0Z"/>
              <path class="cls-3" d="M32.79,77.97c-1.7-.08,2.77-.1.21-.19.24.03-2.33.14-.21.19Z"/>
              <path class="cls-3" d="M204.97,3.55c-.24,0-.48,0-.73,0,.33,0,.55,0,.73,0Z"/>
              <path class="cls-3" d="M33,77.78h0s-.26,0-.26,0c.11,0,.17,0,.26,0Z"/>
              <path class="cls-3" d="M17.41,2.88c.08.02.23.03.38.04-.01,0-.1-.02-.38-.04Z"/>
              <path class="cls-3" d="M45.46,2.99h-.69c.28,0,.5,0,.69,0Z"/>
              <path class="cls-3" d="M5.23,8.72c-.37.07-.49.09-.99.19.05,0,.09-.01.15-.02.18-.05.42-.1.83-.18Z"/>
              <path class="cls-3" d="M2.16,21.63c0-.08.01-.19.02-.28,0-.15,0-.33,0-.48v.76Z"/>
              <path class="cls-3" d="M232.7,63.36c.03-.33.05-.54.08-.7-.06.23-.08-1.99-.08.7Z"/>
              <path class="cls-3" d="M205.42,3.51c-.09.02-.22.03-.45.04.17,0,.34,0,.5,0,.04-.01.05-.03-.05-.03Z"/>
              <path class="cls-3" d="M4.77,9.53c-.39.07-.79.14-1.18.18l-.75.08h0s0,0,0,0c.2-.02.43-.04.68-.07.4-.05.83-.11,1.25-.2Z"/>
              <path class="cls-3" d="M134.88,77.25h.55c-.21-.01-.41-.01-.55,0Z"/>
              <path class="cls-3" d="M2.86,16.64c-.03.43-.05.89-.06,1.36,0,.1.01.21.02.28l.04-1.64Z"/>
              <path class="cls-3" d="M232.78,62.66h0s0,0,0,0Z"/>
              <path class="cls-3" d="M232.58,46.79c0,2.3.11,1.08.18,1.56.03,2.74-.09,1.27-.14,2.2.03,1.71.14,3.02.13,4.3-.02.1-.03.34-.05.05.09,1.81,0,5.37.12,7.48-.01.16-.02.24-.03.28.06-.34.12-.39.16-.32,0,1.03.07,1.91,0,2.3,0-.63-.03-.68-.05-.98l.03,1.08c-.11.97-.04-1.47-.12-1.47.03,2.1.12,4.55.08,6.16-.11.34-.02-3.77-.12-1.62l.05-2.49c-.17,1.9.01-1.51-.17.24-.02,1.49-.01,2.39,0,3.24,0,.43,0,.84.01,1.31,0,.24,0,.49,0,.76,0,.07,0,.13,0,.21.01.04-.03.04-.06.04-.13.01-.35.03-.6.05-.74.17.26.05-.48.22-2.32.43-3.19.81-3.94,1.02-.72.29-1.37.44-2.75,1.59-.32.33-.54.58-.85.99-.29.42-.82.96-1.2,2.21.02-.3.11-.58.18-.88-.08.2-.15.38-.22.55-.04.16-.1.39-.09.37-.03.09,0,.04.02.05-.1-.02-.25-.02-.36-.02-.07,0-.14,0-.21.01-.25.02-.44.03-.65.05-.43.03-.99.04-2.45,0,.59-.05,2.5-.04,2.02-.05-2.16-.1-1.52.07-3.18.07l-.34-.11c-3.38.04-7.11.07-10.85.11.21-.03.85-.07-.03-.1-4.72.05-10.08-.01-14.64-.08l-1.74.09c-.4,0-.75-.04-.31-.06-1.78-.03-.09.06-.95.09-1.01,0-1.33-.05-.69-.08-3.13.08-8.93.17-12.23.07l.64-.03c-2.57-.04-2.9.19-5.28.1l.46-.02c-5.58-.04-11.74.04-16-.09-.81.13-5.52-.06-5.88.13-3.19-.09-2.27-.13-6.76-.19-1.2,0-1.79.12-3.27.14l-.04-.1-2.01.1-1.07-.12-1.39.02c.55,0,1.18.04,1.09.07-1.09.02-2.41,0-3.47-.02-.53-.02-.99-.04-1.33-.05-.33-.02-.54-.03-.55-.05l-5.13.08c.11-.04.97-.05,1.65-.08-2.74.1-.5-.1-3.01-.01.34.02-.18.06-.24.08-1.25-.06-4.1-.06-6.21-.03l.4-.07c-3.81,0-8.03.02-12.3.03,1.53.03,1.18.15-.07.16l-.5-.1c-.81.06,1.31.04-.35.12-1.6-.01-1.07-.12-.16-.15l-1.94.04c-.11-.03.34-.05.46-.09-.8.06-3.35-.1-4.5,0l-.11-.03c-4.27.02-6.21.03-9.69.04-.07.09-1.43.07-2.47.14-2.56-.03-5.4-.1-8.48-.09-2.17.04-.63.07-1.61.13-.16-.08-3.24-.07-1.64-.13-3.7.01-4.72.02-9.4.08.51.03,1.08.05.78.07-.85.01-1.93-.03-1.81-.07h.22c-5.25.11-12.12-.25-16.3-.08h.23s-4.34.08-4.34.08c-2-.01,1.2-.06-.28-.11-4.68.13-7.39-.02-11.24.07-2.98-.24-10.58.01-14.61-.14l.23.06c-1.04.05-1.26-.03-2.02-.05.11.04,1.13.05.48.08-.81,0-1.62,0-2.44.01h-1.23c-.2.02-.47-.04-.44.05-.02.05-.06.14-.15.2-.07.07-.03-.04-.05-.05l-.05-.24v-.05s-.04-.1-.04-.1c-.02-.06-.04-.13-.06-.19-.05-.13-.09-.25-.15-.37-.1-.25-.23-.48-.37-.71-.28-.45-.61-.87-.99-1.24-.74-.75-1.62-1.34-2.55-1.82-.93-.48-1.91-.83-2.91-1.1-.5-.13-1.01-.24-1.52-.33l-.77-.12-.59-.07s-.03-.04-.03-.07v-.59s0-1.28,0-1.28v-2.55c.02-1.7.03-3.4.04-5.08.01-3.3-.29-1.87-.16-6.04l.1,1.18c-.13-6.67,0-13.63-.1-20.16.02.39.06.4.05,1.04.04-.69.04-1.96.02-3.07-.01-.55-.03-1.06-.03-1.44-.01-.37-.03-.61-.05-.62,0-1.02.06-.24.09-.86.05-1.38-.1-3.47-.02-4.21.01-.12.02.39.03.64-.04-.9.01-4.2-.08-3.34.04-2.45-.04-4.69.01-6.64-.1-1.27.05-4.19-.09-4.6.09.12.11-1.8.09-3.55v-.11s.11-.02.16-.03c.17-.02.34-.04.49-.06.32-.05.6-.1.82-.15-.51.15,1.36-.21.76-.04,1.78-.36,3.3-1.11,2.98-1.05,1.18-.45,2.29-1.13,3.14-1.99.43-.43.8-.9,1.08-1.39.15-.24.26-.49.36-.74.05-.13.09-.25.13-.37l.07-.25s0-.05.02-.06h.07c.1,0,.2.01.3.01.27.01.52.03.75.05,5.25-.06,10.11-.12,14.83-.18-.17.14-5.22.02-5.02.17,4.48-.06,7.07-.19,11.51-.15,1.15.02-.65.06-1.04.09,4.48-.06,8.66.01,12.64-.07-.01.01-.44.03-.85.04.79,0,1.83.02,1.74-.04l-.77.02c-1.25-.09,3.12-.2,3.26-.25-1.33.19,3.94.05,1.82.28.52-.01,1.17-.04,1.05-.09.77.01,1.01.04.23.09,2.81-.04,1.81-.1,4.36-.1,0,.03-.52.04-.79.08,1.29-.06,2.59-.12,4.74-.09-.13.02.12.04-.52.04,3.7,0,6.3-.16,10.36-.1-1.2.14,1.38.04,1.59.16l2.18-.03-.88-.06c1.91,0,3.6-.08,5.24-.04l-1.42.05,3.58-.02-2.03-.04c1.93-.06-.21-.15,2.34-.12-.52.01,1.91,0,2.91.07h0c.95-.04,1.92-.08,3.33-.05.37.04-.3.13-.06.16.93-.1,4.48-.03,5.66-.13-.39.02-.41.09-.28.1l.78-.08c.89.03,1.01.04.87.09,2.66.02-.85-.15,2.31-.08-.25,0-.13.02-.65.03,3.18,0,6.13,0,9.05,0,.86.12-2.55.03-1.56.13,4.21-.02,8.71-.14,12.78-.11h-.76c.56-.18,3.03.07,5.09,0-.5.01-.66.09-.52.07,2.79.03,5.7-.04,9.92-.09l-.52.04c1.64.04,4.32.02,6.1.04.53-.04,1.54-.04.92-.1,5.47.25,10.43-.13,15.29.08-.58,0-1.38.04-.92.04l4.13-.04c-.33-.07-.54-.04-1.41-.1.52-.04,1.69-.08,2.71-.08-1.86.05.02.12.82.16-.13-.02.14-.05.07-.07,2.16.13.36-.15,3.31-.06l-.16.04c1.1-.02,2.12-.07,3.31-.06.49.08-1.17.04-1.25.11,1.67,0,3.3-.16,4.81-.07-.71.01-1.73.03-2.44.05,1.65.1,1.84.07,3.06.09h-.12s2.83.04,2.83.04l-.72-.03c2.09-.22,4.26-.04,7.08-.18-2.74.14-.45.08-.66.17.72.03,1.81.06,1.5.08,1.33-.08,2.22.06,4.1-.05.08.03,1.42,0,1.12.08,1.73-.02-.41-.05-.26-.09,2.67-.1,6.27.13,10.11-.01,3.31-.06,3.92-.16,6.99-.21,1.04.05-.85.11-.85.11,1.67.05,2.93.04,4.51,0-.32.03,0,.05.49.08,1.26,0,.85-.11,2.51-.07-.29.03-.65.09-1.26.12,1.49-.04,2.96-.07,4.51-.11.41.05-.93.08-1.47.12,1.73-.02,4.49-.05,5.03-.13l-1.11-.03c.63,0,.32.07-.14.09-1.49.07-2.14-.03-2.23-.06l1.1-.02c-1.13-.18-4.41.03-6.63.02l.92-.13-2.27.11c-.48-.03-.81-.11.28-.13-1.59-.07-1.4.05-2.77-.03-.15-.01-.08-.02.06-.02l-1.55.04c.3-.03-.26-.09.69-.07-2.78-.08-4.48.1-5.53,0h.23c-3.86.04-.37.09-3.27.2l-1.95-.24-.38.1c-.4,0-1.19-.01-1.04-.05-1.48.07.25.04-.61.1-1.92-.09-5.28.04-5.72-.11-.69.07,1.83.06-.21.11-.58-.17-2.36.03-4.11-.05.54-.08,2.2-.04.44-.12-1.06.14-3.41-.03-4.88,0-.07.11-3.21.05-5.69.08.16-.04-4.66-.06-6.97-.11l.07-.02c-.45.12-2.82.09-4.55.12.07-.07.38-.1,1.32-.13h-1.63c-.38.04-.89.06-1.95.07l.41-.09c-2.17,0-4.36.1-7.15.04-.16.08,2.22.23-.73.28-.11-.04-.22-.12.55-.14-.25,0-.9.04-1.41.02l1.18-.07c-1.27-.03-.66.06-1.68.05.02-.06-.75-.04-.61-.09.26,0,.89.03,1.27,0-1.14-.01-2.53-.05-2.98-.1.1.04,0,.08-.84.09-2.17,0-.74-.07-2-.11-.52.04-1.91,0-1.94.09-.63,0-.75-.04-1-.07-1.12.04-5.24,0-3.97.11h.29c-.05,0-.12,0-.18.01h0,0c-3.67.09-7.63-.06-11.28-.02v-.03c-2.17.03-4.84.02-6.39.09-.64,0-1.52-.06-1.24-.09-1.66.02-1.85.06-4.25,0,1.67-.05-.58-.05,1.71-.04-2.16-.03-2.65-.08-4.97,0,.79-.08-1.63-.1-2.65-.08l1.51.06c-1.16,0-2.17,0-3.19,0l.55-.1c-4.42-.13-7.98.21-11.34,0-1.17.07,2.4.05,1.36.14-2.03-.01-4.15-.17-4.79-.17-2.79-.06-2.6.15-5.52.11.37.04.73.14-1.45.17-2.04-.01-2.5-.16-1.22-.19.49,0,.72,0,.7.02.66-.01,1.52-.03.71-.07l-.26.04c-1.01-.04-3.81-.04-3.15-.1-1.54.04-.66.06.48.08-2.61-.05-4.08,0-6.77-.04.43.02.82.06.4.06-3.94-.05-1.74.07-4.41.09-1.52-.06.54-.14-2.15-.09-1.64-.04-.35-.1.3-.13-2.45.07-4.58-.05-5.98-.06l1.29-.03c-.77,0-1.4.01-2.05.02l.74.07c-.76-.01-1.4-.01-1.39-.04-.78.05.6.12-.95.19-1.01-.04-3.08.04-3.43-.06,3.18.03-.35-.1,2.34-.12-.52.01-1.15.01-1.91,0-.11-.01.11-.02.31-.03-3.04-.09-1.4.11-4.55.11.4-.06-.73-.11-1.24-.09,1.27,0,.61.09-.56.14-2.02-.04-2.2.03-3.25.03l1.21.02c-.41.06-1.42.05-2.83.07-.12-.04,1.28-.03.78-.05-1.56.1-3.53-.1-5.71-.03-1.01-.04-.1-.1-.98-.13-2.44.07-2.65-.08-5.22-.02.74.07.87.06-.94.13l4.22-.05-2.71.11c1.27-.01,2.69-.03,3.45-.04-1.29.06-1.16.04-.55.11-1.74-.11-3.46.07-5.47,0l.06-.19c-3.03-.08-5.38.1-9.32.06l1.26.03c-.53.07-2.43.01-3.7.04.12-.06-.68-.08-1.22-.12.07.05-2.88,0-3.24.13l-.88-.04-.44-.02c-.14,0-.28-.04-.52.02-.04.04-.1.09-.13.11l-.05.04-.03.02h-.01s0,.01,0,.01h0s0,0,0,0h0s-.07-.09-.07-.09h0s0,0,0,0c-.06.08-.12.15-.17.21-.07.32-.1.4-.15.55-.05.14-.1.27-.16.39-.11.24-.23.46-.35.66-.24.4-.49.72-.77,1.02-.56.6-1.21,1.18-2.49,1.81.39-.23.27-.21.28-.24,0-.04.16-.1.97-.67-.82.56-1.65.91-1.65.95-.27.11-.9.39-1.6.63-.7.24-1.46.42-1.92.47-.43.1-.49.19-1.71.32-.16,0,0-.03,0-.03,0,0-.05.02-.13.03-.04,0-.09.01-.14.02-.03,0-.06,0-.08.02l-.03.02s0,.01,0,.02h0s0,.01,0,.01h0s0,0,0,0h0s.13.11.13.11h0c-.03.06.01.14-.06.2-.02.03-.1.05-.07.1.02.05.04.09.06.14-.13.01-.04.02-.07.03v.03s0,.05,0,.05c0,.03,0,.06,0,.09,0,.05,0,.08.01.09.03.02-.02-.05.08-.28,0,0,0,0,0-.02v.02c-.26,3.14,0,8.77-.18,11.5.01,2.23.03,4.91.04,6.93-.02-.13-.03,0-.02-.39-.06,2.79.18,1.71.11,4.89-.1,1.62-.05-1.68-.09-.67-.2.44.03,3.83-.09,5.96v-.52c-.08,1.63.06,3.98.05,6.65,0,0-.02-.13-.03-.02.1,1.82.14,5.27.17,7.84-.08-.8-.04-1.16-.12-.68.01,1.15.13-.34.15,1.96-.04.75-.08,2.4-.17,2.62v-2.16c-.12,1.11,0,2.8-.02,3.94l-.05-.15c.02,3.32.14,3.36.14,6.93l.04-.37c.13,1.95-.07,1.63.03,3.58l-.12.59c.01.36.03.86.04,1.45,0,.3.02.61.03.95.03.26-.06.91.35.97.4.02.62.04.92.07.29.03.57.07.85.11.56.09,1.11.21,1.6.34-.39-.08-.9-.18-1.47-.27-.29-.04-.59-.08-.9-.11l-.47-.04-.57-.04-.17-.07-.04-.02h-.02s-.01-.01-.01-.01h0s0,0,0,0h0s.06-.05.05-.05h0s-.03-.08-.03-.08c-.02-.1-.14-.2-.13-.36,0-.22-.02-.43-.02-.64-.01-.39-.03-.76-.04-1.08,0,.27,0,.63,0,1.03,0,.21,0,.42.01.65-.03.18.1.3.14.4l.04.08h0s0,.01,0,.01h0c-.11.11-.03.03-.06.06h0s0,0,0,0h.02s.04.03.04.03l.18.09.55.04c.14.01.28.03.42.04.27.04.53.07.76.1.47.08.84.14,1.03.17-.5-.11-1.13-.19-1.62-.28,1.52.13,3.61.5,5.76,1.83-.16,0,.35.31,1.04.93.34.31.72.71,1.05,1.18.16.24.31.49.45.76.06.14.12.27.17.41.03.07.05.14.07.21l.03.11.02.05v.03s.07-.05.1-.08c0,.12-.03.23-.03.36.1.04.21.09.35.13.13.04.28.06.41.07h.29c.35.01.68.02.99.02.62.02,1.14.04,1.48.07,4.49-.08,8.91.05,14.14.03-1.86-.19,1.53,0,1.21-.2,1.22-.01,1.68,0,1.79,0l3.69.12c.88.06-1.16.04-1.05.09,2.67.02,1.12.08,2.89.13-.36-.07.93-.1,2.45-.07l-2.14-.09c3.73-.1,3.22.16,6.98.06l-1.19.06c1.93-.04,7.12,0,9.01-.15.34.02.79.08-.06.09,4.61.02,10.26-.16,13.84-.07l-.35.05c.86-.01,1.5-.09,2.57-.04-.06.02-.35.05.05.05.46-.02,2.28-.08,3.42-.05l-.97.05c4.5.06,6.9-.13,10.67-.16,0,.14,3.53.18,5.29.21l-.06.02c5.24.02,8.89-.11,13.74-.17,3.01.15,10.2.06,15.03.15-.74-.03.12-.11.98-.12,1.14.03,3.14-.1,2.96.03h-.4c.86.12,3.19.09,5.01.09l.3-.17c4.76.24,12.48-.09,15.08.13,1.15-.03,2.57-.06,3.71-.08l-.06.09c3.19.02,4.78.03,8.71.01l-.8.06c2.22,0,2.8-.26,4.85-.26l.62.13c3.87,0,7.8.11,11.63,0-.06.02-.18.06-.8.06,1.82,0,7.06.09,6.39-.09.05.12,4,.01,6.09-.04l-.33.09c1.77-.11,1.82-.14,4.29-.17.58.01.51.07-.26.05,1.95.05,1.52-.08,3.88-.04l-.88.06c2,0,1.84-.02,2.95-.09,1.26-.04,3.8.02,4.1.1.27-.05,1.37-.11,2.55-.09.16.03-.27.05-.49.06,3.35.06,4.98-.1,7.29-.02.05.03.2.04.39.05-2.65,0-4.4-.01-4.61-.01,0,.08,2.15.09.44.21,1.73-.06,4.68-.19,6.77-.16.1,0,.2.02.28.03h-.22c.48.02.92,0,1.32,0,.67,0,1.09.02,1.74.02.25.07,2.47.04,3.54.04-.09-.09,1.32-.07,0-.15.17,0-.2.01-.92.01-.16,0-.35,0-.46,0,.02,0,.05,0,.07,0-.7,0-1.62,0-2.67,0,.85-.04,1.73-.08,2.92-.03.55-.05,1.16-.11,1.5-.14,1.47.12,4.3.19,4.69.27.64,0,1.32-.01,2.02-.02.35,0,.71,0,1.06,0h.24c.06,0,.01-.04.25-.04l.52-.02s.05-.02.08-.04v-.02s.02,0,.02,0h0c.09.09-.12-.13-.1-.1h0s0,0,0,0l.04-.03.15-.11.11-.47.14-.36c.08-.24.23-.46.34-.68.27-.42.58-.81.91-1.14.66-.67,1.34-1.15,1.86-1.49.8-.46.96-.43,1.28-.55-.48.22-1.04.5-1.27.67.77-.48,2.03-1.01,3.17-1.31,1.14-.32,2.15-.46,2.36-.54.29-.02.5-.04.63-.04.29-.03.31-.08.29-.05-.05,0-.13.11-.27.1-.12.02-.19.04,0,.01.06.01.13,0,.2-.04.04-.02.08-.04.12-.06-.05-.11.02-.11.03-.17.03-.06.06-.12.09-.19.02-.07,0-.21.01-.27,0-.15,0-.32,0-.52l.03.44c.22-6.35-.27-10.31-.02-17.34-.01.49-.02.73-.04.83.11-8.02-.1-16.52.06-24.43.03-2.25-.04-2.49-.1-3.86l.09-.49-.11-2.35c-.08-3.33.23-5.76.06-9.97l-.06.54c0-.76,0-1.95-.01-2.93,0-.51,0-.88-.01-1.26-.04-.16-.01-.31-.09-.34-.06-.03-.08-.05-.05-.04-.08-.03-.28-.02-.48-.03-.18,0-.41-.01-.7-.08l-.04-.06c-1.22-.13-2.42-.4-3.58-.82-1.31-.56-1.17-.6-1.2-.65-.01-.03-.06-.08-.33-.25-.26-.17-.77-.44-1.55-1.09-.58-.47-1.34-1.25-1.7-1.98-.08-.18-.16-.35-.23-.5-.05-.15-.09-.28-.12-.38-.07-.19-.09-.26-.07-.12.07.62.53,1.47.52,1.53-.24-.4-.46-.83-.57-1.29-.11-.11-.25-.43-.29-.29.01.1-.16.89.93,2.43.56.66,1.23,1.19,1.94,1.64.21.16.42.35.65.49-.61-.35-1.2-.76-1.73-1.24.87.86,1.59,1.19,2.35,1.55.17.11.47.31.93.5.77.28,1.58.46,2.38.61.28.12-1.1-.14.5.25,1.14.16-1.05-.32.82-.03.58.13.79.17,1.02.2.13.02.11.02.19.03.05-.01.05.03.05.08,0,.04,0,.07.02.28-.04.25-.06-.28-.08-.3,0,.04.01.05.02.15,0,.17,0,.35.01.54,0,.37.01.76.02,1.12.01.73.03,1.39.07,1.71-.08,1.22.03,4.12-.11,4,.03.38.11,2.15.12,3.27-.17-2.05,0,4.2-.18,3.66.15,1.52.07,5.48.16,8.17-.01-.15-.04-.45-.03-.68-.01,1.51-.06,1.95-.08,2.92.12.19.15,2.55.23,3.82-.12,1.85-.15-1.13-.26-.54.1-.09.1,3.22.18,2.59-.07,1.42-.04,1.22-.14,1.95.15.25.03,1.32.12,2.5-.08,2.05-.14.53-.1,2.78-.05,1.07-.1-.93-.1-.93ZM206.62,77.37h0c.46,0,.86,0,1.11,0-.23,0-.55,0-1.11,0ZM202.11,77.38c.55,0,1.23,0,1.95,0,.16.03-.01.06-.47.06.25-.02-.82-.04-1.49-.06ZM211.64,77.99c-.71.01-.95,0-1.05-.02.34,0,.73,0,1.25-.01.02,0,.06,0,.08-.01-.07.02-.15.03-.28.04Z"/>
              <path class="cls-3" d="M212.92,77.87c.1,0,.16,0,.29,0-.15,0-.28-.01-.43-.02-.09,0-.17.02-.25.03.13,0,.26,0,.38,0Z"/>
              <path class="cls-3" d="M133.29,3.14h-.1c.08,0,.15,0,.2.01-.06,0-.06,0-.1-.01Z"/>
              <polygon class="cls-3" points="139.9 77.21 139.91 77.23 140.3 77.21 139.9 77.21"/>
              <path class="cls-3" d="M158.1,3.45s.14.02.33.02c-.01,0-.15-.01-.33-.02Z"/>
              <path class="cls-3" d="M168.82,3.47l1.52.03c-.66-.01-1.13-.02-1.52-.03Z"/>
              <path class="cls-3" d="M177.06,3.52c.1-.02.13-.03.16-.04h-.02s-.15.04-.15.04Z"/>
              <path class="cls-3" d="M46.03,3.59c-.11,0-.22,0-.32,0-.75.02-.24.01.32,0Z"/>
              <path class="cls-3" d="M85.02,3.38c-.41.01-.82.03-1.25.04.69,0,1.23,0,1.25-.04Z"/>
              <path class="cls-3" d="M5.04,9.48h0c-.09.02-.18.03-.27.05l.27-.05Z"/>
              <path class="cls-3" d="M81.96,3.42c.69.02,1.27.01,1.81,0-.57,0-1.24-.02-1.81,0Z"/>
              <path class="cls-3" d="M212.78,3.57h.4s.02,0,.05-.01h-.44Z"/>
              <path class="cls-3" d="M213.22,3.56h.44c-.2-.01-.38,0-.44,0Z"/>
              <path class="cls-3" d="M214.59,3.53l-.93.02c.32,0,.72,0,.93-.02Z"/>
              <path class="cls-3" d="M201.87,3.53l-.12.03c.07,0,.11-.02.12-.03Z"/>
              <path class="cls-3" d="M198.55,3.54c.79,0,1.98.07,3.09.05l.1-.03c-.52.05-2.44-.08-3.19-.02Z"/>
              <path class="cls-3" d="M184.72,3.13l2.78.03c-.49-.03-1.12-.08.14-.09-3.5-.1.72.08-2.92.06Z"/>
              <path class="cls-3" d="M176.1,3.08c1.49-.02-.02-.05.06-.07-.95.03-1.18.04-.06.07Z"/>
              <path class="cls-3" d="M113.85,3.06l.15-.08c-1.15.01-.01.03-.15.08Z"/>
              <polygon class="cls-3" points="101.95 3.47 103.07 3.52 103.6 3.45 101.95 3.47"/>
              <polygon class="cls-3" points="94.92 2.89 95.43 2.88 93.51 2.91 94.92 2.89"/>
              <path class="cls-3" d="M2.09,18.94l.1-.35c-.02-.78-.13-.94-.1.35Z"/>
              <path class="cls-3" d="M2.19,64.07c-.05.49-.08,1.76-.03,2.54,0-1.01.04-2.03.03-2.54Z"/>
              <polygon class="cls-3" points="127.93 78 127.02 78.04 128.74 78.01 127.93 78"/>
            </g>
          </g>
        </g>
      </g>
    </g>
  </g>
</svg>