<svg width="64" height="94" viewBox="0 0 64 94" fill="none" xmlns="http://www.w3.org/2000/svg">
<path d="M12.3645 55.7026C12.6956 55.5973 12.9966 55.4092 13.1772 55.1082C13.9071 53.9343 13.9447 49.5549 13.9071 43.0158C13.9071 42.0601 13.8996 41.1195 13.8996 40.2166C13.8996 39.4415 13.8996 38.5987 13.9071 37.7183C13.9447 31.2093 13.9071 26.5063 13.1772 25.3249C12.9966 25.0164 12.6956 24.8358 12.372 24.7305H16.8493L25.2771 50.1794L32.8094 24.7305H37.3394C36.9932 24.8358 36.6922 25.024 36.5116 25.3325C35.7968 26.5364 35.7742 31.2018 35.8194 37.6656C35.8194 38.7116 35.8344 39.6973 35.8344 40.6154C35.8344 41.6463 35.8344 42.7374 35.8194 43.7833C35.8118 45.2431 35.7968 46.7481 35.8118 48.1402C35.4582 48.238 35.0894 48.2832 34.7207 48.2832H34.653C34.3069 48.2832 33.9607 48.2305 33.6296 48.1402C33.6447 46.6277 33.6296 44.9722 33.6296 43.377C33.6296 42.4364 33.6221 41.4958 33.6221 40.5853C33.6221 39.8177 33.6221 38.9825 33.6296 38.1096C33.6447 34.3622 33.6673 29.742 33.3888 27.2513C33.3663 27.0331 33.1857 26.86 32.9674 26.8374C32.7492 26.8224 32.5536 26.9578 32.4934 27.1685L24.788 53.3398L24.1032 54.8297L15.1788 27.9436C15.1111 27.7329 14.9004 27.6125 14.6897 27.6426C14.4715 27.6802 14.3134 27.8683 14.321 28.079L14.3962 40.3144C14.3962 41.3302 14.3962 42.4138 14.3812 43.4673C14.336 49.7279 14.3661 53.9192 15.081 55.1232C15.2616 55.4317 15.5625 55.6123 15.9087 55.7252H12.372L12.3645 55.7026Z" fill="#515B46"/>
<path d="M32.0419 55.665C32.373 55.5596 32.7041 55.3866 32.8998 55.0781C33.2158 54.5664 33.419 53.5129 33.5318 51.6919C34.0134 51.7897 34.5025 51.8424 34.9917 51.8424C35.3077 51.8424 35.6162 51.8198 35.9247 51.7822C36.0301 53.5054 36.2257 54.5588 36.5267 55.0705C36.7224 55.3866 37.061 55.5672 37.3996 55.6725H32.0419V55.665Z" fill="#515B46"/>
<path d="M41.7865 48.2079H41.764C41.4705 48.3509 41.1168 48.4938 40.7331 48.6443C40.3869 48.7798 40.0257 48.9077 39.6796 49.0206C38.9572 49.2614 38.2273 49.4646 37.5275 49.6226C36.7374 49.7956 36.0225 49.9085 35.3227 49.9537C34.5176 50.0063 33.7801 49.9687 33.1255 49.8483C32.3429 49.6978 31.6807 49.4119 31.154 49.0131C30.6047 48.5992 30.1607 48.0198 29.8823 47.3426C29.348 46.2891 29.7619 45.0249 31.1163 43.5651C31.3647 43.3017 31.6356 43.0384 31.929 42.775L31.9516 42.7524V42.0225L31.8387 42.1279C31.4173 42.4966 31.0561 42.8502 30.7326 43.219C30.4391 43.55 30.2058 43.8435 30.0102 44.1295C29.7619 44.4906 29.5813 44.8293 29.4458 45.1604C29.2803 45.5667 29.1975 45.9655 29.1975 46.3418C29.1975 46.5524 29.2201 46.7556 29.2728 46.9588C29.2878 47.0115 29.2953 47.0566 29.3179 47.1018L29.333 47.1469C29.333 47.1469 29.3555 47.2146 29.3706 47.2447L29.4082 47.3501C29.4308 47.4103 29.4534 47.4705 29.4835 47.5231C29.649 47.8919 29.8446 48.238 30.0854 48.539C30.3262 48.8475 30.6122 49.1259 30.9357 49.3592C31.2367 49.5774 31.5829 49.7655 31.9666 49.916C32.3128 50.0515 32.689 50.1493 33.0878 50.2246C33.5168 50.2998 33.9532 50.3299 34.4273 50.3299C34.7282 50.3299 35.0443 50.3149 35.3754 50.2848C36.0902 50.217 36.8277 50.0966 37.6103 49.901C38.3176 49.7279 39.0475 49.5022 39.7774 49.2388C40.1235 49.1109 40.4772 48.9754 40.8309 48.8325C41.2673 48.6519 41.5758 48.5089 41.8693 48.3584L42.2305 48.1703L41.8166 48.2305L41.7865 48.2079Z" fill="#515B46"/>
<path d="M19.6561 74.2964C19.3325 74.2964 19.0164 74.2588 18.723 74.1911C18.5424 74.1535 18.3543 74.0857 18.1285 73.9954C18.0307 73.9503 17.9404 73.9051 17.8501 73.8525C17.8275 73.8374 17.7974 73.8224 17.7749 73.8073C17.7071 73.7697 17.6469 73.7321 17.5943 73.6869L17.4513 73.5816C17.4513 73.5816 17.3986 73.5364 17.376 73.5214L17.3309 73.4838C17.2556 73.4236 17.1879 73.3558 17.1202 73.2881L17.0525 73.2204L16.8945 73.0398C16.8568 72.9871 16.8117 72.9344 16.7741 72.8818C16.7515 72.8517 16.7364 72.8291 16.7139 72.799C16.4655 72.4453 16.2849 72.0691 16.1796 71.6853C16.1194 71.4521 16.0893 71.2489 16.0893 71.0608C16.0893 70.8275 16.0968 70.6168 16.1344 70.4287C16.2022 70.0524 16.3376 69.6762 16.5634 69.2699C16.7364 68.9538 16.9622 68.6453 17.2556 68.3067C17.4964 68.0283 17.7673 67.7649 18.0758 67.479C18.5875 67.0199 19.1745 66.5835 19.9044 66.0944C21.0331 65.357 22.2973 64.6571 23.8775 63.9047C25.1642 63.2952 26.5187 62.7082 28.0237 62.1138C30.5445 61.128 33.3362 60.1573 36.5493 59.164C37.1362 58.9834 37.7532 58.7953 38.3928 58.6072L38.4982 58.5771L38.6186 58.4341C40.5449 56.1993 42.4487 53.8515 44.2773 51.4586C46.2111 48.9303 47.9117 46.5374 49.4844 44.152C50.41 42.7449 51.1775 41.4958 51.8322 40.3369C52.2385 39.6221 52.5771 38.975 52.8631 38.3654C53.0361 37.9967 53.1866 37.6656 53.307 37.3571C53.4575 36.9734 53.5704 36.6423 53.6457 36.3337C53.6908 36.1381 53.7209 35.9725 53.7284 35.8371V35.7092V35.6866C53.7284 35.6866 53.7284 35.6339 53.7284 35.6114V35.5813C53.7284 35.5587 53.7284 35.5361 53.7134 35.506C53.7134 35.4759 53.6983 35.4458 53.6908 35.4082C53.6457 35.2803 53.5855 35.1749 53.4876 35.0696C53.3973 34.9717 53.2769 34.889 53.1189 34.8137C52.8104 34.6632 52.4191 34.588 52.1482 34.5579C51.9149 34.5278 51.6516 34.5203 51.3807 34.5203C51.2829 34.5203 51.1775 34.5203 51.0797 34.5203C50.4326 34.5428 49.7177 34.6256 48.8975 34.7761C48.2203 34.904 47.5129 35.062 46.7303 35.2803C45.3759 35.649 43.9838 36.1155 42.4939 36.6949C41.1168 37.2292 39.7398 37.8462 38.4004 38.5084C38.122 38.6439 37.8511 38.7868 37.5726 38.9298C37.5726 38.7266 37.5726 38.5385 37.5726 38.3579C37.7683 38.2526 37.9639 38.1472 38.1596 38.0494C39.4689 37.3722 40.8535 36.7401 42.2757 36.1682C43.7806 35.5662 45.1878 35.0771 46.5573 34.6933C47.3549 34.4676 48.0773 34.2945 48.7696 34.1591C49.6349 33.9935 50.3573 33.8957 51.0496 33.8656C51.1926 33.8656 51.328 33.8581 51.4635 33.8581C51.7343 33.8581 51.9827 33.8731 52.2235 33.8957C52.5696 33.9409 52.991 34.0086 53.4199 34.2117C53.6381 34.3171 53.8187 34.445 53.9692 34.5955C54.0445 34.6708 54.1197 34.7611 54.1874 34.8739C54.2552 34.9943 54.3078 35.0997 54.3379 35.1975V35.2125C54.3605 35.2577 54.3756 35.3104 54.3906 35.3781C54.3906 35.4157 54.4057 35.4684 54.4057 35.5135V35.5587C54.4132 35.6038 54.4132 35.649 54.4207 35.6866V35.7318C54.4207 35.7769 54.4207 35.8145 54.4207 35.8522V35.8898C54.3981 36.123 54.3605 36.3262 54.3154 36.4993C54.2326 36.8379 54.1197 37.184 53.9542 37.613C53.8262 37.9441 53.6757 38.2902 53.4952 38.6664C53.2017 39.291 52.8631 39.9532 52.4492 40.6906C51.787 41.8871 51.0421 43.1136 50.1015 44.5584C49.3415 45.7322 48.5062 46.9588 47.5581 48.2907C46.7153 49.4796 45.8123 50.7061 44.8792 51.9252C43.5097 53.7236 42.0951 55.507 40.6653 57.2151L39.8752 58.1632L41.0642 57.8321C42.4262 57.4484 43.8182 57.0721 45.2028 56.7185C46.6777 56.3347 48.145 55.9735 49.5747 55.6349C51.2603 55.2361 52.6599 54.92 53.9692 54.6416H53.9918L53.9692 54.6491C52.675 54.9577 51.2904 55.3113 49.6048 55.7553C48.1149 56.1466 46.6551 56.5454 45.263 56.9367C43.2238 57.5086 41.3652 58.0579 39.5742 58.6147L39.4689 58.6448L39.2055 58.9533C37.076 61.4215 35.0594 63.5811 33.0578 65.5676C32.0645 66.5459 31.2518 67.2984 30.6573 67.8401L30.5068 67.9756C29.4383 68.9613 28.9041 69.4505 28.2795 69.9546C27.0078 70.978 25.8941 71.7004 25.2921 72.0917C24.7955 72.4077 24.502 72.5883 24.2838 72.7162C23.5238 73.1527 22.8692 73.4762 22.2145 73.7321C21.3642 74.0632 20.6418 74.2438 19.927 74.2889C19.8291 74.2889 19.7388 74.2964 19.641 74.2964H19.6561ZM36.7299 59.5177L36.6697 59.5327C33.4039 60.6013 30.7175 61.572 28.2193 62.5953C26.6391 63.2425 25.3373 63.8219 24.1258 64.4164C22.5757 65.1764 21.3416 65.8686 20.243 66.6061C19.5432 67.0726 18.9788 67.5166 18.4972 67.953C18.2038 68.2164 17.963 68.4722 17.7372 68.7281C17.4739 69.0366 17.2782 69.3225 17.1277 69.5934C16.9396 69.9396 16.8267 70.2481 16.7816 70.5416C16.7214 70.8501 16.7364 71.1661 16.8192 71.4972C16.9095 71.8132 17.0525 72.1142 17.2632 72.4002L17.2782 72.4152C17.2782 72.4152 17.3083 72.4604 17.3309 72.483C17.361 72.5281 17.3986 72.5733 17.4287 72.6109L17.5491 72.7463L17.6319 72.8216C17.677 72.8667 17.7297 72.9194 17.7899 72.9645L17.8125 72.9871C17.8125 72.9871 17.8501 73.0172 17.8652 73.0323L17.8802 73.0473L17.963 73.1075C18.2263 73.2956 18.5349 73.4311 18.8735 73.5063C19.1067 73.559 19.3626 73.5891 19.626 73.5891C19.7163 73.5891 19.8066 73.5891 19.8893 73.5816C20.5064 73.5364 21.2062 73.3634 21.9587 73.0624C22.2145 72.957 22.4779 72.8441 22.7563 72.7087H22.7638L22.7713 72.7012C23.8624 72.0841 24.9385 71.4069 25.9619 70.6921C26.9175 70.0148 27.8581 69.2924 28.746 68.5324C28.9191 68.3895 29.0847 68.239 29.2577 68.0885C30.3187 67.1629 31.3872 66.1546 32.5235 65.0259C34.036 63.5209 35.5409 61.9256 37.1287 60.1423L38.1069 59.0436L36.7223 59.5252L36.7299 59.5177Z" fill="#515B46"/>
</svg>
