<?xml version="1.0" encoding="UTF-8"?>
<svg id="Layer_2" data-name="Layer 2" xmlns="http://www.w3.org/2000/svg" viewBox="0 0 234.84 79.81">
  <defs>
    <style>
      .cls-1 {
        fill: #fdf6ee;
      }

      .cls-2 {
        fill: #515b46;
      }
    </style>
  </defs>
  <g id="Layer_1-2" data-name="Layer 1">
    <g>
      <path class="cls-2" d="M0,73.31V6.5c5.68,0,10.29-2.91,10.29-6.5h214.26c0,3.59,4.61,6.5,10.29,6.5v66.82c-5.68,0-10.29,2.91-10.29,6.5H10.29c0-3.59-4.61-6.5-10.29-6.5Z"/>
      <g>
        <path class="cls-1" d="M106.74,34.34c.06-.14.16-.25.3-.32.14-.08.48-.12,1.01-.12.12,0,.3,0,.54-.01.24,0,.49-.01.77-.02.28,0,.55-.02.83-.03.28-.02.51-.03.71-.05.03.08.05.15.05.23v.18c0,.25-.08.39-.25.44-.31.05-.55.09-.72.14-.18.05-.31.1-.4.17-.09.07-.15.15-.18.24s-.05.2-.05.32c0,.03.01.32.03.87s.06,1.23.1,2.05.09,1.69.14,2.64c.05.95.09,1.85.14,2.7.05.85.08,1.59.12,2.22.03.63.05,1.01.07,1.15,0,.15.02.28.06.38.04.1.11.19.21.26.1.08.24.14.43.2s.42.1.71.15c.17.03.25.18.25.44,0,.11-.02.24-.05.39-.54-.03-1.02-.06-1.46-.08-.44-.02-.93-.03-1.48-.03-.51,0-1.05.01-1.62.03-.57.02-1.05.05-1.44.08-.03-.15-.05-.28-.05-.39,0-.17.03-.28.08-.34.05-.06.1-.09.15-.09.63-.11,1.04-.23,1.22-.38.18-.15.28-.37.28-.68,0-.05-.01-.29-.03-.74s-.05-1-.07-1.66-.05-1.37-.09-2.14-.08-1.49-.11-2.16c-.04-.67-.07-1.26-.09-1.75-.02-.49-.04-.79-.06-.9l-4.72,10.97c-.08.14-.14.24-.2.31-.05.07-.13.1-.22.1h-.14c-.06,0-.11,0-.14-.02l-5.34-12.79c-.02.2-.03.6-.06,1.21s-.05,1.3-.09,2.08c-.04.78-.08,1.61-.12,2.47s-.07,1.67-.1,2.4-.06,1.35-.08,1.85c-.02.5-.03.77-.03.82,0,.14.02.26.05.36.03.1.09.19.18.26.09.08.23.14.41.2s.44.11.76.17c.17.03.25.18.25.44,0,.05,0,.1-.01.17,0,.07-.02.14-.03.22-.41-.03-.8-.06-1.15-.08-.35-.02-.71-.03-1.06-.03-.31,0-.69.01-1.15.03-.46.02-.87.05-1.24.08-.03-.06-.05-.13-.05-.21v-.18c0-.17.02-.28.07-.33.05-.05.11-.09.18-.1.48-.11.82-.23,1.04-.37.21-.14.34-.34.37-.62,0-.12.02-.49.05-1.12.03-.62.07-1.36.11-2.21.05-.85.09-1.76.14-2.71s.09-1.85.13-2.67c.04-.82.07-1.51.09-2.06.02-.55.03-.84.03-.87,0-.26-.08-.45-.25-.56-.17-.12-.54-.22-1.1-.31-.17-.02-.25-.16-.25-.44v-.18c0-.08.02-.15.05-.23.2.02.48.03.83.05.35.01.71.03,1.08.03.37,0,.71.02,1.03.02.32,0,.55.01.69.01.28,0,.49.01.64.04.15.02.28.05.37.08.09.03.16.08.2.14.04.06.07.12.1.18l4.28,10.33,4.37-10.33Z"/>
        <path class="cls-1" d="M120.84,46.74c.14-.11.26-.16.37-.16.08,0,.16.04.26.1.1.07.2.2.31.4-.6.71-1.28,1.22-2.06,1.55-.77.33-1.69.5-2.75.5-.6,0-1.18-.1-1.76-.29s-1.09-.49-1.55-.9c-.46-.41-.83-.92-1.12-1.53-.28-.61-.43-1.35-.43-2.21s.16-1.61.49-2.29c.33-.68.75-1.26,1.25-1.74.51-.48,1.06-.84,1.66-1.09s1.17-.38,1.73-.38c1.49,0,2.61.43,3.37,1.29.76.86,1.14,2.03,1.14,3.52,0,.11-.05.16-.16.16l-6.58.28c0,1.2.27,2.11.8,2.75.54.64,1.34.95,2.41.95.47,0,.94-.08,1.4-.23s.86-.38,1.22-.69ZM116.92,39.73c-.59,0-1.07.26-1.43.77-.36.51-.54,1.32-.54,2.43l3.57-.16c.23-.02.34-.12.34-.3,0-.29-.04-.6-.11-.92-.08-.32-.19-.62-.35-.88s-.36-.49-.61-.67c-.24-.18-.53-.26-.87-.26Z"/>
        <path class="cls-1" d="M133.01,47.45c0,.21.09.38.28.5.18.11.52.21,1.01.29.06.02.12.04.17.08.05.04.08.11.08.22,0,.09,0,.17-.01.24,0,.07-.02.13-.03.2-.4-.03-.8-.06-1.2-.08-.4-.02-.9-.03-1.5-.03-.49,0-.95.01-1.38.03-.43.02-.84.05-1.24.08-.03-.08-.05-.22-.05-.44,0-.17.08-.27.25-.3.4-.08.67-.17.81-.28.14-.11.21-.28.21-.51v-4.51c0-.9-.11-1.53-.33-1.87-.22-.35-.58-.52-1.07-.52-.69,0-1.28.23-1.77.7s-.74,1.16-.74,2.08v4.12c0,.23.07.4.21.51.14.11.41.2.81.28.17.03.25.13.25.3,0,.21-.02.36-.05.44-.4-.03-.81-.06-1.24-.08-.43-.02-.89-.03-1.38-.03-.6,0-1.1.01-1.51.03-.41.02-.8.05-1.18.08-.02-.06-.03-.13-.03-.2,0-.07-.01-.15-.01-.24,0-.11.03-.18.08-.22s.11-.07.17-.08c.49-.09.83-.19,1.01-.3s.28-.28.28-.51v-6.07c0-.46-.08-.81-.25-1.06-.17-.25-.52-.39-1.06-.44-.2-.05-.3-.17-.3-.37v-.17c0-.07.02-.13.05-.2.09,0,.23,0,.4-.01.18,0,.36-.02.56-.02.2,0,.4-.02.6-.03s.38-.03.55-.05c.38-.05.75-.11,1.1-.18.35-.08.59-.11.71-.11.25,0,.37.11.37.34,0,.17-.02.39-.07.67-.05.28-.07.66-.07,1.15.49-.64,1.04-1.17,1.63-1.56.6-.4,1.22-.6,1.86-.6.94,0,1.67.26,2.21.78.54.52.8,1.3.8,2.35v5.61Z"/>
        <path class="cls-1" d="M141.47,41.8c-.21-.02-.34-.1-.37-.25-.11-.63-.35-1.09-.74-1.38-.38-.29-.87-.44-1.45-.44-.52,0-.92.13-1.2.39s-.41.57-.41.92c0,.17.02.32.07.46.05.14.14.27.29.39.15.12.35.24.61.36s.61.24,1.06.38c.52.15.98.32,1.38.5.4.18.74.39,1.01.63.28.25.49.54.63.89s.22.76.22,1.23c0,.45-.07.87-.22,1.27-.15.4-.38.75-.7,1.05-.32.3-.73.53-1.22.7-.49.17-1.08.25-1.77.25-.49,0-1.05-.05-1.69-.16-.64-.11-1.22-.3-1.74-.58-.03-.4-.06-.82-.08-1.28s-.03-.9-.03-1.35h.3c.17,0,.31.03.44.08.12.05.19.14.21.26.06.64.31,1.14.76,1.48.44.35,1.06.52,1.84.52.54,0,.97-.12,1.31-.37.34-.25.51-.57.51-.97,0-.37-.15-.68-.45-.94s-.86-.51-1.69-.76c-1.12-.32-1.91-.75-2.36-1.28-.45-.53-.68-1.16-.68-1.9,0-.97.33-1.74.98-2.32.65-.58,1.5-.87,2.54-.87.6,0,1.18.07,1.74.22.56.15,1.01.3,1.35.47.02.12.03.29.05.49.02.21.03.43.05.67.02.24.03.47.03.69,0,.22.01.41.01.56l-.57-.02Z"/>
      </g>
    </g>
  </g>
</svg>