<svg width="1034" height="471" viewBox="0 0 1034 471" fill="none" xmlns="http://www.w3.org/2000/svg">
<g clip-path="url(#clip0_1_5845)">
<path d="M719.972 401.775C716.928 407.985 712.596 413.369 706.97 417.935C701.351 422.501 694.437 426.193 686.235 429.002C678.034 431.812 668.666 433.455 658.125 433.925C653.907 433.925 649.746 433.455 645.649 432.516C641.552 431.585 637.504 430.354 633.529 428.824C629.545 427.302 625.627 425.545 621.757 423.554C617.895 421.57 614.082 419.748 610.341 418.105C610.106 418.105 609.815 417.927 609.459 417.579C609.111 417.23 608.754 416.939 608.406 416.704C608.058 416.477 607.759 416.356 607.524 416.356C607.289 416.356 607.176 416.477 607.176 416.704C606.706 417.878 606.649 419.109 606.998 420.396C607.346 421.683 607.993 422.566 608.933 423.035C612.916 424.679 616.891 426.371 620.883 428.128C624.866 429.885 628.841 431.528 632.833 433.05C636.816 434.581 640.856 435.86 644.953 436.912C649.049 437.965 653.211 438.491 657.429 438.491C663.048 438.726 668.375 438.434 673.419 437.617C678.455 436.799 683.312 435.568 688 433.925C692.68 432.289 697.011 430.298 701.003 427.95C704.986 425.61 708.613 423.027 711.892 420.218C715.171 417.409 718.159 414.308 720.855 410.907C723.543 407.515 725.777 404.001 727.534 400.366C729.291 396.739 730.578 392.99 731.396 389.12C732.214 385.258 732.505 381.218 732.278 377C732.278 371.851 731.631 367.05 730.343 362.597C729.898 361.059 729.396 359.569 728.854 358.12C727.615 357.788 726.384 357.448 725.162 357.108C722.895 356.476 720.895 355.926 719.065 355.367C717.406 354.857 716.086 356.816 717.187 358.16C718.021 359.181 718.847 360.306 719.632 361.545C722.482 366.006 723.591 369.916 723.85 370.855C724.781 374.256 725.137 377.939 724.903 381.923C724.668 388.95 723.024 395.573 719.98 401.775H719.972Z" fill="#515B46"/>
<path d="M777.844 397.192C783.463 391.104 789.146 384.837 794.886 378.393C800.627 371.956 806.424 365.455 812.277 358.889C818.131 352.331 823.984 345.716 829.846 339.037C835.699 332.358 841.553 325.686 847.415 319.007C853.268 312.328 859.243 305.835 865.332 299.503C871.42 293.18 877.63 286.978 883.953 280.882C890.276 274.794 896.656 268.932 903.1 263.313C909.537 257.694 916.103 252.367 922.774 247.323C928.887 242.716 935.04 238.45 941.25 234.531C942.238 233.924 943.727 233.009 945.557 231.916C949.046 229.827 951.265 228.572 954.082 226.953C956.179 225.739 959.191 223.982 962.867 221.78C963.15 221.456 963.425 221.124 963.709 220.8C963.935 220.573 963.935 220.096 963.709 219.391C963.628 219.148 963.523 218.922 963.393 218.695C962.826 217.902 961.531 216.339 959.572 216.056C959.24 216.007 958.916 215.999 958.6 216.031C945.759 215.683 886.73 214.218 842.176 216.533C832.882 217.019 818.851 217.934 801.25 221.31C788.733 223.707 777.318 226.735 766.995 230.386C756.672 234.037 747.41 238.126 739.217 242.668C731.015 247.202 723.899 252.068 717.859 257.257C711.819 262.447 706.767 267.718 702.711 273.069C698.655 278.421 695.611 283.732 693.578 289.002C691.546 294.281 690.437 299.269 690.259 303.972C690.04 308.911 690.364 313.801 691.231 318.651C692.089 323.5 693.838 327.945 696.477 331.969C697.327 333.273 700.808 338.389 707.399 342.713C711.941 345.684 715.948 346.834 723.794 349.012C731.582 351.173 739.071 353.254 749.086 353.408C756.478 353.521 762.502 352.55 764.76 352.145C767.448 351.667 769.448 351.173 769.91 351.052C774.824 349.732 779.682 347.919 784.499 345.627C789.308 343.344 794.085 340.875 798.829 338.219C803.574 335.572 808.245 333.03 812.836 330.593C813.33 330.431 813.67 330.123 813.848 329.67C814.026 329.225 814.099 328.698 814.066 328.107C814.026 327.516 813.929 326.966 813.759 326.472C813.589 325.978 813.289 325.581 812.86 325.282C811.994 324.691 810.949 324.545 809.727 324.844C808.496 325.152 807.492 325.597 806.699 326.197C802.983 329.006 789.381 337.054 785.155 339.523C776.354 344.672 768.08 346.202 763.174 347.06C755.053 348.485 748.689 348.186 744.965 347.983C738.853 347.66 734.116 347.368 728.303 345.061C725.793 344.065 721.591 342.365 717.373 338.43C712.945 334.293 710.896 329.953 710.378 328.763C708.856 325.241 707.949 321.565 707.65 317.744C707.35 313.923 707.464 310.15 707.982 306.442C708.913 298.054 711.155 290.387 714.726 283.432C718.288 276.478 722.887 270.203 728.522 264.601C734.149 258.998 740.577 253.986 747.823 249.55C755.061 245.121 762.817 241.227 771.084 237.883C779.35 234.539 787.843 231.697 796.57 229.366C805.29 227.034 814.066 225.115 822.907 223.626C831.74 222.136 840.347 221.083 848.71 220.476C856.636 219.893 864.085 219.626 871.08 219.667C897.466 220.071 923.851 220.476 950.237 220.881C948.245 222.249 946.099 223.731 943.816 225.334C941.768 226.702 938.902 228.613 935.566 231.009C928.069 236.401 920.685 242.077 913.431 248.052C906.169 254.027 898.963 260.293 891.822 266.851C884.673 273.409 877.711 280.089 870.918 286.881C864.125 293.674 857.389 300.588 850.718 307.608C844.039 314.635 837.481 321.719 831.044 328.868C824.6 336.017 818.22 343.101 811.897 350.129C805.573 357.156 799.299 364.006 793.097 370.685C786.887 377.365 780.742 383.923 774.654 390.359C768.558 396.804 762.534 402.957 756.559 408.802C750.584 414.664 744.617 420.169 738.642 425.318C732.667 430.476 726.749 435.22 720.895 439.552C715.033 443.891 709.18 447.753 703.326 451.145C697.465 454.546 691.611 457.412 685.758 459.752C679.896 462.1 674.099 463.792 668.367 464.844C662.627 465.897 656.708 466.196 650.62 465.719C646.637 465.492 642.362 464.958 637.796 464.14C633.229 463.322 628.712 462.156 624.267 460.626C619.814 459.104 615.426 457.347 611.094 455.355C606.755 453.372 602.666 451.024 598.796 448.328C594.934 445.64 591.356 442.709 588.077 439.544C584.79 436.378 582.045 432.816 579.819 428.824C577.592 424.841 575.957 420.566 574.896 416C573.844 411.433 573.431 406.576 573.665 401.418C574.37 392.286 576.831 383.623 581.041 375.422C585.259 367.228 591.17 360.079 598.788 353.991C606.398 347.902 615.531 343.045 626.194 339.41C636.848 335.782 648.855 333.961 662.206 333.961C665.485 333.734 668.82 333.847 672.221 334.309C675.613 334.779 679.013 335.426 682.414 336.244C685.806 337.07 689.207 338.122 692.607 339.41C692.631 339.418 692.656 339.426 692.688 339.442C694.17 340.009 695.465 338.276 694.485 337.029C693.716 336.05 693.109 335.183 692.656 334.487C689.976 330.39 688.105 325.865 687.053 321.023C686.106 320.756 685.142 320.497 684.179 320.262C680.317 319.331 676.39 318.627 672.407 318.157C668.424 317.687 664.675 317.453 661.161 317.453C653.899 317.453 647.106 318.044 640.783 319.209C634.46 320.383 628.485 322.019 622.866 324.132C617.247 326.237 611.977 328.82 607.054 331.864C602.132 334.908 597.679 338.308 593.704 342.057C589.72 345.806 586.15 349.789 582.984 354.007C579.819 358.225 577.123 362.735 574.904 367.536C572.678 372.337 570.864 377.259 569.455 382.295C568.047 387.331 567.229 392.31 566.994 397.225C566.759 401.912 567.051 406.535 567.877 411.102C568.694 415.668 570.038 420.121 571.917 424.452C573.787 428.792 576.135 432.945 578.944 436.928C581.754 440.912 585.033 444.604 588.781 447.996C592.522 451.396 596.683 454.497 601.257 457.307C605.824 460.116 610.746 462.577 616.017 464.682C621.287 466.787 626.906 468.317 632.881 469.249C638.856 470.18 645.001 470.771 651.324 471.005C657.882 471.005 664.384 470.479 670.828 469.427C677.265 468.374 683.531 466.674 689.628 464.334C695.716 461.994 701.804 459.12 707.901 455.728C713.989 452.336 719.964 448.522 725.818 444.312C731.671 440.094 737.468 435.471 743.208 430.435C748.949 425.399 754.745 420.129 760.599 414.623C766.453 409.126 772.193 403.321 777.812 397.233L777.844 397.192Z" fill="#515B46"/>
<path d="M830.987 369.131C817.685 369.131 807.597 381.486 807.597 409.118C807.597 436.75 817.783 450.708 830.987 450.708C844.192 450.708 854.475 436.75 854.475 409.118C854.475 381.486 844.192 369.131 830.987 369.131ZM830.987 448.547C819.669 448.547 814.674 430.63 814.674 409.126C814.674 387.622 819.669 371.211 830.987 371.211C842.306 371.211 847.398 387.72 847.398 409.126C847.398 430.532 842.306 448.547 830.987 448.547Z" fill="#515B46"/>
<path d="M943.986 371.211V369.892H930.968V371.211C932.101 371.309 933.89 371.495 934.554 372.628C936.538 376.021 936.157 396.585 936.157 409.604V432.144L910.598 369.892H898.146V371.211C899.279 371.309 901.068 371.495 901.732 372.628C903.805 376.021 903.335 396.585 903.335 409.604C903.335 424.225 903.805 443.179 901.732 446.579C901.287 447.34 900.332 447.672 899.401 447.842C898.324 447.729 897.206 447.429 896.729 446.676C894.373 443.373 891.45 429.982 890.503 425.642L877.962 369.9H873.719L861.178 425.642C860.239 429.982 857.308 443.373 854.952 446.676C854.199 447.713 852.402 447.899 851.082 447.899V449.316H864.19L864.287 447.899C863.065 447.899 861.178 447.713 860.984 446.676C860.037 443.373 863.34 429.982 864.287 425.642C864.668 423.853 865.234 421.4 865.89 418.477H882.488C883.151 421.303 883.621 423.853 884.091 425.642C885.03 429.982 888.244 443.373 887.394 446.676C887.111 447.713 885.41 447.899 884.188 447.899L884.091 449.316H911.156V447.996C910.023 447.899 908.233 447.713 907.57 446.579C905.4 442.993 906.064 424.412 906.064 409.798L905.878 376.506L936.149 449.316H938.789V409.798C938.789 396.31 938.222 376.223 940.392 372.636C941.056 371.503 942.845 371.317 943.978 371.22L943.986 371.211ZM866.457 416.105C868.627 406.576 871.647 393.565 874.189 383.283C876.828 393.379 879.751 406.487 881.921 416.105H866.449H866.457Z" fill="#515B46"/>
<path d="M981.901 372.62C983.885 376.013 983.504 396.577 983.504 409.596V432.135L957.944 369.884H945.492V371.203C946.626 371.301 948.415 371.487 949.079 372.62C951.151 376.013 950.682 396.577 950.682 409.596C950.682 424.217 951.151 443.171 949.079 446.571C948.415 447.705 946.626 447.891 945.492 447.988V449.308H958.511V447.988C957.377 447.891 955.588 447.705 954.924 446.571C952.755 442.984 953.418 424.404 953.418 409.79L953.232 376.498L983.504 449.308H986.143V409.79C986.143 396.302 985.577 376.215 987.746 372.628C988.41 371.495 990.199 371.309 991.333 371.211V369.892H978.314V371.211C979.448 371.309 981.237 371.495 981.901 372.628V372.62Z" fill="#515B46"/>
<path d="M1032.07 449.397C1032.07 444.304 1033.39 436.856 1033.49 432.419L1032.17 431.666C1031.6 433.649 1029.43 444.49 1027.83 445.624C1026.04 446.571 1015.76 446.571 1008.03 446.757C1006.33 446.757 1005.29 445.907 1005.1 444.401C1004.25 438.459 1003.6 423.553 1003.6 409.126C1010.76 409.312 1016.8 409.507 1018.79 410.446C1021.14 411.668 1021.61 421.481 1022.18 423.367L1023.5 423.181C1023.31 414.316 1023.31 401.394 1023.5 392.529L1022.18 392.343C1021.61 394.229 1021.14 404.131 1018.79 405.264C1016.8 406.3 1010.77 406.398 1003.6 406.584C1003.7 393.193 1004.26 380.271 1005.1 374.798C1005.29 373.292 1006.33 372.442 1007.93 372.442C1015.38 372.628 1024.06 372.628 1025.85 373.576C1027.55 374.709 1028.67 382.441 1029.34 384.327L1030.56 383.663C1030.46 379.227 1030.18 374.895 1030.18 369.892H992.92V371.211C994.053 371.309 995.843 371.398 996.506 372.531C998.49 375.923 998.11 394.982 998.11 409.507C998.11 424.031 998.49 443.276 996.506 446.668C995.843 447.802 994.053 447.891 992.92 447.891V449.308H1004.05L1032.07 449.405L1032.07 449.397Z" fill="#515B46"/>
<path d="M459.072 176.878C460.205 176.975 461.994 177.161 462.658 178.295C464.261 181.031 464.448 194.423 464.359 206.405V215.27C464.359 225.553 464.456 234.887 462.569 241.866C460.683 248.942 456.254 253.371 448.328 253.371C432.298 253.371 433.99 229.884 433.99 215.457C433.99 201.968 433.326 181.882 435.496 178.295C436.159 177.161 437.852 176.975 438.985 176.878V175.558H422.477V176.878C423.61 176.975 425.4 177.161 426.152 178.295C427.553 180.699 427.731 191.71 427.707 202.559C427.124 202.43 426.63 202.494 426.225 202.802C425.756 203.15 425.343 203.563 424.995 204.033C424.647 204.502 424.234 205.085 423.764 205.79C423.294 206.494 422.825 206.964 422.355 207.198C418.842 211.182 415.206 215.343 411.466 219.675C407.717 224.014 403.791 228.054 399.694 231.795C395.589 235.543 391.258 238.709 386.692 241.283C382.125 243.866 377.259 245.502 372.11 246.206C370.936 246.441 369.649 246.327 368.248 245.858C366.84 245.388 365.496 244.749 364.208 243.923C362.921 243.105 361.925 242.109 361.221 240.935C360.516 239.769 360.282 238.596 360.516 237.422C362.152 228.524 364.613 219.327 367.892 209.838C371.171 200.349 375.033 190.69 379.486 180.853C383.931 171.016 388.91 161.001 394.415 150.808C399.913 140.615 405.661 130.43 411.628 120.237C417.603 110.044 423.805 99.8587 430.249 89.6656C436.686 79.4725 443.017 69.5222 449.227 59.7987C455.428 50.0832 461.46 40.6511 467.322 31.5105C473.175 22.378 478.681 13.5936 483.838 5.15731C484.065 4.68773 484.065 4.22625 483.838 3.74857C483.603 3.27899 483.19 2.81751 482.607 2.33983C482.025 1.87025 481.49 1.57879 481.029 1.46544C480.559 1.35209 480.09 1.40877 479.62 1.64356C469.548 9.37544 459.825 17.5769 450.457 26.2399C441.082 34.9109 431.893 43.8653 422.874 53.1193C413.854 62.3733 405.005 71.862 396.342 81.5775C387.671 91.3011 379.065 101.138 370.515 111.088C361.958 121.047 353.473 131.118 345.045 141.303C336.616 151.496 328.115 161.568 319.574 171.518C311.016 181.477 302.41 191.37 293.747 201.207C285.076 211.044 276.178 220.654 267.046 230.022C266.811 230.256 266.398 230.256 265.815 230.022C265.224 229.795 264.698 229.317 264.236 228.613C263.767 227.909 263.41 227.156 263.184 226.33C262.949 225.512 262.949 224.872 263.184 224.395C266.698 214.793 270.916 204.778 275.83 194.35C280.753 183.93 286.023 173.502 291.642 163.082C297.261 152.662 303.236 142.178 309.559 131.636C315.882 121.095 322.262 110.853 328.706 100.895C335.143 90.9448 341.644 81.3427 348.21 72.0806C354.768 62.8267 361.035 54.107 367.01 45.9056C372.985 37.7122 378.66 30.2151 384.052 23.4224C384.068 23.3981 384.093 23.3738 384.109 23.3495C384.206 23.22 384.263 23.0904 384.319 22.9609C388.465 16.9049 392.602 10.849 396.747 4.80108C396.974 4.57439 396.974 4.09671 396.747 3.39234C396.666 3.14945 396.561 2.92276 396.431 2.69606C395.865 1.90263 394.569 0.340065 392.618 0.0566978C392.286 0.00812053 391.962 2.4315e-05 391.646 0.0324092C391.201 0.024313 390.691 0.00812053 390.132 -0.0080719C388.206 1.22255 386.352 2.54224 384.611 3.93479C384.165 4.29102 383.696 4.59868 383.21 4.85775C383.243 4.85775 383.275 4.85775 383.299 4.85775C381.308 6.22601 379.162 7.70762 376.879 9.31067C374.831 10.6789 371.965 12.5896 368.629 14.9861C361.132 20.3782 353.748 26.0536 346.494 32.0287C339.232 38.0037 332.026 44.2701 324.885 50.8281C317.736 57.386 310.773 64.0654 303.981 70.8581C297.188 77.6508 290.452 84.565 283.781 91.5844C277.101 98.6119 270.543 105.696 264.107 112.845C257.662 119.994 251.282 127.078 244.959 134.106C238.636 141.133 232.361 147.983 226.16 154.662C219.95 161.341 213.805 167.899 207.717 174.336C201.62 180.78 195.597 186.934 189.622 192.779C183.647 198.641 177.68 204.146 171.705 209.295C165.73 214.453 159.811 219.197 153.958 223.528C148.104 227.868 142.243 231.73 136.389 235.122C130.535 238.523 124.674 241.389 118.82 243.729C112.959 246.076 107.162 247.769 101.429 248.821C95.6893 249.874 89.7709 250.173 83.6826 249.695C79.6993 249.469 75.4244 248.934 70.8582 248.117C66.2919 247.299 61.7742 246.133 57.3294 244.603C52.8765 243.081 48.4883 241.324 44.1569 239.332C39.8173 237.349 35.7287 235.001 31.8587 232.305C27.9968 229.617 24.4183 226.686 21.1393 223.52C17.8523 220.355 15.1076 216.792 12.8812 212.801C10.6547 208.818 9.0193 204.543 7.95869 199.977C6.90618 195.41 6.49328 190.553 6.72807 185.395C7.43244 176.263 9.89369 167.6 14.1037 159.398C18.3218 151.205 24.2321 144.056 31.8506 137.968C39.4611 131.879 48.5936 127.022 59.2563 123.386C69.9109 119.759 81.9176 117.938 95.2683 117.938C98.5472 117.711 101.883 117.824 105.283 118.286C108.676 118.755 112.076 119.403 115.476 120.221C118.415 120.933 121.362 121.832 124.301 122.892C124.544 123.014 124.641 123.03 126.139 123.678C132.916 126.617 133.547 127.564 135.094 127.483C138.049 127.321 141.222 123.548 141.449 120.431C141.854 114.95 133.377 108.684 120.107 104.992C119.16 104.725 118.197 104.465 117.233 104.231C113.371 103.3 109.445 102.595 105.461 102.126C101.478 101.656 97.7295 101.421 94.2158 101.421C86.9535 101.421 80.1607 102.012 73.8376 103.178C67.5145 104.352 61.5394 105.988 55.9207 108.101C50.3019 110.206 45.0313 112.788 40.1088 115.833C35.1863 118.877 30.7333 122.277 26.7581 126.026C22.7748 129.774 19.2043 133.758 16.0387 137.976C12.8731 142.194 10.1852 146.703 7.95869 151.505C5.73223 156.306 3.91868 161.228 2.50994 166.264C1.1012 171.3 0.28348 176.279 0.0486896 181.193C-0.186101 185.881 0.105363 190.504 0.931177 195.07C1.74889 199.637 3.09287 204.089 4.97119 208.421C6.84141 212.76 9.18932 216.914 11.9987 220.897C14.8081 224.881 18.0871 228.572 21.8356 231.965C25.5761 235.365 29.7375 238.466 34.3119 241.275C38.8781 244.085 43.8006 246.546 49.0713 248.651C54.3419 250.756 59.9607 252.286 65.9357 253.217C71.9107 254.148 78.0557 254.739 84.3789 254.974C90.9368 254.974 97.4381 254.448 103.883 253.395C110.319 252.343 116.586 250.643 122.682 248.303C128.77 245.963 134.859 243.089 140.955 239.697C147.044 236.304 153.019 232.491 158.872 228.281C164.726 224.063 170.523 219.44 176.263 214.404C182.003 209.368 187.8 204.098 193.653 198.592C199.507 193.095 205.247 187.29 210.866 181.201C216.485 175.113 222.168 168.847 227.909 162.402C233.649 155.966 239.446 149.464 245.299 142.898C251.153 136.34 257.006 129.726 262.868 123.046C268.722 116.367 274.575 109.696 280.437 103.016C286.29 96.3369 292.265 89.8437 298.354 83.5125C304.442 77.1893 310.652 70.9876 316.975 64.8912C323.298 58.8028 329.678 52.9412 336.123 47.3224C342.559 41.7036 349.125 36.3763 355.796 31.3324C357.173 30.288 358.557 29.2678 359.942 28.2639C361.52 27.1223 363.496 29.0654 362.387 30.6685C359.545 34.7733 356.711 38.87 353.869 42.9747C353.902 42.9585 353.926 42.9343 353.959 42.9181C352.971 43.9787 351.983 45.015 351.003 46.0837C342.098 55.8072 333.548 65.6441 325.355 75.5944C317.153 85.5527 309.251 95.503 301.641 105.461C294.03 115.42 286.938 125.313 280.38 135.15C273.822 144.987 267.847 154.532 262.463 163.786C257.071 173.04 252.327 181.938 248.23 190.488C244.125 199.037 240.854 207.126 238.393 214.728C235.932 222.346 234.353 229.196 233.649 235.284C233.414 237.162 233.527 239.146 233.997 241.259C234.466 243.364 235.106 245.364 235.932 247.234C236.75 249.112 237.867 250.691 239.268 251.979C240.676 253.266 242.19 253.914 243.834 253.914C245.243 253.914 246.999 253.331 249.104 252.157C251.209 250.991 253.614 249.291 256.31 247.064C258.998 244.838 261.986 242.206 265.273 239.162C268.552 236.118 272.065 232.604 275.814 228.621C279.554 224.638 283.546 220.306 287.756 215.618C291.974 210.939 296.305 206.016 300.758 200.859C305.203 195.71 309.891 190.261 314.813 184.521C319.736 178.781 324.707 172.927 329.743 166.952C334.779 160.977 339.936 154.889 345.207 148.679C350.477 142.477 355.804 136.203 361.197 129.88C366.581 123.556 372.029 117.233 377.535 110.902C383.032 104.579 388.546 98.3124 394.051 92.1026C399.548 85.9009 404.997 79.8692 410.389 74.0075C415.773 68.154 421.044 62.4704 426.201 56.965C431.35 51.4677 436.508 46.197 441.665 41.1531C446.814 36.1172 451.737 31.3729 456.424 26.9199C450.101 34.8866 443.6 43.1448 436.92 51.6944C430.241 60.244 423.57 68.9717 416.89 77.8694C410.211 86.7753 403.718 95.673 397.387 104.571C391.063 113.477 385.032 122.374 379.292 131.272C373.551 140.178 368.281 148.898 363.48 157.447C358.679 165.997 354.517 174.312 351.003 182.392C347.49 190.472 344.737 198.203 342.745 205.579C340.754 212.955 339.636 219.934 339.41 226.484C339.41 229.528 339.993 232.75 341.167 236.142C342.332 239.543 344.033 242.7 346.259 245.631C348.486 248.562 351.003 250.845 353.813 252.481C356.622 254.124 359.553 254.942 362.597 254.942C366.338 254.707 369.851 254.181 373.138 253.363C376.417 252.545 379.575 251.379 382.627 249.849C385.671 248.327 388.537 246.57 391.234 244.579C393.921 242.595 396.504 240.425 398.965 238.077C401.427 235.738 403.888 233.333 406.341 230.872C408.802 228.41 411.264 225.949 413.717 223.496C416.178 221.035 418.639 218.574 421.092 216.12C423.23 213.983 425.408 211.991 427.634 210.113C427.626 211.902 427.618 213.627 427.618 215.238C427.618 233.819 426.395 256.27 447.616 256.27C468.836 256.27 467.136 233.73 467.136 215.432C467.136 211.943 467.038 208.073 467.038 204.211C466.941 192.706 467.038 181.007 468.641 178.271C469.305 177.137 471.095 176.951 472.228 176.854V175.534H459.023V176.854L459.072 176.878Z" fill="#515B46"/>
<path d="M507.268 176.878C508.402 176.975 510.191 177.161 510.855 178.295C512.839 181.687 512.458 202.252 512.458 215.27V237.81L486.898 175.558H474.446V176.878C475.58 176.975 477.369 177.161 478.033 178.295C480.106 181.687 479.636 202.252 479.636 215.27C479.636 229.892 480.106 248.845 478.033 252.246C477.369 253.379 475.58 253.565 474.446 253.663V254.982H487.465V253.663C486.332 253.565 484.542 253.379 483.878 252.246C481.709 248.659 482.372 230.078 482.372 215.465L482.186 182.173L512.458 254.982H515.097V215.465C515.097 201.976 514.531 181.89 516.7 178.303C517.364 177.169 519.154 176.983 520.287 176.886V175.566H507.268V176.886V176.878Z" fill="#515B46"/>
<path d="M619.32 251.298C617.531 252.246 607.249 252.246 599.517 252.432C597.816 252.432 596.78 251.582 596.594 250.076C595.744 244.133 595.088 229.228 595.088 214.801C602.253 214.987 608.293 215.181 610.277 216.12C612.633 217.343 613.102 227.155 613.669 229.042L614.989 228.856C614.802 219.99 614.802 207.069 614.989 198.203L613.669 198.017C613.102 199.904 612.633 209.805 610.277 210.939C608.293 211.975 602.261 212.072 595.088 212.258C595.185 198.867 595.752 185.946 596.594 180.473C596.78 178.967 597.816 178.117 599.42 178.117C606.868 178.303 615.547 178.303 617.336 179.25C619.037 180.384 620.162 188.116 620.826 190.002L622.048 189.338C621.951 184.901 621.668 180.57 621.668 175.566H584.409V176.886C585.543 176.983 587.332 177.072 587.996 178.206C589.979 181.598 589.599 200.657 589.599 215.181C589.599 229.706 589.979 248.951 587.996 252.343C587.502 253.193 586.368 253.452 585.364 253.533C584.11 253.412 582.636 253.104 581.778 252.246C578.669 249.137 572.726 236.401 570.743 232.248L558.105 205.182L562.727 197.823C565.181 193.767 573.099 181.226 576.782 178.109C577.916 177.259 580.086 176.975 581.592 176.886V175.566H565.747L565.65 176.789C567.067 176.886 569.52 177.639 569.609 178.109C570.362 181.129 562.064 193.767 559.424 197.823C556.785 202.065 552.348 209.425 547.167 217.723V215.456C547.167 201.968 546.503 181.881 548.672 178.295C549.336 177.161 551.126 176.975 552.259 176.878V175.558H536.131V176.878C537.265 176.975 539.054 177.161 539.718 178.295C541.791 181.687 541.321 202.252 541.321 215.27C541.321 229.892 541.791 248.845 539.718 252.246C539.054 253.379 537.265 253.565 536.131 253.663V254.982H552.259V253.663C551.126 253.565 549.336 253.379 548.672 252.246C546.883 249.226 546.972 235.835 547.069 223.01L554.145 211.595C558.485 220.557 561.975 227.908 564.047 232.345C566.031 236.401 572.346 249.137 572.249 252.246C572.151 253.185 569.14 253.468 567.812 253.565V254.982H595.541L623.554 255.079C623.554 249.987 624.874 242.538 624.971 238.102L623.651 237.349C623.085 239.332 620.915 250.173 619.312 251.307L619.32 251.298Z" fill="#515B46"/>
<path d="M671.192 252.335C668.836 249.031 665.914 235.64 664.966 231.301L652.425 175.558H648.183L635.642 231.301C634.695 235.64 631.772 249.031 629.416 252.335C628.663 253.371 626.866 253.557 625.546 253.557V254.974H638.654L638.751 253.557C637.528 253.557 635.642 253.371 635.448 252.335C634.5 249.031 637.804 235.64 638.751 231.301C639.131 229.512 639.698 227.058 640.354 224.136H656.951C657.615 226.961 658.085 229.512 658.554 231.301C659.493 235.64 662.708 249.031 661.858 252.335C661.574 253.371 659.874 253.557 658.651 253.557L658.554 254.974H675.062V253.557C673.743 253.557 671.856 253.371 671.192 252.335ZM640.921 221.78C643.091 212.25 646.11 199.24 648.653 188.958C651.292 199.054 654.215 212.161 656.384 221.78H640.913H640.921Z" fill="#515B46"/>
<path d="M708.451 175.558H665.63C665.63 180.554 665.347 184.893 665.25 189.33L666.472 189.994C667.136 188.107 668.262 180.376 669.962 179.242C671.751 178.303 673.921 178.109 680.333 177.922C681.936 177.922 683.07 178.675 683.256 180.278C684.478 186.974 684.203 204.138 684.203 215.27C684.203 229.892 684.584 248.845 682.6 252.246C681.936 253.379 680.147 253.565 679.013 253.663V254.982H695.044L695.141 253.663C694.008 253.565 692.218 253.379 691.465 252.246C689.393 248.659 689.959 230.078 689.959 215.465C689.959 203.863 689.49 186.982 690.81 180.287C691.093 178.683 692.129 177.931 693.829 177.931C699.958 178.117 702.411 178.311 704.201 179.25C705.804 180.384 707.026 188.116 707.593 190.002L708.913 189.338C708.816 184.901 708.443 180.57 708.443 175.566L708.451 175.558Z" fill="#515B46"/>
<path d="M541.54 374.094C536.86 374.094 531.865 371.543 526.975 367.188C534.52 359.747 539.305 349.327 538.884 338.276C538.779 334.131 536.973 328.925 533.994 325.201C535.055 324.99 536.123 324.561 537.079 324.14C552.065 317.444 552.389 299.9 550.583 292.889C547.822 282.679 542.082 279.174 538.358 279.384C536.658 279.384 534.957 280.234 533.897 282.995C532.302 287.14 535.387 290.646 537.937 290.646C538.471 290.646 538.997 290.436 539.427 290.112C540.592 289.156 542.293 288.411 543.888 288.411C546.122 288.411 548.357 289.901 548.988 294.581C551.433 311.162 542.293 316.586 535.484 318.076C532.618 318.716 529.849 318.716 527.088 318.716C523.364 318.716 519.437 318.821 514.863 320.95C509.017 323.606 507.957 330.625 511.567 336.155C511.567 336.155 512.628 335.621 512.418 334.989C510.288 329.783 511.567 326.375 517.623 325.419C520.069 324.99 522.724 325.314 525.388 325.525C529.743 328.075 533.468 334.989 533.468 341.685C533.573 351.999 530.173 359.861 525.072 365.39C515.081 355.926 503.811 337.855 498.921 325.209C510.191 318.084 515.826 309.478 515.931 301.293C516.037 292.152 510.936 285.772 503.277 285.772C493.812 285.772 489.351 292.792 487.862 301.293C486.696 308.312 488.177 316.603 492.007 326.059C478.397 333.823 473.191 342.008 472.552 351.675C471.491 367.73 484.672 378.255 500.832 378.36H501.253C508.693 378.36 515.713 375.81 521.769 371.665C526.554 375.81 531.759 378.36 537.394 378.36C546.009 378.36 551.004 373.576 554.299 365.706L553.344 365.277C550.899 370.378 547.604 374.102 541.548 374.102L541.54 374.094ZM494.654 298.297C495.294 293.196 497.205 287.561 503.269 287.561C508.904 287.561 509.964 295.641 509.543 301.276C509.333 304.782 509.333 315.307 498.168 323.177C495.084 314.562 493.594 306.061 494.663 298.297H494.654ZM501.779 375.689C489.764 375.689 479.239 365.593 479.345 350.599C479.45 340.924 482.85 334.868 492.849 328.164C498.168 340.818 509.964 360.694 519.85 369.94C514.749 373.446 507.94 375.681 501.779 375.681V375.689Z" fill="#515B46"/>
</g>
<defs>
<clipPath id="clip0_1_5845">
<rect width="1033.49" height="470.981" fill="white"/>
</clipPath>
</defs>
</svg>
