<?xml version="1.0" encoding="UTF-8"?>
<svg id="Layer_2" data-name="Layer 2" xmlns="http://www.w3.org/2000/svg" viewBox="0 0 564.35 854.83">
  <defs>
    <style>
      .cls-1 {
        fill: #fdf6ee;
      }
    </style>
  </defs>
  <g id="Layer_1-2" data-name="Layer 1">
    <g>
      <path class="cls-1" d="M282.18,846.68c-36.96,0-72.81-11.11-106.55-33.02-32.57-21.15-61.81-51.41-86.92-89.96C37.1,644.47,8.67,539.15,8.67,427.12s28.42-217.35,80.03-296.58c25.11-38.55,54.35-68.81,86.92-89.96C209.37,18.67,245.22,7.56,282.18,7.56s72.81,11.11,106.55,33.02c32.57,21.15,61.81,51.41,86.92,89.96,51.61,79.23,80.03,184.55,80.03,296.58s-28.42,217.35-80.03,296.58c-25.11,38.55-54.35,68.81-86.92,89.96-33.74,21.91-69.59,33.02-106.55,33.02ZM282.18,8.73c-36.73,0-72.37,11.05-105.92,32.83-32.43,21.06-61.56,51.21-86.58,89.62C38.19,210.22,9.84,315.32,9.84,427.12s28.36,216.9,79.84,295.94c25.02,38.41,54.15,68.56,86.58,89.62,33.55,21.79,69.19,32.83,105.92,32.83s72.37-11.05,105.92-32.83c32.43-21.06,61.56-51.21,86.58-89.62,51.49-79.04,79.84-184.14,79.84-295.94s-28.36-216.9-79.84-295.94c-25.02-38.41-54.15-68.56-86.58-89.62-33.55-21.79-69.19-32.83-105.92-32.83Z"/>
      <path class="cls-1" d="M282.18,854.83c-38.13,0-75.11-11.32-109.93-33.64-33.6-21.54-63.77-52.38-89.68-91.64C29.32,648.84,0,541.54,0,427.42S29.32,205.99,82.57,125.28c25.91-39.27,56.08-70.1,89.68-91.64C207.06,11.32,244.05,0,282.18,0s75.11,11.32,109.92,33.64c33.6,21.54,63.77,52.38,89.68,91.64,53.25,80.71,82.57,188.01,82.57,302.14s-29.32,221.42-82.57,302.13c-25.91,39.27-56.08,70.1-89.68,91.64-34.81,22.32-71.8,33.64-109.92,33.64ZM282.18,1.19c-37.9,0-74.67,11.25-109.28,33.45-33.46,21.45-63.51,52.17-89.33,91.3C30.45,206.46,1.19,313.52,1.19,427.42s29.25,220.96,82.37,301.48c25.81,39.13,55.87,69.85,89.33,91.3,34.62,22.19,71.38,33.45,109.28,33.45s74.67-11.25,109.28-33.45c33.46-21.45,63.51-52.17,89.33-91.3,53.12-80.52,82.37-187.59,82.37-301.48s-29.25-220.96-82.37-301.48c-25.81-39.13-55.87-69.85-89.33-91.3C356.84,12.44,320.07,1.19,282.18,1.19Z"/>
    </g>
  </g>
</svg>