<?xml version="1.0" encoding="UTF-8"?>
<svg id="Layer_2" data-name="Layer 2" xmlns="http://www.w3.org/2000/svg" viewBox="0 0 234.84 79.81">
  <defs>
    <style>
      .cls-1 {
        fill: #fdf6ee;
      }

      .cls-2 {
        fill: #515b46;
      }
    </style>
  </defs>
  <g id="Layer_1-2" data-name="Layer 1">
    <g>
      <path class="cls-2" d="M0,73.31V6.5c5.68,0,10.29-2.91,10.29-6.5h214.26c0,3.59,4.61,6.5,10.29,6.5v66.82c-5.68,0-10.29,2.91-10.29,6.5H10.29c0-3.59-4.61-6.5-10.29-6.5Z"/>
      <g>
        <path class="cls-1" d="M87.57,33.76c.08-.02.15-.03.21-.04.06,0,.12-.01.16-.01.12,0,.21.03.26.08s.11.16.17.31l3.77,9.94,2.81-8.12c.08-.2.11-.36.11-.48,0-.21-.1-.37-.3-.47s-.54-.18-1.04-.24c-.18-.02-.28-.16-.28-.44,0-.03,0-.06.01-.1,0-.04.01-.08.01-.13l.02-.18c.26.03.63.06,1.12.08.48.02.93.03,1.35.03.44,0,.87,0,1.26-.02.4-.02.75-.05,1.06-.09l.02.18s0,.09.01.14c0,.05.01.08.01.12,0,.29-.1.45-.3.46-.48.05-.82.12-1.05.23-.22.11-.39.31-.49.62l-4.85,13.57c-.08.02-.13.02-.16.02h-.16c-.11,0-.19-.02-.24-.07s-.12-.15-.2-.32l-3.75-9.98-3.66,10.35c-.08.02-.13.02-.17.02h-.15c-.12,0-.21-.02-.26-.07-.05-.05-.11-.15-.17-.32l-5.04-13.32c-.08-.21-.21-.38-.4-.5-.19-.11-.58-.2-1.16-.26-.2-.01-.3-.18-.3-.48v-.2c0-.08.02-.15.05-.2.23.02.49.03.78.05.29.01.59.03.89.03.3,0,.59.02.87.02.28,0,.53.01.75.01.51,0,1.06-.01,1.66-.03.6-.02,1.13-.05,1.61-.08.02.08.03.15.03.23,0,.08.01.14.01.18,0,.28-.1.42-.3.44-.49.05-.84.12-1.04.23-.2.11-.3.25-.3.44,0,.06,0,.12.02.17s.04.12.07.2l3.01,8.3,3.63-10.3Z"/>
        <path class="cls-1" d="M98.38,44.02c0-.75.13-1.45.4-2.08.27-.64.64-1.19,1.12-1.66s1.04-.83,1.7-1.09,1.38-.39,2.16-.39,1.55.13,2.21.39c.66.26,1.23.62,1.7,1.09.48.47.84,1.02,1.09,1.66.25.64.38,1.33.38,2.08s-.13,1.45-.4,2.08c-.27.64-.64,1.18-1.13,1.64s-1.05.82-1.71,1.08c-.66.26-1.38.39-2.16.39s-1.55-.13-2.21-.39c-.66-.26-1.22-.62-1.69-1.08-.47-.46-.83-1.01-1.08-1.64-.25-.64-.38-1.33-.38-2.08ZM101.28,43.56c0,1.41.23,2.54.7,3.38.47.84,1.14,1.26,2.01,1.26.81,0,1.39-.33,1.74-.98.35-.65.52-1.57.52-2.75,0-1.4-.24-2.52-.71-3.38-.48-.86-1.14-1.29-2-1.29-.81,0-1.39.33-1.74,1-.34.67-.52,1.58-.52,2.75Z"/>
        <path class="cls-1" d="M120.21,41.05c.54-.69,1.1-1.24,1.69-1.64s1.19-.61,1.81-.61c1.92,0,2.88,1.04,2.88,3.13v5.61c0,.21.09.38.28.48s.52.21,1.01.3c.17.03.25.13.25.3v.23c0,.08-.02.15-.05.21-.38-.03-.77-.06-1.17-.08-.4-.02-.9-.03-1.49-.03-.51,0-.97.01-1.39.03-.42.02-.84.05-1.25.08-.03-.15-.05-.3-.05-.44,0-.11.03-.18.08-.22s.11-.07.17-.08c.41-.08.69-.17.82-.28.13-.11.2-.28.2-.51v-4.51c0-.9-.09-1.53-.26-1.87-.18-.35-.5-.52-.98-.52-.69,0-1.27.23-1.75.7-.48.47-.71,1.16-.71,2.08v4.12c0,.23.07.4.21.51.14.11.41.2.81.28.17.03.25.13.25.3v.23c0,.08-.02.15-.05.21-.37-.03-.74-.06-1.1-.08-.37-.02-.8-.03-1.29-.03s-.97.01-1.39.03c-.42.02-.84.05-1.25.08-.03-.15-.05-.3-.05-.44,0-.11.03-.18.08-.22s.11-.07.17-.08c.41-.08.69-.17.82-.28.13-.11.2-.28.2-.51v-4.51c0-.9-.09-1.53-.26-1.87-.18-.35-.5-.52-.98-.52-.69,0-1.27.23-1.75.7s-.71,1.16-.71,2.08v4.12c0,.23.07.4.21.51.14.11.41.2.81.28.17.03.25.13.25.3v.23c0,.08-.02.15-.05.21-.4-.03-.81-.06-1.24-.08-.43-.02-.89-.03-1.38-.03-.6,0-1.1.01-1.51.03-.41.02-.8.05-1.18.08-.03-.15-.05-.3-.05-.44,0-.11.03-.18.08-.22s.11-.07.17-.08c.49-.09.83-.19,1.01-.3s.28-.28.28-.51v-6.07c0-.46-.08-.81-.25-1.06-.17-.25-.52-.39-1.06-.44-.2-.05-.3-.17-.3-.37v-.17c0-.07.02-.13.05-.2.09,0,.23,0,.4-.01.18,0,.36-.02.56-.02.2,0,.4-.02.6-.03s.38-.03.55-.05c.38-.05.75-.11,1.1-.18.35-.08.59-.11.71-.11.25,0,.37.11.37.34,0,.17-.02.39-.07.67-.05.28-.07.66-.07,1.15.49-.64,1.03-1.17,1.62-1.56.59-.4,1.19-.6,1.81-.6,1.61,0,2.54.75,2.81,2.25Z"/>
        <path class="cls-1" d="M137.3,46.82c.14-.11.26-.16.37-.16.08,0,.16.04.26.1.1.07.2.2.31.4-.6.71-1.28,1.22-2.06,1.55-.77.33-1.69.5-2.75.5-.6,0-1.18-.1-1.76-.29s-1.09-.49-1.55-.9c-.46-.41-.83-.92-1.12-1.53-.28-.61-.43-1.35-.43-2.21s.16-1.61.49-2.29c.33-.68.75-1.26,1.25-1.74.51-.48,1.06-.84,1.66-1.09s1.17-.38,1.73-.38c1.49,0,2.61.43,3.37,1.29.76.86,1.14,2.03,1.14,3.52,0,.11-.05.16-.16.16l-6.58.28c0,1.2.27,2.11.8,2.75.54.64,1.34.95,2.41.95.47,0,.94-.08,1.4-.23s.86-.38,1.22-.69ZM133.37,39.81c-.59,0-1.07.26-1.43.77-.36.51-.54,1.32-.54,2.43l3.57-.16c.23-.02.34-.12.34-.3,0-.29-.04-.6-.11-.92-.08-.32-.19-.62-.35-.88s-.36-.49-.61-.67c-.24-.18-.53-.26-.87-.26Z"/>
        <path class="cls-1" d="M149.46,47.53c0,.21.09.38.28.5.18.11.52.21,1.01.29.06.02.12.04.17.08.05.04.08.11.08.22,0,.09,0,.17-.01.24,0,.07-.02.13-.03.2-.4-.03-.8-.06-1.2-.08-.4-.02-.9-.03-1.5-.03-.49,0-.95.01-1.38.03-.43.02-.84.05-1.24.08-.03-.08-.05-.22-.05-.44,0-.17.08-.27.25-.3.4-.08.67-.17.81-.28.14-.11.21-.28.21-.51v-4.51c0-.9-.11-1.53-.33-1.87-.22-.35-.58-.52-1.07-.52-.69,0-1.28.23-1.77.7s-.74,1.16-.74,2.08v4.12c0,.23.07.4.21.51.14.11.41.2.81.28.17.03.25.13.25.3,0,.21-.02.36-.05.44-.4-.03-.81-.06-1.24-.08-.43-.02-.89-.03-1.38-.03-.6,0-1.1.01-1.51.03-.41.02-.8.05-1.18.08-.02-.06-.03-.13-.03-.2,0-.07-.01-.15-.01-.24,0-.11.03-.18.08-.22s.11-.07.17-.08c.49-.09.83-.19,1.01-.3s.28-.28.28-.51v-6.07c0-.46-.08-.81-.25-1.06-.17-.25-.52-.39-1.06-.44-.2-.05-.3-.17-.3-.37v-.17c0-.07.02-.13.05-.2.09,0,.23,0,.4-.01.18,0,.36-.02.56-.02.2,0,.4-.02.6-.03s.38-.03.55-.05c.38-.05.75-.11,1.1-.18.35-.08.59-.11.71-.11.25,0,.37.11.37.34,0,.17-.02.39-.07.67-.05.28-.07.66-.07,1.15.49-.64,1.04-1.17,1.63-1.56.6-.4,1.22-.6,1.86-.6.94,0,1.67.26,2.21.78.54.52.8,1.3.8,2.35v5.61Z"/>
        <path class="cls-1" d="M157.93,41.88c-.21-.02-.34-.1-.37-.25-.11-.63-.35-1.09-.74-1.38-.38-.29-.87-.44-1.45-.44-.52,0-.92.13-1.2.39s-.41.57-.41.92c0,.17.02.32.07.46.05.14.14.27.29.39.15.12.35.24.61.36s.61.24,1.06.38c.52.15.98.32,1.38.5.4.18.74.39,1.01.63.28.25.49.54.63.89s.22.76.22,1.23c0,.45-.07.87-.22,1.27-.15.4-.38.75-.7,1.05-.32.3-.73.53-1.22.7-.49.17-1.08.25-1.77.25-.49,0-1.05-.05-1.69-.16-.64-.11-1.22-.3-1.74-.58-.03-.4-.06-.82-.08-1.28s-.03-.9-.03-1.35h.3c.17,0,.31.03.44.08.12.05.19.14.21.26.06.64.31,1.14.76,1.48.44.35,1.06.52,1.84.52.54,0,.97-.12,1.31-.37.34-.25.51-.57.51-.97,0-.37-.15-.68-.45-.94s-.86-.51-1.69-.76c-1.12-.32-1.91-.75-2.36-1.28-.45-.53-.68-1.16-.68-1.9,0-.97.33-1.74.98-2.32.65-.58,1.5-.87,2.54-.87.6,0,1.18.07,1.74.22.56.15,1.01.3,1.35.47.02.12.03.29.05.49.02.21.03.43.05.67.02.24.03.47.03.69,0,.22.01.41.01.56l-.57-.02Z"/>
      </g>
    </g>
  </g>
</svg>